<?xml version="1.0" standalone="no"?>
<!DOCTYPE svg PUBLIC "-//W3C//DTD SVG 1.1//EN" "http://www.w3.org/Graphics/SVG/1.1/DTD/svg11.dtd" >
<svg xmlns="http://www.w3.org/2000/svg" xmlns:xlink="http://www.w3.org/1999/xlink" version="1.1">
<metadata>
Created by FontForge 20200427 at Thu Feb  8 05:41:20 2018
 By www
Copyright (c) 2017 by Joshua Darden, Inc. All rights reserved.
Halyard is a trademark ofA^ Joshua Darden, Inc.
</metadata>
<defs>
<font id="HalyardText-Regular" horiz-adv-x="0" >
  <font-face 
    font-family="Halyard Text"
    font-weight="400"
    font-stretch="normal"
    units-per-em="1000"
    panose-1="0 0 0 0 0 0 0 0 0 0"
    ascent="800"
    descent="-200"
    x-height="497"
    cap-height="659"
    bbox="-298 -279 1270 1060"
    underline-thickness="33"
    underline-position="-39"
    unicode-range="U+000D-FB04"
  />
<missing-glyph horiz-adv-x="717" 
d="M574 822v-892h-431v892h431zM499 752h-281v-752h281v752z" />
    <glyph glyph-name=".notdef" horiz-adv-x="717" 
d="M574 822v-892h-431v892h431zM499 752h-281v-752h281v752z" />
    <glyph glyph-name=".null" 
 />
    <glyph glyph-name="nonmarkingreturn" unicode="&#xd;" horiz-adv-x="169" 
 />
    <glyph glyph-name="NULL" 
 />
    <glyph glyph-name="NULL" 
 />
    <glyph glyph-name="space" unicode=" " horiz-adv-x="218" 
 />
    <glyph glyph-name="exclam" unicode="!" horiz-adv-x="277" 
d="M78 724h120v-64l-38 -428h-43l-39 428v64zM84 139q0 7 7 7h95q7 0 7 -7v-132q0 -7 -7 -7h-97q-5 0 -5 7v132z" />
    <glyph glyph-name="quotedbl" unicode="&#x22;" horiz-adv-x="416" 
d="M264 706h92v-117q0 -22 -19 -157l-10 -84h-33l-5 36q-4 30 -14.5 111.5t-10.5 93.5v117zM59 706h92v-117q0 -22 -19 -157l-10 -84h-33l-5 36q-4 30 -14.5 111.5t-10.5 93.5v117z" />
    <glyph glyph-name="numbersign" unicode="#" horiz-adv-x="660" 
d="M215 508l42 164h72l-43 -167h165l43 167h72l-42 -165h86v-77h-105l-48 -188h100v-78h-119l-41 -164h-73l42 167h-165l-42 -167h-73l41 164h-76v78h96l48 188h-101v78h121zM384 239l49 193h-165l-49 -193h165z" />
    <glyph glyph-name="dollar" unicode="$" horiz-adv-x="618" 
d="M147 58.5q-59 30.5 -100 80.5l72 56q86 -99 209 -99q67 0 100.5 22t33.5 63q0 42 -40.5 65.5t-133.5 48.5q-67 17 -113 36t-76.5 53.5t-30.5 88.5q0 75 60 122t155 52v107h77v-110q118 -17 201 -110l-74 -48q-39 42 -85 64.5t-103 22.5q-62 0 -98 -23t-36 -63
q0 -42 40 -64.5t133 -46.5q69 -18 117 -38t79 -54.5t31 -87.5q0 -78 -56.5 -124.5t-153.5 -52.5v-113h-78v114q-71 8 -130 38.5z" />
    <glyph glyph-name="percent" unicode="%" horiz-adv-x="786" 
d="M90 638.5q45 44.5 119 44.5q70 0 114 -45t44 -117t-45 -117t-117 -45t-116 44t-44 118q0 73 45 117.5zM666 677l-462 -677h-83l462 677h83zM297 523q0 46 -24 71.5t-66 25.5q-43 0 -67.5 -26t-24.5 -71v-3q0 -47 23.5 -73.5t66.5 -26.5t67.5 26.5t24.5 73.5v3zM464 266.5
q45 44.5 119 44.5q71 0 114.5 -45t43.5 -118q0 -72 -45 -117t-117 -45t-116 44.5t-44 117.5q0 74 45 118.5zM671 151q0 45 -23.5 70.5t-65.5 25.5q-43 0 -68 -26t-25 -70v-4q0 -47 23.5 -73.5t66.5 -26.5q44 0 68 26.5t24 73.5v4z" />
    <glyph glyph-name="ampersand" unicode="&#x26;" horiz-adv-x="744" 
d="M235 358q-33 41 -48.5 76t-15.5 73q0 74 52 119.5t136 45.5q79 0 126 -41.5t47 -110.5q0 -62 -44.5 -105.5t-126.5 -66.5l34 -36l131 -133q56 74 68 194h98q-13 -78 -41 -138t-72 -109q39 -41 75 -77t48 -49h-130l-62 67q-42 -37 -92 -58t-115 -21q-112 0 -177 50.5
t-65 135.5q0 135 174 184zM411.5 442q32.5 33 32.5 75q0 38 -23.5 60.5t-65.5 22.5q-41 0 -65.5 -25t-24.5 -65q0 -30 12 -55t43 -61q59 15 91.5 48zM160 188q0 -58 41 -90t108 -32q84 0 150 54l-160 166l-26 28q-113 -35 -113 -126z" />
    <glyph glyph-name="quotesingle" unicode="'" horiz-adv-x="211" 
d="M59 706h92v-117q0 -22 -19 -157l-10 -84h-33l-5 36q-4 30 -14.5 111.5t-10.5 93.5v117z" />
    <glyph glyph-name="parenleft" unicode="(" horiz-adv-x="385" 
d="M57 292q0 109 34.5 209t102 169t163.5 84l-1 -83q-61 -14 -107 -64t-71.5 -130.5t-25.5 -184.5v-16q0 -103 25.5 -184.5t71.5 -132t107 -64.5l1 -84q-95 15 -163 85t-102.5 171t-34.5 209v16z" />
    <glyph glyph-name="parenright" unicode=")" horiz-adv-x="386" 
d="M136 -40.5q46 50.5 71.5 132t25.5 184.5v16q0 104 -25 184.5t-71 130.5t-108 64v83q96 -15 163.5 -84t101.5 -169t34 -209v-16q0 -108 -34.5 -209t-102 -171t-162.5 -85v84q61 14 107 64.5z" />
    <glyph glyph-name="asterisk" unicode="*" horiz-adv-x="548" 
d="M98 399l-44 80l185 74l-184 75l44 78l158 -123l-27 198h91l-28 -198l156 122l46 -78l-186 -75l186 -74l-45 -80l-157 123l28 -198h-91l27 198z" />
    <glyph glyph-name="plus" unicode="+" horiz-adv-x="521" 
d="M216 348v168h91v-168h163v-86h-163v-171h-91v171h-166v86h166z" />
    <glyph glyph-name="comma" unicode="," horiz-adv-x="244" 
d="M27 -141q43 15 59.5 50t17.5 100h-31q-5 0 -5 6v124q0 7 9 7h93q6 0 6 -7v-86q0 -103 -30.5 -161t-98.5 -77z" />
    <glyph glyph-name="hyphen" unicode="-" horiz-adv-x="408" 
d="M338 311v-88h-268v88h268z" />
    <glyph glyph-name="period" unicode="." horiz-adv-x="244" 
d="M68 139q0 7 7 7h95q6 0 6 -7v-132q0 -7 -6 -7h-97q-5 0 -5 7v132z" />
    <glyph glyph-name="slash" unicode="/" horiz-adv-x="457" 
d="M417 672l-279 -672h-98l279 672h98z" />
    <glyph glyph-name="zero" unicode="0" horiz-adv-x="656" 
d="M125.5 579.5q71.5 92.5 203.5 92.5q131 0 202 -91.5t71 -248.5q0 -102 -32 -180t-94 -121.5t-149 -43.5t-148.5 43t-93 120.5t-31.5 179.5q0 157 71.5 249.5zM498 333q0 122 -43.5 188t-126.5 66t-126.5 -66t-43.5 -189v-2q0 -122 44.5 -190t126.5 -68t125.5 68t43.5 190
v3z" />
    <glyph glyph-name="one" unicode="1" horiz-adv-x="435" 
d="M238 525h-3q-31 -54 -82 -92.5t-119 -57.5v117q69 9 127 51.5t75 115.5h98v-659h-102v408z" />
    <glyph glyph-name="two" unicode="2" horiz-adv-x="589" 
d="M84.5 154q27.5 49 74.5 85.5t117 73.5q53 27 83.5 48t49.5 48t19 63q0 49 -32.5 80.5t-97.5 31.5q-60 0 -104 -35t-63 -93l-88 38q24 76 92.5 127t163.5 51q114 0 174 -55t60 -143q0 -54 -26 -94t-64 -67t-97 -59q-87 -47 -129 -83t-52 -87l2 -2q14 2 39.5 4t39.5 3h291
v-89h-480v39q0 66 27.5 115z" />
    <glyph glyph-name="three" unicode="3" horiz-adv-x="609" 
d="M148 199q4 -64 44 -97t111 -33q68 0 106.5 31t38.5 85v2q0 112 -145 112h-60v79h57q66 0 101 29.5t35 78.5v2q0 47 -35.5 74t-96.5 27q-69 0 -106 -32.5t-42 -92.5h-102q9 105 77.5 156.5t177.5 51.5q105 0 166.5 -46t61.5 -126q0 -52 -35 -90.5t-101 -54.5
q75 -14 114 -58t39 -110q0 -59 -31 -104.5t-88 -70.5t-133 -25q-108 0 -180.5 48t-77.5 164h104z" />
    <glyph glyph-name="four" unicode="4" horiz-adv-x="588" 
d="M287 659h128l-232 -370l-58 -74l97 12h140l2 160l97 33v-193h93v-91h-93v-136h-99v136h-330v84z" />
    <glyph glyph-name="five" unicode="5" horiz-adv-x="602" 
d="M145 189q13 -55 53.5 -86.5t101.5 -31.5q70 0 110 41.5t40 105.5v2q0 65 -39 104.5t-106 39.5q-96 0 -159 -82l-79 33l45 344h400v-90h-323l-32 -199q33 38 80.5 57.5t97.5 19.5q102 0 162.5 -59.5t60.5 -163.5q0 -66 -34 -120t-93 -84.5t-131 -30.5q-105 0 -169 45
t-82 125z" />
    <glyph glyph-name="six" unicode="6" horiz-adv-x="595" 
d="M116 582q76 90 209 90q90 0 144 -36t75 -92l-85 -34q-14 34 -49.5 57t-87.5 23q-80 0 -130 -64.5t-51 -179.5l-4 -35q26 59 80.5 90.5t120.5 31.5q103 0 162.5 -59.5t59.5 -158.5q0 -60 -31.5 -112t-88 -83t-127.5 -31q-87 0 -148.5 42.5t-93 117t-31.5 171.5
q0 172 76 262zM456 216q0 62 -36.5 101.5t-103.5 39.5q-43 0 -79.5 -19.5t-59 -50t-25.5 -62.5l1 -7q5 -38 26 -72.5t55.5 -56.5t76.5 -22q67 0 106 39.5t39 105.5v4z" />
    <glyph glyph-name="seven" unicode="7" horiz-adv-x="526" 
d="M99 0l253 488l58 86l-108 -8h-264v93h462v-75l-282 -584h-119z" />
    <glyph glyph-name="eight" unicode="8" horiz-adv-x="625" 
d="M93.5 281.5q38.5 40.5 106.5 59.5q-58 18 -90 56.5t-32 95.5q0 82 64 130.5t169 48.5q108 0 171.5 -47t63.5 -130q0 -107 -128 -144q72 -17 112 -59t40 -107q0 -90 -67 -144t-187 -54q-78 0 -137 23.5t-91.5 66.5t-32.5 100q0 64 38.5 104.5zM411.5 567.5
q-35.5 27.5 -97.5 27.5t-99 -29t-37 -78q0 -50 38.5 -79t101.5 -29q62 0 95.5 29.5t33.5 81.5q0 49 -35.5 76.5zM425.5 273q-43.5 33 -118.5 33q-72 0 -111 -34t-39 -89q0 -53 43 -85.5t115 -32.5q73 0 113.5 32t40.5 86q0 57 -43.5 90z" />
    <glyph glyph-name="nine" unicode="9" horiz-adv-x="626" 
d="M154 159q15 -39 54 -62.5t94 -23.5q87 0 127.5 65.5t40.5 185.5v16q-25 -53 -75.5 -84t-117.5 -31q-66 0 -118 28.5t-81 79t-29 112.5q0 65 32.5 116.5t90.5 81t130 29.5q129 0 198 -83.5t69 -246.5q0 -167 -67 -260t-204 -93q-89 0 -150 37t-85 93zM455 450
q-10 68 -48 104.5t-104 36.5t-107.5 -39t-41.5 -99v-3q0 -63 39.5 -103t110.5 -40q46 0 79.5 21.5t51.5 53.5t20 63v5z" />
    <glyph glyph-name="colon" unicode=":" horiz-adv-x="245" 
d="M68 322v132q0 7 7 7h96q6 0 6 -7v-132q0 -7 -6 -7h-97q-6 0 -6 7zM68 7v132q0 7 7 7h96q6 0 6 -7v-132q0 -7 -6 -7h-97q-6 0 -6 7z" />
    <glyph glyph-name="semicolon" unicode=";" horiz-adv-x="255" 
d="M75 454q0 7 7 7h95q6 0 6 -7v-132q0 -7 -6 -7h-97q-5 0 -5 7v132zM34 -141q43 15 59.5 50t17.5 100h-31q-5 0 -5 6v124q0 7 9 7h93q6 0 6 -7v-86q0 -103 -30.5 -161t-98.5 -77z" />
    <glyph glyph-name="less" unicode="&#x3c;" horiz-adv-x="424" 
d="M47 344l313 205v-101l-214 -142l214 -141v-100l-313 204v75z" />
    <glyph glyph-name="equal" unicode="=" horiz-adv-x="522" 
d="M457 468v-85h-392v85h392zM457 228v-85h-392v85h392z" />
    <glyph glyph-name="greater" unicode="&#x3e;" horiz-adv-x="424" 
d="M64 165l214 141l-214 142v101l313 -205v-75l-313 -204v100z" />
    <glyph glyph-name="question" unicode="?" horiz-adv-x="535" 
d="M230.5 323q14.5 30 42.5 56l31 26q30 25 46 41.5t26.5 39t10.5 52.5q0 45 -30.5 74t-89.5 29q-60 0 -96 -37.5t-53 -88.5l-90 37q28 77 90 125.5t154 48.5q107 0 163 -50.5t56 -129.5q0 -42 -15 -74t-37 -54t-59 -52q-19 -15 -38 -32q-26 -22 -37 -46t-11 -64h-77
q-1 2 -1 22q0 47 14.5 77zM202 137q0 7 7 7h95q7 0 7 -7v-130q0 -7 -7 -7h-97q-5 0 -5 7v130z" />
    <glyph glyph-name="at" unicode="@" horiz-adv-x="938" 
d="M282.5 312q27.5 58 74.5 94t102 36q52 0 80.5 -30.5t33.5 -78.5l26 97h83l-60 -216q-10 -30 -13 -45.5t-3 -30.5q0 -20 8.5 -28.5t34.5 -8.5q49 0 83.5 38.5t51.5 96.5t17 117q0 77 -36 134t-103 87.5t-158 30.5q-113 0 -199 -54.5t-132.5 -148t-46.5 -207.5
q0 -100 39.5 -171t112.5 -108.5t172 -37.5q110 0 199 54l31 -50q-55 -33 -111 -50t-120 -17q-115 0 -204 44t-138.5 129t-49.5 203q0 132 57 240t159.5 170.5t231.5 62.5q109 0 191.5 -38t127.5 -107.5t45 -160.5q0 -86 -30 -160t-83 -118t-117 -44q-110 0 -107 104
q-24 -46 -62 -73.5t-86 -27.5q-57 0 -93 37.5t-36 114.5q0 63 27.5 121zM536 355.5q-21 26.5 -62 26.5q-37 0 -68 -27.5t-49 -70t-18 -85.5q0 -97 79 -97q36 0 66.5 23.5t50 63.5t22.5 90q0 50 -21 76.5z" />
    <glyph glyph-name="A" unicode="A" horiz-adv-x="616" 
d="M376 659l230 -659h-106l-60 179h-265l-60 -179h-105l234 659h132zM414 262l-71 214l-31 120h-4l-34 -120l-72 -214h212z" />
    <glyph glyph-name="B" unicode="B" horiz-adv-x="641" 
d="M317 659q120 0 180.5 -40.5t60.5 -126.5q0 -108 -118 -137q151 -32 151 -165q0 -91 -67 -140.5t-189 -49.5h-241v659h223zM333 375q58 1 91 29t33 76q0 49 -33.5 73t-111.5 24h-119v-202h140zM486 189q0 54 -39 84t-128 30h-126v-222h144q149 0 149 108z" />
    <glyph glyph-name="C" unicode="C" horiz-adv-x="661" 
d="M87.5 509.5q37.5 77.5 106.5 120t161 42.5q107 0 174.5 -53t92.5 -156l-101 -20q-20 77 -60 111.5t-107 34.5q-92 0 -146 -69.5t-54 -187.5v-3q0 -119 52.5 -188.5t147.5 -69.5q73 0 113.5 39t56.5 113l100 -19q-21 -104 -91 -160t-180 -56q-94 0 -162 42.5t-104.5 120
t-36.5 179.5t37.5 179.5z" />
    <glyph glyph-name="D" unicode="D" horiz-adv-x="675" 
d="M309 659q153 0 234.5 -84.5t81.5 -244.5q0 -157 -85.5 -243.5t-242.5 -86.5h-203v659h215zM464 148q54 63 54 181v4q0 242 -212 242h-112v-490h110q106 0 160 63z" />
    <glyph glyph-name="E" unicode="E" horiz-adv-x="580" 
d="M527 659v-88h-333v-188h236v-86h-236v-210h346v-87h-446v659h433z" />
    <glyph glyph-name="F" unicode="F" horiz-adv-x="538" 
d="M512 659v-89h-316v-200h250v-89h-250v-281h-102v659h418z" />
    <glyph glyph-name="G" unicode="G" horiz-adv-x="709" 
d="M89 509.5q39 77.5 111 120t169 42.5q103 0 170.5 -43.5t98.5 -125.5l-104 -33q-37 119 -165 119q-99 0 -157 -68t-58 -188v-4q0 -121 54.5 -190t149.5 -69q79 0 132 48.5t57 142.5h-167v89h267v-350h-78l-8 181q-16 -94 -74 -143.5t-146 -49.5q-87 0 -153 42.5
t-102 119.5t-36 178q0 104 39 181.5z" />
    <glyph glyph-name="H" unicode="H" horiz-adv-x="700" 
d="M196 659v-278h307v278h102v-659h-102v293h-307v-293h-102v659h102z" />
    <glyph glyph-name="I" unicode="I" horiz-adv-x="294" 
d="M198 659v-659h-102v659h102z" />
    <glyph glyph-name="J" unicode="J" horiz-adv-x="530" 
d="M121 206q7 -65 34.5 -96t79.5 -31q61 0 85.5 34.5t24.5 114.5v431h101v-442q0 -117 -52 -173.5t-157 -56.5q-99 0 -153.5 54t-62.5 150z" />
    <glyph glyph-name="K" unicode="K" horiz-adv-x="623" 
d="M194 659v-287l-4 -80l290 367h119l-218 -271l229 -388h-117l-181 321l-122 -146l4 -67v-108h-100v659h100z" />
    <glyph glyph-name="L" unicode="L" horiz-adv-x="506" 
d="M197 659v-568h285v-91h-388v659h103z" />
    <glyph glyph-name="M" unicode="M" horiz-adv-x="886" 
d="M257 659l161 -450l25 -113h5l22 113l161 450h161v-659h-98v326l8 264h-7l-55 -173l-156 -417h-81l-155 412l-60 178h-7l12 -264v-326h-99v659h163z" />
    <glyph glyph-name="N" unicode="N" horiz-adv-x="713" 
d="M211 659l242 -388l82 -159l-14 162v385h98v-659h-96l-269 423l-80 152l16 -155v-420h-96v659h117z" />
    <glyph glyph-name="O" unicode="O" horiz-adv-x="713" 
d="M87.5 510q36.5 77 106 119.5t166.5 42.5q94 0 162 -42.5t104 -120t36 -180.5q0 -104 -37 -181t-107.5 -118.5t-166.5 -41.5q-94 0 -161.5 41.5t-103 118t-35.5 181.5q0 104 36.5 181zM556 331q0 122 -52.5 190t-147.5 68q-96 0 -149 -68t-53 -190v-3q0 -121 53 -189.5
t148 -68.5q96 0 148.5 67.5t52.5 191.5v2z" />
    <glyph glyph-name="P" unicode="P" horiz-adv-x="579" 
d="M302 659q125 0 184 -51t59 -152q0 -103 -69 -163.5t-190 -60.5h-91v-232h-101v659h208zM283 313q81 0 120 36t39 97q0 72 -35.5 102.5t-122.5 30.5h-89v-266h88z" />
    <glyph glyph-name="Q" unicode="Q" horiz-adv-x="713" 
d="M87 510q36 77 105 119.5t166 42.5q94 0 162.5 -42.5t105 -120t36.5 -180.5q0 -125 -51.5 -209t-146.5 -115q67 -15 104 -60.5t54 -118.5h-131q-8 63 -34 107t-67 57q-24 -2 -37 -2q-94 0 -162 41.5t-104 118t-36 181.5q0 104 36 181zM556 331q0 122 -52.5 190t-147.5 68
q-96 0 -149 -68t-53 -190v-3q0 -121 53 -189.5t148 -68.5q96 0 148.5 67.5t52.5 191.5v2z" />
    <glyph glyph-name="R" unicode="R" horiz-adv-x="636" 
d="M317 659q123 0 181 -46.5t58 -128.5q0 -57 -35 -104t-116 -64q75 -16 117.5 -86t52.5 -193q1 -31 3 -37h-105q0 3 -0.5 10t-0.5 21q-9 121 -51 178t-127 57h-100v-266h-100v659h223zM416.5 378.5q36.5 35.5 36.5 91.5q0 54 -34 81t-119 27h-106v-235h107q79 0 115.5 35.5
z" />
    <glyph glyph-name="S" unicode="S" horiz-adv-x="566" 
d="M128 185q15 -56 56.5 -84.5t97.5 -28.5q62 0 97.5 27.5t35.5 74.5q0 33 -18 54t-51.5 36t-95.5 34q-96 30 -141.5 72t-45.5 120q0 52 28 93t79 64.5t118 23.5q90 0 149 -37.5t78 -109.5l-86 -37q-13 51 -49 76.5t-92 25.5q-60 0 -93 -26t-33 -65q0 -31 13 -50.5
t43.5 -34.5t90.5 -33q67 -20 111.5 -43t71.5 -60t27 -92q0 -59 -30.5 -103t-85.5 -68.5t-125 -24.5q-92 0 -154.5 40.5t-85.5 119.5z" />
    <glyph glyph-name="T" unicode="T" horiz-adv-x="531" 
d="M506 659v-90h-189v-569h-102v569h-190v90h481z" />
    <glyph glyph-name="U" unicode="U" horiz-adv-x="672" 
d="M81 659h102v-389q0 -100 37.5 -147t115.5 -47q79 0 117 46.5t38 147.5v389h101v-392q0 -141 -67 -210.5t-187 -69.5q-257 0 -257 280v392z" />
    <glyph glyph-name="V" unicode="V" horiz-adv-x="585" 
d="M119 659l141 -439l31 -133h4l30 133l143 439h107l-227 -659h-113l-224 659h108z" />
    <glyph glyph-name="W" unicode="W" horiz-adv-x="884" 
d="M120 659l103 -423l25 -157h5l26 157l111 423h106l111 -423l26 -157h5l26 157l101 423h105l-183 -659h-107l-116 442l-21 138h-5l-22 -138l-112 -442h-107l-183 659h106z" />
    <glyph glyph-name="X" unicode="X" horiz-adv-x="590" 
d="M295 287l-57 -114l-108 -173h-119l222 336l-204 323h117l104 -171l46 -101l50 100l108 172h117l-214 -317l215 -342h-118l-102 170z" />
    <glyph glyph-name="Y" unicode="Y" horiz-adv-x="570" 
d="M5 659h116l106 -195l54 -137h9l54 137l104 195h118l-230 -399v-260h-102v260z" />
    <glyph glyph-name="Z" unicode="Z" horiz-adv-x="561" 
d="M321 474l96 105l-130 -11h-228v91h453v-83l-284 -395l-98 -102l130 9h260v-88h-484v81z" />
    <glyph glyph-name="bracketleft" unicode="[" horiz-adv-x="385" 
d="M106 -191v951h243v-78h-154v-796h154v-77h-243z" />
    <glyph glyph-name="backslash" unicode="\" horiz-adv-x="455" 
d="M138 672l277 -672h-96l-279 672h98z" />
    <glyph glyph-name="bracketright" unicode="]" horiz-adv-x="385" 
d="M188 -113l1 794h-153v79h244l-1 -951h-243v78h152z" />
    <glyph glyph-name="asciicircum" unicode="^" horiz-adv-x="509" 
d="M305 659l154 -523h-99l-63 235l-48 216l-39 -216l-60 -235h-99l142 523h112z" />
    <glyph glyph-name="underscore" unicode="_" horiz-adv-x="611" 
d="M621 -92v-80h-631v80h631z" />
    <glyph glyph-name="grave" unicode="`" horiz-adv-x="269" 
d="M20 740h117l112 -173h-68l-161 161v12z" />
    <glyph glyph-name="a" unicode="a" horiz-adv-x="529" 
d="M295.5 23.5q-44.5 -32.5 -102.5 -32.5q-72 0 -111.5 37.5t-39.5 99.5q1 66 45.5 101t129.5 51q77 16 107 26t31 24v8q0 46 -24.5 69.5t-76.5 23.5q-44 0 -78 -21.5t-50 -54.5l-77 40q26 52 84 82.5t131 30.5q189 0 189 -179v-165q0 -136 28 -164h-101q-20 22 -23 108
q-17 -52 -61.5 -84.5zM355 280q-14 -23 -84 -40q-66 -16 -97 -39.5t-31 -62.5q0 -35 22 -54.5t55 -19.5q52 0 90 32.5t45 83.5v100z" />
    <glyph glyph-name="b" unicode="b" horiz-adv-x="590" 
d="M171 0h-89v734h96v-243l-4 -102h6q19 53 64 87t105 34q94 0 144 -65t50 -183q0 -84 -26 -145t-71.5 -92.5t-103.5 -31.5q-61 0 -106.5 36.5t-64.5 95.5v-125zM408 387q-31 47 -94 47q-42 0 -74 -26t-49 -66.5t-17 -81.5v-27q0 -73 36 -119t102 -46q58 0 92.5 51.5
t34.5 133.5q0 87 -31 134z" />
    <glyph glyph-name="c" unicode="c" horiz-adv-x="504" 
d="M72.5 384q28.5 59 82.5 92.5t127 33.5q75 0 122.5 -30t71.5 -95l-87 -38q-26 85 -105 85q-63 0 -99.5 -46t-36.5 -133q0 -90 34.5 -138t100.5 -48q42 0 71 19.5t42 55.5l78 -38q-23 -53 -72 -84t-122 -31t-126 32t-81.5 91t-28.5 138q0 75 28.5 134z" />
    <glyph glyph-name="d" unicode="d" horiz-adv-x="590" 
d="M100.5 443.5q55.5 66.5 147.5 66.5q63 0 105 -33.5t60 -86.5h5l-6 95v249h96v-734h-93l1 121l4 38q-9 -71 -57.5 -118.5t-119.5 -47.5q-91 0 -144.5 70.5t-53.5 189.5q0 124 55.5 190.5zM414 269q0 71 -34.5 118.5t-102.5 47.5q-61 0 -94.5 -47.5t-33.5 -129.5
q0 -88 32.5 -138.5t92.5 -50.5q41 0 73 25t49.5 65t17.5 83v27z" />
    <glyph glyph-name="e" unicode="e" horiz-adv-x="537" 
d="M108.5 439.5q62.5 70.5 170.5 70.5q110 0 162.5 -66.5t51.5 -178.5l-1 -37h-347q5 -82 42.5 -122t99.5 -40q42 0 74.5 18t48.5 48l67 -47q-68 -96 -196 -96q-112 0 -173.5 68t-61.5 189q0 123 62.5 193.5zM391 293v4q0 138 -115 138q-54 0 -88.5 -34.5t-39.5 -107.5h243z
" />
    <glyph glyph-name="f" unicode="f" horiz-adv-x="339" 
d="M112 497v88q0 80 39.5 122.5t117.5 42.5q39 0 83 -11v-76q-29 9 -65 9q-45 0 -63 -21.5t-18 -72.5v-40l-3 -41h116v-81h-116l3 -45v-371h-94v416h-80v81h80z" />
    <glyph glyph-name="g" unicode="g" horiz-adv-x="561" 
d="M162.5 134.5q-15.5 -11.5 -15.5 -25.5q0 -20 16.5 -32t58.5 -17q82 -8 125 -11q89 -10 130 -39t41 -89q0 -47 -30.5 -84t-89 -58t-138.5 -21h-8q-110 0 -164.5 33t-54.5 91q0 39 32 67.5t90 39.5q-40 8 -64.5 31.5t-24.5 56.5q0 66 94 88q-48 22 -74.5 64.5t-26.5 95.5
t24.5 94.5t71.5 65.5t111 24q59 0 103 -20t70 -56q17 70 90 70q11 0 20 -3v-94q-10 5 -25 5q-42 0 -63 -21q11 -30 11 -61q0 -83 -55.5 -133.5t-154.5 -50.5q-35 0 -57 5q-27 -4 -42.5 -15.5zM351 411q-28 31 -85 31q-55 0 -82.5 -32t-27.5 -83q0 -52 28 -82.5t84 -30.5
t83.5 31t27.5 83t-28 83zM139.5 -49.5q-18.5 -18.5 -17.5 -44.5q0 -35 37 -55.5t106 -20.5h11q80 0 116 23t36 60q0 27 -26.5 37.5t-86.5 16.5q-33 4 -121 9q-36 -7 -54.5 -25.5z" />
    <glyph glyph-name="h" unicode="h" horiz-adv-x="583" 
d="M175.5 396.5q-1.5 -23.5 -2.5 -33.5h6q18 64 64.5 104.5t112.5 40.5q73 0 111.5 -45.5t38.5 -134.5v-328h-101v303q0 63 -23.5 91t-68.5 28q-36 0 -66.5 -22t-49 -62.5t-19.5 -93.5v-244h-96v734h96v-298q-1 -16 -2.5 -39.5z" />
    <glyph glyph-name="i" unicode="i" horiz-adv-x="265" 
d="M77 689q0 8 8 8h96q6 0 6 -8v-99q0 -7 -6 -7h-97q-7 0 -7 7v99zM182 497v-497h-99v497h99z" />
    <glyph glyph-name="j" unicode="j" horiz-adv-x="268" 
d="M84 689q0 8 6 8h96q7 0 7 -8v-99q0 -7 -7 -7h-97q-5 0 -5 7v99zM-13 -126q16 -4 37 -4q37 0 51 18t14 66v543h97v-540q0 -63 -14 -99t-44.5 -52t-83.5 -16q-22 0 -57 7v77z" />
    <glyph glyph-name="k" unicode="k" horiz-adv-x="529" 
d="M178 734v-404l-5 -107l213 274h122l-165 -198l178 -299h-112l-136 239l-98 -113l2 -35v-91h-95v734h96z" />
    <glyph glyph-name="l" unicode="l" horiz-adv-x="264" 
d="M181 734v-734h-98v734h98z" />
    <glyph glyph-name="m" unicode="m" horiz-adv-x="882" 
d="M177.5 390.5q-1.5 -21.5 -2.5 -29.5h6q18 65 63.5 106t109.5 41t98 -40t40 -107h6q21 70 66 108.5t105 38.5q137 0 137 -183v-325h-100v302q0 62 -16.5 91t-59.5 29q-51 0 -89 -42.5t-44 -126.5v-253h-100v303q0 64 -20 91.5t-64 27.5q-35 0 -64.5 -20.5t-47.5 -59
t-19 -90.5v-252h-100v497h97v-68q0 -17 -1.5 -38.5z" />
    <glyph glyph-name="n" unicode="n" horiz-adv-x="584" 
d="M177.5 392q-1.5 -22 -2.5 -31h6q18 65 64.5 106t111.5 41q74 0 112.5 -46t38.5 -136v-326h-101v303q0 63 -23 91t-68 28q-36 0 -66 -20.5t-48.5 -59t-19.5 -90.5v-252h-100v497h97v-68q0 -15 -1.5 -37z" />
    <glyph glyph-name="o" unicode="o" horiz-adv-x="569" 
d="M72.5 382.5q29.5 59.5 85 93.5t131.5 34q113 0 175 -69.5t62 -187.5q0 -76 -30 -136t-85 -94t-129 -34q-115 0 -177 69.5t-62 190.5q0 74 29.5 133.5zM387.5 384.5q-35.5 49.5 -100.5 49.5q-67 0 -103.5 -49.5t-36.5 -133.5q0 -85 36 -135.5t101 -50.5q66 0 102.5 50.5
t36.5 135.5q0 84 -35.5 133.5z" />
    <glyph glyph-name="p" unicode="p" horiz-adv-x="589" 
d="M166 120l12 -122v-211h-96v710h95v-42l-3 -66h5q20 53 65 87t105 34q94 0 144 -65t50 -183q0 -84 -26 -145t-71.5 -92.5t-104.5 -31.5q-60 0 -104.5 35t-64.5 92h-6zM408 387.5q-31 46.5 -94 46.5q-42 0 -74 -26t-49 -66.5t-17 -81.5v-27q0 -73 36 -119t102 -46
q58 0 92.5 52t34.5 134q0 87 -31 133.5z" />
    <glyph glyph-name="q" unicode="q" horiz-adv-x="591" 
d="M100.5 443.5q55.5 66.5 147.5 66.5q63 0 105.5 -33.5t59.5 -85.5h6l-5 65v41h95v-710h-98v210l13 161h-6q-14 -72 -60 -118.5t-115 -46.5q-92 0 -145 70t-53 190q0 124 55.5 190.5zM414 269q0 72 -34.5 119t-102.5 47q-61 0 -94.5 -47.5t-33.5 -129.5q0 -88 32.5 -138.5
t92.5 -50.5q41 0 73 25t49.5 65t17.5 83v27z" />
    <glyph glyph-name="r" unicode="r" horiz-adv-x="380" 
d="M175 497v-67l-11 -155h7q10 93 53 161.5t121 68.5h15v-119q-9 1 -36 1q-68 0 -103.5 -49.5t-41.5 -137.5v-200h-99v497h95z" />
    <glyph glyph-name="s" unicode="s" horiz-adv-x="460" 
d="M99 142q24 -39 59 -58t76 -19q39 0 62.5 16.5t23.5 47.5q0 33 -30 51t-98 41q-66 23 -102.5 54.5t-36.5 89.5q0 63 51 103t132 40q120 0 178 -86l-66 -53q-14 26 -43 45.5t-70 19.5q-37 0 -60 -17t-23 -44q0 -23 15 -38.5t37 -25t67 -25.5q47 -17 77.5 -33.5t50.5 -45
t20 -72.5q0 -66 -51.5 -104t-136.5 -38q-64 0 -117 26t-81 75z" />
    <glyph glyph-name="t" unicode="t" horiz-adv-x="365" 
d="M111 497v124l89 41v-128l-4 -37h130v-81h-130l4 -38v-226q0 -33 5.5 -49t19.5 -22t42 -6q34 0 75 13v-75q-23 -9 -51.5 -15t-56.5 -6q-69 0 -98.5 32.5t-29.5 112.5v279h-81v81h86z" />
    <glyph glyph-name="u" unicode="u" horiz-adv-x="562" 
d="M74 497h101v-305q0 -63 19.5 -90t63.5 -27q50 0 84.5 44.5t37.5 113.5v264h101v-497h-94v58l3 77h-6q-4 -29 -23 -62t-53 -57t-79 -24q-79 0 -117 46t-38 138v321z" />
    <glyph glyph-name="v" unicode="v" horiz-adv-x="492" 
d="M120 497l96 -297l28 -112h5l29 112l95 297h110l-190 -497h-95l-188 497h110z" />
    <glyph glyph-name="w" unicode="w" horiz-adv-x="751" 
d="M124 497l64 -274l24 -134h4l33 135l80 273h103l73 -273l32 -136h4l26 136l68 273h100l-148 -497h-104l-82 296l-23 113h-4l-24 -113l-88 -296h-103l-140 497h105z" />
    <glyph glyph-name="x" unicode="x" horiz-adv-x="494" 
d="M249 198h-4l-25 -49l-96 -149h-114l150 215l33 39v3l-30 38l-135 202h112l89 -140l22 -46h3l24 49l84 137h111l-135 -197l-34 -41v-4l29 -34l149 -221h-113l-99 154z" />
    <glyph glyph-name="y" unicode="y" horiz-adv-x="483" 
d="M49 -117q28 -6 51 -6q42 0 64.5 23.5t39.5 85.5l-193 511h106l100 -303l27 -114h6l26 114l94 303h104l-192 -545q-27 -76 -66.5 -115t-108.5 -39q-15 0 -32 3.5t-26 7.5v74z" />
    <glyph glyph-name="z" unicode="z" horiz-adv-x="477" 
d="M254 346l79 71v3l-84 -7h-193v84h377v-76l-221 -277l-69 -66v-3l85 9h209v-84h-400v73z" />
    <glyph glyph-name="braceleft" unicode="{" horiz-adv-x="406" 
d="M142 145q0 52 -21 75t-78 23h-15v85h15q57 0 77.5 22.5t20.5 74.5v146q0 99 36.5 144t122.5 45h73v-79h-60q-45 0 -63 -25t-18 -92v-144q0 -50 -23 -80t-70 -42q-3 -3 -15 -5.5t-19 -3.5v-6q7 0 19 -3.5t15 -6.5q47 -12 70 -42t23 -80v-149q0 -47 8 -72.5t25 -36
t48 -10.5h60v-78h-73q-86 0 -122 44t-36 143v153z" />
    <glyph glyph-name="bar" unicode="|" horiz-adv-x="283" 
d="M187 744v-919h-91v919h91z" />
    <glyph glyph-name="braceright" unicode="}" horiz-adv-x="405" 
d="M33 -117h60q31 0 48 10.5t25 36t8 72.5v149q0 50 22.5 80t70.5 42q3 3 15 6t19 4v6q-7 1 -19 3.5t-15 5.5q-48 12 -70.5 42t-22.5 80v144q0 67 -18 92t-63 25h-60v79h73q86 0 122.5 -45.5t36.5 -143.5v-146q0 -52 20 -74.5t79 -22.5h14v-85h-14q-58 0 -78.5 -23
t-20.5 -75v-153q0 -98 -36.5 -142.5t-122.5 -44.5h-73v78z" />
    <glyph glyph-name="asciitilde" unicode="~" horiz-adv-x="567" 
d="M157.5 267.5q-13.5 -13.5 -15.5 -43.5l-4 -34h-76l3 52q8 64 41.5 95t95.5 31q33 0 55 -15t48 -43q22 -23 37.5 -34t35.5 -11q41 0 47 58l5 32h78l-5 -49q-8 -65 -40 -96.5t-95 -31.5q-33 0 -55.5 15t-48.5 43q-22 23 -37 34t-36 11q-20 0 -33.5 -13.5z" />
    <glyph glyph-name="uni00A0" unicode="&#xa0;" horiz-adv-x="325" 
 />
    <glyph glyph-name="exclamdown" unicode="&#xa1;" horiz-adv-x="277" 
d="M193 651v-132q0 -7 -7 -7h-95q-7 0 -7 7v132q0 8 5 8h97q7 0 7 -8zM160 427l38 -429v-64h-120v64l39 429h43z" />
    <glyph glyph-name="cent" unicode="&#xa2;" horiz-adv-x="533" 
d="M87 98q-33 62 -33 151q0 75 29 134t84 93t130 35l27 103h79l-30 -113q66 -18 107 -84l-82 -50q-15 31 -41 48t-61 17q-67 0 -103.5 -44.5t-36.5 -135.5q0 -84 36 -133t107 -49q40 0 63.5 16.5t38.5 48.5l79 -45q-33 -49 -75.5 -74.5t-110.5 -25.5q-22 0 -32 1l-24 -98
h-80l29 116q-67 27 -100 89z" />
    <glyph glyph-name="sterling" unicode="&#xa3;" horiz-adv-x="688" 
d="M169 361q-41 60 -41 129q0 83 59 132.5t163 49.5q176 0 258 -160l-86 -55q-56 129 -169 129q-59 0 -92.5 -29t-33.5 -79q0 -30 11 -60.5t30 -56.5h191v-67h-112l-46 7q38 -76 38 -139q0 -25 -4 -42q47 -25 77.5 -37.5t61.5 -12.5q34 0 50.5 22t16.5 70v39h96v-65
q0 -72 -41 -110t-110 -38q-47 0 -87.5 18t-91.5 51q-24 -33 -61.5 -51t-81.5 -18q-53 0 -85.5 27.5t-32.5 69.5q0 44 32.5 69.5t87.5 25.5q41 0 96 -23q-1 63 -50 137h-122v67h79zM162 124q-22 0 -36.5 -11t-14.5 -31t16 -30.5t39 -10.5q28 0 49.5 14t33.5 40q-49 29 -87 29
z" />
    <glyph glyph-name="currency" unicode="&#xa4;" horiz-adv-x="678" 
d="M131 311q0 71 30 120l-102 90l67 63l94 -93q52 32 124 32q68 0 117 -29l91 90l67 -63l-99 -86q32 -52 32 -124q0 -74 -32 -124l99 -87l-67 -64l-93 92q-49 -29 -118 -29q-70 0 -121 31l-94 -94l-67 64l102 90q-30 50 -30 121zM463 315q0 64 -32 99t-88 35t-89 -35
t-33 -99v-8q0 -61 32 -97t89 -36q58 0 89.5 35.5t31.5 97.5v8z" />
    <glyph glyph-name="yen" unicode="&#xa5;" horiz-adv-x="660" 
d="M243 381l-189 278h116l119 -201l39 -77h7l39 77l118 201h116l-190 -278h146v-65h-188v-127h188v-65h-188v-124h-93v124h-193v65h193v127h-193v65h153z" />
    <glyph glyph-name="brokenbar" unicode="&#xa6;" horiz-adv-x="283" 
d="M187 744v-397h-91v397h91zM187 222v-397h-91v397h91z" />
    <glyph glyph-name="section" unicode="&#xa7;" horiz-adv-x="639" 
d="M459 535q-73 56 -149 56q-42 0 -63.5 -18t-21.5 -41q0 -30 20 -49.5t46 -30t82 -29.5q98 -31 155.5 -72.5t57.5 -116.5q0 -60 -44.5 -98.5t-122.5 -52.5q41 -20 66.5 -50.5t25.5 -71.5q0 -40 -23.5 -72.5t-66.5 -51t-99 -18.5t-102 17.5t-89 49.5l46 69q68 -56 142 -56
q45 0 68 18t23 41q0 30 -20.5 49t-47.5 29.5t-86 29.5q-92 29 -146.5 72t-54.5 119q0 56 42 94t115 53q-38 21 -62.5 56.5t-24.5 79.5q0 60 49.5 94.5t133.5 34.5q106 0 196 -65zM452.5 154q36.5 30 36.5 71q0 42 -35.5 70.5t-105.5 49.5q-53 17 -85 26q-48 -8 -79.5 -36
t-31.5 -66q0 -46 31.5 -74t97.5 -50q41 -15 83 -28q52 7 88.5 37z" />
    <glyph glyph-name="dieresis" unicode="&#xa8;" horiz-adv-x="343" 
d="M20 690q0 8 8 8h75q7 0 7 -8v-99q0 -6 -7 -6h-77q-6 0 -6 6v99zM232 690q0 8 8 8h76q7 0 7 -8v-99q0 -6 -7 -6h-78q-6 0 -6 6v99z" />
    <glyph glyph-name="copyright" unicode="&#xa9;" horiz-adv-x="794" 
d="M90.5 508q43.5 79 122.5 122.5t183 43.5q103 0 182 -43.5t123 -123t44 -182.5t-43.5 -180.5t-123 -119.5t-182.5 -42q-104 0 -183 42t-122.5 119.5t-43.5 180.5q0 104 43.5 183zM654.5 482.5q-36.5 68.5 -103.5 106t-155 37.5q-89 0 -156 -37.5t-103 -105.5t-36 -158
q0 -89 36 -156t103 -103t156 -36t156 36t103 103t36 156t-36.5 157.5zM268 463q49 49 129 49q68 0 111.5 -34.5t52.5 -102.5h-65q-7 40 -31 58t-65 18q-51 0 -80.5 -30t-29.5 -89v-11q0 -60 29.5 -92t79.5 -32q41 0 66 19t32 64h66q-8 -76 -52.5 -110.5t-114.5 -34.5
q-79 0 -128 51t-49 139q0 89 49 138z" />
    <glyph glyph-name="ordfeminine" unicode="&#xaa;" horiz-adv-x="410" 
d="M79 476.5q31 22.5 90 33.5q90 19 94 28v12q0 55 -59 55q-29 0 -52.5 -14.5t-30.5 -35.5l-68 32q17 36 60.5 56.5t93.5 20.5q67 0 101 -30.5t34 -90.5v-120q0 -85 19 -101h-83q-4 2 -8.5 22t-5.5 45q-12 -34 -42.5 -54t-69.5 -20q-48 0 -76 26t-28 69q0 44 31 66.5z
M263 503q-6 -8 -17 -12.5t-33 -10.5q-42 -11 -61 -24.5t-19 -37.5q0 -21 13.5 -33.5t32.5 -12.5q32 0 56.5 17t25.5 47z" />
    <glyph glyph-name="guillemotleft" unicode="&#xab;" horiz-adv-x="640" 
d="M335 314l234 182v-102l-151 -108v-4l151 -109v-100l-234 180v61zM48 314l241 178v-102l-157 -104v-4l157 -106v-99l-241 176v61z" />
    <glyph glyph-name="logicalnot" unicode="&#xac;" horiz-adv-x="528" 
d="M59 262v86h392v-223h-92v137h-300z" />
    <glyph glyph-name="uni00AD" unicode="&#xad;" horiz-adv-x="348" 
 />
    <glyph glyph-name="registered" unicode="&#xae;" horiz-adv-x="802" 
d="M90.5 508q43.5 79 122.5 122.5t183 43.5q103 0 182 -43.5t123 -123t44 -182.5t-43.5 -180.5t-123 -119.5t-182.5 -42q-104 0 -183 42t-122.5 119.5t-43.5 180.5q0 104 43.5 183zM654.5 482.5q-36.5 68.5 -103.5 106t-155 37.5q-89 0 -156 -37.5t-103 -105.5t-36 -158
q0 -89 36 -156t103 -103t156 -36t156 36t103 103t36 156t-36.5 157.5zM452 277q-21 18 -80 18h-47v-149h-66v370h138q77 0 112.5 -25t35.5 -77q0 -75 -81 -93q41 -10 61 -36.5t20 -72.5q0 -18 8 -21l20 -11v-1q-3 -17 -14.5 -27.5t-31.5 -10.5q-54 0 -54 71q0 47 -21 65z
M390 341q51 0 70.5 16t19.5 46q0 26 -20 40.5t-71 14.5h-64v-117h65z" />
    <glyph glyph-name="macron" unicode="&#xaf;" horiz-adv-x="319" 
d="M299 664v-74h-279v74h279z" />
    <glyph glyph-name="degree" unicode="&#xb0;" horiz-adv-x="455" 
d="M95.5 645.5q51.5 50.5 135.5 50.5q81 0 131.5 -50t50.5 -132q0 -54 -23.5 -96t-66 -65.5t-96.5 -23.5q-82 0 -132.5 50t-50.5 134q0 82 51.5 132.5zM337 516q0 54 -29 84t-79 30q-49 0 -79.5 -31t-30.5 -83v-3q0 -56 28.5 -87t79.5 -31t80.5 31.5t29.5 86.5v3z" />
    <glyph glyph-name="plusminus" unicode="&#xb1;" horiz-adv-x="528" 
d="M220 354v168h91v-168h163v-86h-163v-140h-91v140h-166v86h166zM457 85v-85h-385v85h385z" />
    <glyph glyph-name="two.sups" unicode="&#xb2;" horiz-adv-x="418" 
d="M58.5 426.5q21.5 36.5 52.5 59t77 44.5q6 3 39.5 19.5t49.5 34.5t16 39q0 29 -22 45t-59 16t-67 -20.5t-45 -56.5l-69 31q22 53 70.5 82.5t113.5 29.5q79 0 122 -33t43 -92q0 -36 -17.5 -61t-42.5 -40t-67 -35q-53 -22 -82 -43t-38 -57l3 -5q38 6 83 6h160v-68h-342v15
q0 53 21.5 89.5z" />
    <glyph glyph-name="three.sups" unicode="&#xb3;" horiz-adv-x="433" 
d="M118 451q4 -70 100 -70q44 0 68 17.5t24 50.5v2q0 30 -26 43t-74 13h-29v58h28q42 0 68 16t26 45v1q-1 59 -88 59q-38 0 -63 -18t-30 -55h-80q6 66 52.5 101.5t123.5 35.5q81 0 125 -30.5t44 -86.5q0 -69 -90 -89q49 -9 74.5 -34.5t25.5 -67.5q0 -58 -49 -91.5
t-129 -33.5q-176 0 -184 134h83z" />
    <glyph glyph-name="acute" unicode="&#xb4;" horiz-adv-x="267" 
d="M247 740v-12l-160 -161h-67l112 173h115z" />
    <glyph glyph-name="uni00B5" unicode="&#xb5;" horiz-adv-x="579" 
d="M185 497v-300q0 -57 28 -89t72 -32q52 0 76.5 30.5t31.5 90.5v300h101v-497h-86l-8 91q-30 -101 -123 -101q-33 0 -65 19.5t-45 61.5l15 -236h-99v662h102z" />
    <glyph glyph-name="paragraph" unicode="&#xb6;" horiz-adv-x="713" 
d="M284 308q-121 0 -177 42.5t-56 132.5q0 92 62 134t199 42h281v-659h-89v592h-123v-592h-89v308h-8z" />
    <glyph glyph-name="periodcentered" unicode="&#xb7;" horiz-adv-x="267" 
d="M79 337q0 7 7 7h96q2 0 4 -2t2 -5v-133q0 -3 -2 -5t-4 -2h-98q-5 0 -5 7v133z" />
    <glyph glyph-name="cedilla" unicode="&#xb8;" horiz-adv-x="231" 
d="M20 -152q29 -12 56 -12t40.5 16t13.5 43q0 34 -19 60.5t-62 51.5l26 19q61 -19 98.5 -62t37.5 -97q0 -47 -31 -75.5t-86 -28.5q-48 0 -74 13v72z" />
    <glyph glyph-name="one.sups" unicode="&#xb9;" horiz-adv-x="329" 
d="M105.5 573.5q-36.5 -26.5 -78.5 -37.5v90q54 13 97 43t55 75h80v-422h-88v315q-29 -37 -65.5 -63.5z" />
    <glyph glyph-name="ordmasculine" unicode="&#xba;" horiz-adv-x="427" 
d="M90 621.5q47 49.5 127 49.5t124 -46.5t44 -127.5q0 -52 -21 -93.5t-61 -65t-93 -23.5q-80 0 -123.5 47.5t-43.5 130.5q0 79 47 128.5zM281 578q-22 34 -66 34q-45 0 -67 -33.5t-22 -83.5q0 -55 22 -88.5t64 -33.5q43 0 67 33.5t24 88.5q0 49 -22 83z" />
    <glyph glyph-name="guillemotright" unicode="&#xbb;" horiz-adv-x="640" 
d="M222 286v4l-151 108v102l235 -182v-61l-235 -179v99zM509 286v4l-156 104v102l239 -178v-61l-239 -176v100z" />
    <glyph glyph-name="onequarter" unicode="&#xbc;" horiz-adv-x="977" 
d="M105.5 491.5q-36.5 -26.5 -78.5 -38.5v89q55 13 97 43.5t55 75.5h81v-422h-90v315q-28 -36 -64.5 -62.5zM539 421h113l-177 -216l-42 -54l63 7h86l1 79l80 40v-119h69v-65h-69v-93h-82v93h-226v67q31 37 184 261zM1122 667l-440 -667h-82l440 667h82z" />
    <glyph glyph-name="onehalf" unicode="&#xbd;" horiz-adv-x="968" 
d="M105.5 491.5q-36.5 -26.5 -78.5 -38.5v89q55 13 97 43.5t55 75.5h81v-422h-90v315q-28 -36 -64.5 -62.5zM694 667l-440 -667h-82l440 667h82zM608 104.5q21 36.5 52.5 59t76.5 44.5q6 3 39.5 19.5t49.5 34t16 38.5q0 29 -22 45.5t-58 16.5q-38 0 -67.5 -21t-44.5 -56
l-70 31q22 53 71 82.5t114 29.5q79 0 121.5 -33t42.5 -93q0 -36 -17 -60.5t-42 -40t-67 -34.5q-54 -22 -83 -43t-37 -58l2 -4q32 5 85 5h159v-67h-342v15q0 53 21 89.5z" />
    <glyph glyph-name="threequarters" unicode="&#xbe;" horiz-adv-x="1081" 
d="M118 368q4 -70 100 -70q44 0 68 17.5t24 50.5v2q0 30 -26 43t-74 13h-29v58h28q42 0 68 16t26 45v2q-1 58 -88 58q-39 0 -63.5 -18t-29.5 -56h-80q6 67 52.5 102.5t123.5 35.5q81 0 125 -31t44 -87q0 -34 -23.5 -56.5t-70.5 -31.5q104 -17 104 -103q0 -58 -49 -91.5
t-129 -33.5q-176 0 -184 135h83zM798 667l-440 -667h-82l440 667h82zM863 421h113l-177 -216l-42 -54l63 7h86l1 79l80 40v-119h69v-65h-69v-93h-82v93h-226v67q31 37 184 261z" />
    <glyph glyph-name="questiondown" unicode="&#xbf;" horiz-adv-x="536" 
d="M330 651v-129q0 -7 -7 -7h-95q-2 0 -4 2t-2 5v129q0 4 2 6t4 2h96q6 0 6 -8zM315 412q0 -47 -14 -76.5t-42 -56.5q-8 -7 -29 -24q-31 -25 -47 -41.5t-26.5 -39t-10.5 -53.5q0 -45 29.5 -74.5t89.5 -29.5q59 0 95.5 37.5t53.5 88.5l90 -37q-29 -77 -90.5 -125t-154.5 -48
q-107 0 -162.5 50.5t-55.5 129.5q0 42 15 74t37 54t58 51l39 33q26 22 37 46t11 63h77v-22z" />
    <glyph glyph-name="Agrave" unicode="&#xc0;" horiz-adv-x="616" 
d="M376 659l230 -659h-106l-60 179h-265l-60 -179h-105l234 659h132zM414 262l-71 214l-31 120h-4l-34 -120l-72 -214h212zM120 905h114l110 -167h-66l-158 155v12z" />
    <glyph glyph-name="Aacute" unicode="&#xc1;" horiz-adv-x="616" 
d="M376 659l230 -659h-106l-60 179h-265l-60 -179h-105l234 659h132zM414 262l-71 214l-31 120h-4l-34 -120l-72 -214h212zM494 905v-12l-154 -155h-66l106 167h114z" />
    <glyph glyph-name="Acircumflex" unicode="&#xc2;" horiz-adv-x="616" 
d="M376 659l230 -659h-106l-60 179h-265l-60 -179h-105l234 659h132zM414 262l-71 214l-31 120h-4l-34 -120l-72 -214h212zM267 903h85l128 -155v-8h-90l-53 74l-24 41h-6l-24 -41l-53 -74h-90v8z" />
    <glyph glyph-name="Atilde" unicode="&#xc3;" horiz-adv-x="616" 
d="M376 659l230 -659h-106l-60 179h-265l-60 -179h-105l234 659h132zM414 262l-71 214l-31 120h-4l-34 -120l-72 -214h212zM234 835q-26 0 -34 -67l-2 -24h-66q1 7 2.5 21t2.5 21q7 57 36 83.5t72 26.5q38 0 59 -18.5t40 -50.5q12 -18 19.5 -26.5t17.5 -8.5h6q16 0 23 18
t11 48q1 4 2 12.5t1 12.5h66l-4 -42q-15 -109 -109 -109q-38 0 -59 18.5t-40 49.5q-12 18 -19.5 26.5t-17.5 8.5h-7z" />
    <glyph glyph-name="Adieresis" unicode="&#xc4;" horiz-adv-x="616" 
d="M376 659l230 -659h-106l-60 179h-265l-60 -179h-105l234 659h132zM414 262l-71 214l-31 120h-4l-34 -120l-72 -214h212zM162 846q0 8 8 8h76q7 0 7 -8v-99q0 -7 -7 -7h-78q-6 0 -6 7v99zM367 846q0 8 8 8h76q7 0 7 -8v-99q0 -7 -7 -7h-78q-6 0 -6 7v99z" />
    <glyph glyph-name="Aring" unicode="&#xc5;" horiz-adv-x="616" 
d="M376 659l230 -659h-106l-60 179h-265l-60 -179h-105l234 659h132zM414 262l-71 214l-31 120h-4l-34 -120l-72 -214h212zM214 939q37 34 96 34t96.5 -34t37.5 -88q0 -53 -37.5 -87t-96.5 -34t-96 34t-37 87q0 54 37 88zM364 903.5q-21 19.5 -54 19.5t-54 -19.5t-21 -52.5
t21 -52.5t54 -19.5t54 19.5t21 52.5t-21 52.5z" />
    <glyph glyph-name="AE" unicode="&#xc6;" horiz-adv-x="893" 
d="M843 659v-87h-321v-191h231v-85h-231v-210h328v-86h-427v187h-221l-95 -187h-114l341 659h509zM423 271v345h-14l-35 -82l-130 -263h179z" />
    <glyph glyph-name="Ccedilla" unicode="&#xc7;" horiz-adv-x="661" 
d="M252 -148q18 -9 51 -9q27 0 42 15t15 41q0 25 -14 49.5t-41 42.5q-121 16 -188 106.5t-67 232.5q0 102 37.5 179.5t106.5 120t161 42.5q107 0 174.5 -53t92.5 -156l-101 -20q-20 77 -60 111.5t-107 34.5q-92 0 -146 -69.5t-54 -187.5v-3q0 -119 52.5 -188.5t147.5 -69.5
q73 0 113.5 39t56.5 113l100 -19q-20 -100 -85.5 -155t-166.5 -60q31 -23 48 -53t17 -64q0 -47 -30 -75.5t-87 -28.5q-43 0 -68 13v71z" />
    <glyph glyph-name="Egrave" unicode="&#xc8;" horiz-adv-x="580" 
d="M527 659v-88h-333v-188h236v-86h-236v-210h346v-87h-446v659h433zM137 905h114l110 -167h-66l-158 155v12z" />
    <glyph glyph-name="Eacute" unicode="&#xc9;" horiz-adv-x="580" 
d="M527 659v-88h-333v-188h236v-86h-236v-210h346v-87h-446v659h433zM511 905v-12l-154 -155h-66l106 167h114z" />
    <glyph glyph-name="Ecircumflex" unicode="&#xca;" horiz-adv-x="580" 
d="M527 659v-88h-333v-188h236v-86h-236v-210h346v-87h-446v659h433zM284 903h85l128 -155v-8h-90l-53 74l-24 41h-6l-24 -41l-53 -74h-90v8z" />
    <glyph glyph-name="Edieresis" unicode="&#xcb;" horiz-adv-x="580" 
d="M527 659v-88h-333v-188h236v-86h-236v-210h346v-87h-446v659h433zM179 846q0 8 8 8h76q7 0 7 -8v-99q0 -7 -7 -7h-78q-6 0 -6 7v99zM384 846q0 8 8 8h76q7 0 7 -8v-99q0 -7 -7 -7h-78q-6 0 -6 7v99z" />
    <glyph glyph-name="Igrave" unicode="&#xcc;" horiz-adv-x="294" 
d="M198 659v-659h-102v659h102zM-44 905h114l110 -167h-66l-158 155v12z" />
    <glyph glyph-name="Iacute" unicode="&#xcd;" horiz-adv-x="294" 
d="M198 659v-659h-102v659h102zM330 905v-12l-154 -155h-66l106 167h114z" />
    <glyph glyph-name="Icircumflex" unicode="&#xce;" horiz-adv-x="293" 
d="M103 903h85l128 -155v-8h-91l-52 74l-25 41h-5l-24 -41l-53 -74h-90v8zM198 659v-659h-102v659h102z" />
    <glyph glyph-name="Idieresis" unicode="&#xcf;" horiz-adv-x="293" 
d="M0 846q0 8 8 8h74q7 0 7 -8v-99q0 -7 -7 -7h-76q-6 0 -6 7v99zM203 846q0 8 7 8h76q2 0 4 -2t2 -6v-99q0 -3 -2 -5t-4 -2h-78q-5 0 -5 7v99zM198 659v-659h-102v659h102z" />
    <glyph glyph-name="Eth" unicode="&#xd0;" horiz-adv-x="680" 
d="M99 381v278h215q153 0 234 -84.5t81 -244.5q0 -157 -85.5 -243.5t-242.5 -86.5h-202v294h-71v87h71zM469 148q53 62 53 181v4q0 242 -211 242h-112v-194h160v-87h-160v-208h109q108 0 161 62z" />
    <glyph glyph-name="Ntilde" unicode="&#xd1;" horiz-adv-x="713" 
d="M211 659l242 -388l82 -159l-14 162v385h98v-659h-96l-269 423l-80 152l16 -155v-420h-96v659h117zM282 835q-26 0 -34 -67l-2 -24h-66q1 7 2.5 21t2.5 21q7 57 36 83.5t72 26.5q38 0 59 -18.5t40 -50.5q12 -18 19.5 -26.5t17.5 -8.5h6q16 0 23 18t11 48q1 4 2 12.5
t1 12.5h66l-4 -42q-15 -109 -109 -109q-38 0 -59 18.5t-40 49.5q-12 18 -19.5 26.5t-17.5 8.5h-7z" />
    <glyph glyph-name="Ograve" unicode="&#xd2;" horiz-adv-x="713" 
d="M87.5 510q36.5 77 106 119.5t166.5 42.5q94 0 162 -42.5t104 -120t36 -180.5q0 -104 -37 -181t-107.5 -118.5t-166.5 -41.5q-94 0 -161.5 41.5t-103 118t-35.5 181.5q0 104 36.5 181zM556 331q0 122 -52.5 190t-147.5 68q-96 0 -149 -68t-53 -190v-3q0 -121 53 -189.5
t148 -68.5q96 0 148.5 67.5t52.5 191.5v2zM166 905h114l110 -167h-66l-158 155v12z" />
    <glyph glyph-name="Oacute" unicode="&#xd3;" horiz-adv-x="713" 
d="M87.5 510q36.5 77 106 119.5t166.5 42.5q94 0 162 -42.5t104 -120t36 -180.5q0 -104 -37 -181t-107.5 -118.5t-166.5 -41.5q-94 0 -161.5 41.5t-103 118t-35.5 181.5q0 104 36.5 181zM556 331q0 122 -52.5 190t-147.5 68q-96 0 -149 -68t-53 -190v-3q0 -121 53 -189.5
t148 -68.5q96 0 148.5 67.5t52.5 191.5v2zM540 905v-12l-154 -155h-66l106 167h114z" />
    <glyph glyph-name="Ocircumflex" unicode="&#xd4;" horiz-adv-x="713" 
d="M87.5 510q36.5 77 106 119.5t166.5 42.5q94 0 162 -42.5t104 -120t36 -180.5q0 -104 -37 -181t-107.5 -118.5t-166.5 -41.5q-94 0 -161.5 41.5t-103 118t-35.5 181.5q0 104 36.5 181zM556 331q0 122 -52.5 190t-147.5 68q-96 0 -149 -68t-53 -190v-3q0 -121 53 -189.5
t148 -68.5q96 0 148.5 67.5t52.5 191.5v2zM313 903h85l128 -155v-8h-90l-53 74l-24 41h-6l-24 -41l-53 -74h-90v8z" />
    <glyph glyph-name="Otilde" unicode="&#xd5;" horiz-adv-x="713" 
d="M87.5 510q36.5 77 106 119.5t166.5 42.5q94 0 162 -42.5t104 -120t36 -180.5q0 -104 -37 -181t-107.5 -118.5t-166.5 -41.5q-94 0 -161.5 41.5t-103 118t-35.5 181.5q0 104 36.5 181zM556 331q0 122 -52.5 190t-147.5 68q-96 0 -149 -68t-53 -190v-3q0 -121 53 -189.5
t148 -68.5q96 0 148.5 67.5t52.5 191.5v2zM280 835q-26 0 -34 -67l-2 -24h-66q1 7 2.5 21t2.5 21q7 57 36 83.5t72 26.5q38 0 59 -18.5t40 -50.5q12 -18 19.5 -26.5t17.5 -8.5h6q16 0 23 18t11 48q1 4 2 12.5t1 12.5h66l-4 -42q-15 -109 -109 -109q-38 0 -59 18.5t-40 49.5
q-12 18 -19.5 26.5t-17.5 8.5h-7z" />
    <glyph glyph-name="Odieresis" unicode="&#xd6;" horiz-adv-x="713" 
d="M87.5 510q36.5 77 106 119.5t166.5 42.5q94 0 162 -42.5t104 -120t36 -180.5q0 -104 -37 -181t-107.5 -118.5t-166.5 -41.5q-94 0 -161.5 41.5t-103 118t-35.5 181.5q0 104 36.5 181zM556 331q0 122 -52.5 190t-147.5 68q-96 0 -149 -68t-53 -190v-3q0 -121 53 -189.5
t148 -68.5q96 0 148.5 67.5t52.5 191.5v2zM208 846q0 8 8 8h76q7 0 7 -8v-99q0 -7 -7 -7h-78q-6 0 -6 7v99zM413 846q0 8 8 8h76q7 0 7 -8v-99q0 -7 -7 -7h-78q-6 0 -6 7v99z" />
    <glyph glyph-name="multiply" unicode="&#xd7;" horiz-adv-x="513" 
d="M198 293l-138 139l57 58l139 -141l138 142l60 -60l-138 -141l138 -139l-60 -58l-137 139l-138 -139l-61 61z" />
    <glyph glyph-name="Oslash" unicode="&#xd8;" horiz-adv-x="732" 
d="M118 -6h-89l95 105q-63 89 -63 230q0 104 36.5 181t105.5 119.5t166 42.5q117 0 195 -67l53 60h89l-98 -108q64 -91 64 -228q0 -104 -36.5 -181t-106 -118.5t-166.5 -41.5q-119 0 -195 64zM504 532q-51 57 -138 57q-95 0 -148.5 -68t-53.5 -190v-3q0 -96 33 -159z
M566 331q0 91 -31 155l-308 -360q53 -56 138 -56q97 0 149 67.5t52 191.5v2z" />
    <glyph glyph-name="Ugrave" unicode="&#xd9;" horiz-adv-x="672" 
d="M81 659h102v-389q0 -100 37.5 -147t115.5 -47q79 0 117 46.5t38 147.5v389h101v-392q0 -141 -67 -210.5t-187 -69.5q-257 0 -257 280v392zM146 905h114l110 -167h-66l-158 155v12z" />
    <glyph glyph-name="Uacute" unicode="&#xda;" horiz-adv-x="672" 
d="M81 659h102v-389q0 -100 37.5 -147t115.5 -47q79 0 117 46.5t38 147.5v389h101v-392q0 -141 -67 -210.5t-187 -69.5q-257 0 -257 280v392zM520 905v-12l-154 -155h-66l106 167h114z" />
    <glyph glyph-name="Ucircumflex" unicode="&#xdb;" horiz-adv-x="672" 
d="M81 659h102v-389q0 -100 37.5 -147t115.5 -47q79 0 117 46.5t38 147.5v389h101v-392q0 -141 -67 -210.5t-187 -69.5q-257 0 -257 280v392zM293 903h85l128 -155v-8h-90l-53 74l-24 41h-6l-24 -41l-53 -74h-90v8z" />
    <glyph glyph-name="Udieresis" unicode="&#xdc;" horiz-adv-x="672" 
d="M81 659h102v-389q0 -100 37.5 -147t115.5 -47q79 0 117 46.5t38 147.5v389h101v-392q0 -141 -67 -210.5t-187 -69.5q-257 0 -257 280v392zM188 846q0 8 8 8h76q7 0 7 -8v-99q0 -7 -7 -7h-78q-6 0 -6 7v99zM393 846q0 8 8 8h76q7 0 7 -8v-99q0 -7 -7 -7h-78q-6 0 -6 7v99z
" />
    <glyph glyph-name="Yacute" unicode="&#xdd;" horiz-adv-x="570" 
d="M5 659h116l106 -195l54 -137h9l54 137l104 195h118l-230 -399v-260h-102v260zM469 905v-12l-154 -155h-66l106 167h114z" />
    <glyph glyph-name="Thorn" unicode="&#xde;" horiz-adv-x="597" 
d="M194 659v-106h109q122 0 185 -56t63 -158q0 -67 -31 -117.5t-90 -78.5t-140 -28h-95v-115h-101v659h100zM291 196q76 0 115.5 35.5t39.5 97.5q0 74 -38.5 109.5t-119.5 35.5h-93v-278h96z" />
    <glyph glyph-name="germandbls" unicode="&#xdf;" horiz-adv-x="583" 
d="M254 73q22 -6 53 -6q65 0 99.5 40.5t34.5 113.5q0 71 -36.5 110.5t-111.5 39.5h-38v66h23q58 0 95 37t37 96q0 43 -22 69t-70 26q-66 0 -104.5 -52.5t-38.5 -153.5v-459h-97v448q0 142 65.5 218t185.5 76q81 0 129 -39.5t48 -111.5q0 -56 -39.5 -100t-107.5 -62
q91 -6 138.5 -63t47.5 -141q0 -66 -26 -118.5t-78 -82.5t-125 -30q-32 0 -62 7v72z" />
    <glyph glyph-name="agrave" unicode="&#xe0;" horiz-adv-x="529" 
d="M295.5 23.5q-44.5 -32.5 -102.5 -32.5q-72 0 -111.5 37.5t-39.5 99.5q1 66 45.5 101t129.5 51q77 16 107 26t31 24v8q0 46 -24.5 69.5t-76.5 23.5q-44 0 -78 -21.5t-50 -54.5l-77 40q26 52 84 82.5t131 30.5q189 0 189 -179v-165q0 -136 28 -164h-101q-20 22 -23 108
q-17 -52 -61.5 -84.5zM355 280q-14 -23 -84 -40q-66 -16 -97 -39.5t-31 -62.5q0 -35 22 -54.5t55 -19.5q52 0 90 32.5t45 83.5v100zM85 760h111l104 -177h-65l-150 164v13z" />
    <glyph glyph-name="aacute" unicode="&#xe1;" horiz-adv-x="529" 
d="M295.5 23.5q-44.5 -32.5 -102.5 -32.5q-72 0 -111.5 37.5t-39.5 99.5q1 66 45.5 101t129.5 51q77 16 107 26t31 24v8q0 46 -24.5 69.5t-76.5 23.5q-44 0 -78 -21.5t-50 -54.5l-77 40q26 52 84 82.5t131 30.5q189 0 189 -179v-165q0 -136 28 -164h-101q-20 22 -23 108
q-17 -52 -61.5 -84.5zM355 280q-14 -23 -84 -40q-66 -16 -97 -39.5t-31 -62.5q0 -35 22 -54.5t55 -19.5q52 0 90 32.5t45 83.5v100zM447 760v-13l-150 -164h-65l104 177h111z" />
    <glyph glyph-name="acircumflex" unicode="&#xe2;" horiz-adv-x="529" 
d="M295.5 23.5q-44.5 -32.5 -102.5 -32.5q-72 0 -111.5 37.5t-39.5 99.5q1 66 45.5 101t129.5 51q77 16 107 26t31 24v8q0 46 -24.5 69.5t-76.5 23.5q-44 0 -78 -21.5t-50 -54.5l-77 40q26 52 84 82.5t131 30.5q189 0 189 -179v-165q0 -136 28 -164h-101q-20 22 -23 108
q-17 -52 -61.5 -84.5zM355 280q-14 -23 -84 -40q-66 -16 -97 -39.5t-31 -62.5q0 -35 22 -54.5t55 -19.5q52 0 90 32.5t45 83.5v100zM224 760h83l128 -169v-8h-90l-53 86l-24 43h-5l-25 -43l-53 -86h-88v8z" />
    <glyph glyph-name="atilde" unicode="&#xe3;" horiz-adv-x="529" 
d="M295.5 23.5q-44.5 -32.5 -102.5 -32.5q-72 0 -111.5 37.5t-39.5 99.5q1 66 45.5 101t129.5 51q77 16 107 26t31 24v8q0 46 -24.5 69.5t-76.5 23.5q-44 0 -78 -21.5t-50 -54.5l-77 40q26 52 84 82.5t131 30.5q189 0 189 -179v-165q0 -136 28 -164h-101q-20 22 -23 108
q-17 -52 -61.5 -84.5zM355 280q-14 -23 -84 -40q-66 -16 -97 -39.5t-31 -62.5q0 -35 22 -54.5t55 -19.5q52 0 90 32.5t45 83.5v100zM190 681q-26 0 -34 -67l-2 -23h-66l5 40q7 58 35.5 84.5t72.5 26.5q37 0 58 -18.5t40 -50.5q12 -18 19.5 -26.5t16.5 -8.5h7q26 0 34 66
l2 25h66l-5 -42q-7 -57 -36 -83t-69 -26t-61 18.5t-40 50.5q-12 18 -19 26t-17 8h-7z" />
    <glyph glyph-name="adieresis" unicode="&#xe4;" horiz-adv-x="529" 
d="M295.5 23.5q-44.5 -32.5 -102.5 -32.5q-72 0 -111.5 37.5t-39.5 99.5q1 66 45.5 101t129.5 51q77 16 107 26t31 24v8q0 46 -24.5 69.5t-76.5 23.5q-44 0 -78 -21.5t-50 -54.5l-77 40q26 52 84 82.5t131 30.5q189 0 189 -179v-165q0 -136 28 -164h-101q-20 22 -23 108
q-17 -52 -61.5 -84.5zM355 280q-14 -23 -84 -40q-66 -16 -97 -39.5t-31 -62.5q0 -35 22 -54.5t55 -19.5q52 0 90 32.5t45 83.5v100zM118 689q0 8 8 8h76q7 0 7 -8v-99q0 -7 -7 -7h-78q-6 0 -6 7v99zM323 689q0 8 8 8h76q7 0 7 -8v-99q0 -7 -7 -7h-78q-6 0 -6 7v99z" />
    <glyph glyph-name="aring" unicode="&#xe5;" horiz-adv-x="529" 
d="M295.5 23.5q-44.5 -32.5 -102.5 -32.5q-72 0 -111.5 37.5t-39.5 99.5q1 66 45.5 101t129.5 51q77 16 107 26t31 24v8q0 46 -24.5 69.5t-76.5 23.5q-44 0 -78 -21.5t-50 -54.5l-77 40q26 52 84 82.5t131 30.5q189 0 189 -179v-165q0 -136 28 -164h-101q-20 22 -23 108
q-17 -52 -61.5 -84.5zM355 280q-14 -23 -84 -40q-66 -16 -97 -39.5t-31 -62.5q0 -35 22 -54.5t55 -19.5q52 0 90 32.5t45 83.5v100zM170 785q37 34 96 34t96.5 -34t37.5 -88q0 -53 -37.5 -86.5t-96.5 -33.5t-96 33.5t-37 86.5q0 54 37 88zM320 749q-21 20 -54 20t-54 -20
t-21 -52q0 -33 21 -52.5t54 -19.5t54 19.5t21 52.5q0 32 -21 52z" />
    <glyph glyph-name="ae" unicode="&#xe6;" horiz-adv-x="842" 
d="M87 228.5q44 34.5 130 51.5q79 17 108 26.5t30 23.5v8q0 46 -24.5 69.5t-76.5 23.5q-43 0 -77 -21t-51 -55l-77 40q26 52 84.5 82.5t131.5 30.5q116 0 154 -74q29 37 70.5 56.5t93.5 19.5q111 0 163.5 -67t52.5 -178q0 -27 -2 -37h-345q4 -82 42.5 -122t104.5 -40
q41 0 70 20t44 48l69 -49q-63 -96 -192 -96q-80 0 -133 37.5t-75 106.5q-21 -72 -73 -107t-116 -35q-72 0 -111.5 37.5t-39.5 99.5q1 66 45 100.5zM697 293q-1 71 -27 106.5t-89 35.5q-55 0 -88.5 -35t-37.5 -107h242zM355 282q-18 -28 -84 -42q-66 -16 -97 -39.5t-31 -62.5
q0 -35 22 -54.5t56 -19.5q51 0 88 31.5t46 81.5v105z" />
    <glyph glyph-name="ccedilla" unicode="&#xe7;" horiz-adv-x="504" 
d="M182 -148q20 -9 51 -9q28 0 42.5 15t14.5 41q0 25 -14.5 50.5t-43.5 43.5q-89 16 -138 84t-49 173q0 75 28.5 134t82.5 92.5t128 33.5t121 -29.5t73 -95.5l-88 -36q-11 38 -37 61.5t-69 23.5q-63 0 -99.5 -47.5t-36.5 -134.5q0 -89 35.5 -137t101.5 -48q42 0 70 20t41 56
l80 -39q-22 -49 -66.5 -79.5t-109.5 -34.5q32 -23 50 -53.5t18 -64.5q0 -47 -30 -75.5t-87 -28.5q-44 0 -69 13v71z" />
    <glyph glyph-name="egrave" unicode="&#xe8;" horiz-adv-x="537" 
d="M108.5 439.5q62.5 70.5 170.5 70.5q110 0 162.5 -66.5t51.5 -178.5l-1 -37h-347q5 -82 42.5 -122t99.5 -40q42 0 74.5 18t48.5 48l67 -47q-68 -96 -196 -96q-112 0 -173.5 68t-61.5 189q0 123 62.5 193.5zM391 293v4q0 138 -115 138q-54 0 -88.5 -34.5t-39.5 -107.5h243z
M100 760h111l104 -177h-65l-150 164v13z" />
    <glyph glyph-name="eacute" unicode="&#xe9;" horiz-adv-x="537" 
d="M108.5 439.5q62.5 70.5 170.5 70.5q110 0 162.5 -66.5t51.5 -178.5l-1 -37h-347q5 -82 42.5 -122t99.5 -40q42 0 74.5 18t48.5 48l67 -47q-68 -96 -196 -96q-112 0 -173.5 68t-61.5 189q0 123 62.5 193.5zM391 293v4q0 138 -115 138q-54 0 -88.5 -34.5t-39.5 -107.5h243z
M462 760v-13l-150 -164h-65l104 177h111z" />
    <glyph glyph-name="ecircumflex" unicode="&#xea;" horiz-adv-x="537" 
d="M108.5 439.5q62.5 70.5 170.5 70.5q110 0 162.5 -66.5t51.5 -178.5l-1 -37h-347q5 -82 42.5 -122t99.5 -40q42 0 74.5 18t48.5 48l67 -47q-68 -96 -196 -96q-112 0 -173.5 68t-61.5 189q0 123 62.5 193.5zM391 293v4q0 138 -115 138q-54 0 -88.5 -34.5t-39.5 -107.5h243z
M239 760h83l128 -169v-8h-90l-53 86l-24 43h-5l-25 -43l-53 -86h-88v8z" />
    <glyph glyph-name="edieresis" unicode="&#xeb;" horiz-adv-x="537" 
d="M108.5 439.5q62.5 70.5 170.5 70.5q110 0 162.5 -66.5t51.5 -178.5l-1 -37h-347q5 -82 42.5 -122t99.5 -40q42 0 74.5 18t48.5 48l67 -47q-68 -96 -196 -96q-112 0 -173.5 68t-61.5 189q0 123 62.5 193.5zM391 293v4q0 138 -115 138q-54 0 -88.5 -34.5t-39.5 -107.5h243z
M133 689q0 8 8 8h76q7 0 7 -8v-99q0 -7 -7 -7h-78q-6 0 -6 7v99zM338 689q0 8 8 8h76q7 0 7 -8v-99q0 -7 -7 -7h-78q-6 0 -6 7v99z" />
    <glyph glyph-name="igrave" unicode="&#xec;" horiz-adv-x="262" 
d="M-48 760h112l101 -177h-65l-148 164v13zM180 497v-497h-98v497h98z" />
    <glyph glyph-name="iacute" unicode="&#xed;" horiz-adv-x="262" 
d="M311 760v-13l-149 -164h-65l103 177h111zM180 497v-497h-98v497h98z" />
    <glyph glyph-name="icircumflex" unicode="&#xee;" horiz-adv-x="262" 
d="M89 760h84l127 -169v-8h-90l-52 86l-25 43h-5l-25 -43l-53 -86h-88v8zM180 497v-497h-98v497h98z" />
    <glyph glyph-name="idieresis" unicode="&#xef;" horiz-adv-x="262" 
d="M-12 689q0 8 7 8h76q7 0 7 -8v-99q0 -7 -7 -7h-78q-5 0 -5 7v99zM185 689q0 8 7 8h76q7 0 7 -8v-99q0 -7 -7 -7h-77q-6 0 -6 7v99zM180 497v-497h-98v497h98z" />
    <glyph glyph-name="eth" unicode="&#xf0;" horiz-adv-x="573" 
d="M224 665q-49 27 -99 41l44 62q47 -14 101 -42l51 69l54 -37l-48 -65q96 -65 144 -157t48 -236q0 -141 -59.5 -226t-175.5 -85q-71 0 -124 30.5t-82 87t-29 131.5q0 70 25 127t74.5 90t119.5 33q51 0 89.5 -18.5t61.5 -53.5q-9 44 -34 96q-17 33 -39.5 60t-64.5 58
l-55 -74l-55 36zM417 370q-17 23 -53 38t-77 15q-63 0 -98.5 -47.5t-35.5 -133.5q0 -82 36.5 -129t98.5 -47q64 0 96.5 57.5t32.5 146.5v100z" />
    <glyph glyph-name="ntilde" unicode="&#xf1;" horiz-adv-x="584" 
d="M177.5 392q-1.5 -22 -2.5 -31h6q18 65 64.5 106t111.5 41q74 0 112.5 -46t38.5 -136v-326h-101v303q0 63 -23 91t-68 28q-36 0 -66 -20.5t-48.5 -59t-19.5 -90.5v-252h-100v497h97v-68q0 -15 -1.5 -37zM231 681q-26 0 -34 -67l-2 -23h-66l5 40q7 58 35.5 84.5t72.5 26.5
q37 0 58 -18.5t40 -50.5q12 -18 19.5 -26.5t16.5 -8.5h7q26 0 34 66l2 25h66l-5 -42q-7 -57 -36 -83t-69 -26t-61 18.5t-40 50.5q-12 18 -19 26t-17 8h-7z" />
    <glyph glyph-name="ograve" unicode="&#xf2;" horiz-adv-x="569" 
d="M72.5 382.5q29.5 59.5 85 93.5t131.5 34q113 0 175 -69.5t62 -187.5q0 -76 -30 -136t-85 -94t-129 -34q-115 0 -177 69.5t-62 190.5q0 74 29.5 133.5zM387.5 384.5q-35.5 49.5 -100.5 49.5q-67 0 -103.5 -49.5t-36.5 -133.5q0 -85 36 -135.5t101 -50.5q66 0 102.5 50.5
t36.5 135.5q0 84 -35.5 133.5zM106 760h111l104 -177h-65l-150 164v13z" />
    <glyph glyph-name="oacute" unicode="&#xf3;" horiz-adv-x="569" 
d="M72.5 382.5q29.5 59.5 85 93.5t131.5 34q113 0 175 -69.5t62 -187.5q0 -76 -30 -136t-85 -94t-129 -34q-115 0 -177 69.5t-62 190.5q0 74 29.5 133.5zM387.5 384.5q-35.5 49.5 -100.5 49.5q-67 0 -103.5 -49.5t-36.5 -133.5q0 -85 36 -135.5t101 -50.5q66 0 102.5 50.5
t36.5 135.5q0 84 -35.5 133.5zM468 760v-13l-150 -164h-65l104 177h111z" />
    <glyph glyph-name="ocircumflex" unicode="&#xf4;" horiz-adv-x="569" 
d="M72.5 382.5q29.5 59.5 85 93.5t131.5 34q113 0 175 -69.5t62 -187.5q0 -76 -30 -136t-85 -94t-129 -34q-115 0 -177 69.5t-62 190.5q0 74 29.5 133.5zM387.5 384.5q-35.5 49.5 -100.5 49.5q-67 0 -103.5 -49.5t-36.5 -133.5q0 -85 36 -135.5t101 -50.5q66 0 102.5 50.5
t36.5 135.5q0 84 -35.5 133.5zM245 760h83l128 -169v-8h-90l-53 86l-24 43h-5l-25 -43l-53 -86h-88v8z" />
    <glyph glyph-name="otilde" unicode="&#xf5;" horiz-adv-x="569" 
d="M72.5 382.5q29.5 59.5 85 93.5t131.5 34q113 0 175 -69.5t62 -187.5q0 -76 -30 -136t-85 -94t-129 -34q-115 0 -177 69.5t-62 190.5q0 74 29.5 133.5zM387.5 384.5q-35.5 49.5 -100.5 49.5q-67 0 -103.5 -49.5t-36.5 -133.5q0 -85 36 -135.5t101 -50.5q66 0 102.5 50.5
t36.5 135.5q0 84 -35.5 133.5zM211 681q-26 0 -34 -67l-2 -23h-66l5 40q7 58 35.5 84.5t72.5 26.5q37 0 58 -18.5t40 -50.5q12 -18 19.5 -26.5t16.5 -8.5h7q26 0 34 66l2 25h66l-5 -42q-7 -57 -36 -83t-69 -26t-61 18.5t-40 50.5q-12 18 -19 26t-17 8h-7z" />
    <glyph glyph-name="odieresis" unicode="&#xf6;" horiz-adv-x="569" 
d="M72.5 382.5q29.5 59.5 85 93.5t131.5 34q113 0 175 -69.5t62 -187.5q0 -76 -30 -136t-85 -94t-129 -34q-115 0 -177 69.5t-62 190.5q0 74 29.5 133.5zM387.5 384.5q-35.5 49.5 -100.5 49.5q-67 0 -103.5 -49.5t-36.5 -133.5q0 -85 36 -135.5t101 -50.5q66 0 102.5 50.5
t36.5 135.5q0 84 -35.5 133.5zM139 689q0 8 8 8h76q7 0 7 -8v-99q0 -7 -7 -7h-78q-6 0 -6 7v99zM344 689q0 8 8 8h76q7 0 7 -8v-99q0 -7 -7 -7h-78q-6 0 -6 7v99z" />
    <glyph glyph-name="divide" unicode="&#xf7;" horiz-adv-x="529" 
d="M221 525q0 7 7 7h90q7 0 7 -7v-107q0 -7 -7 -7h-92q-5 0 -5 7v107zM477 348v-86h-425v86h425zM221 193q0 6 7 6h90q7 0 7 -6v-108q0 -7 -7 -7h-92q-5 0 -5 7v108z" />
    <glyph glyph-name="oslash" unicode="&#xf8;" horiz-adv-x="586" 
d="M81 -34l-48 38l64 73q-47 67 -47 173q0 74 29.5 133t85 93t131.5 34q90 0 149 -45l62 70l47 -41l-65 -75q45 -67 45 -166q0 -75 -30 -135.5t-85.5 -94.5t-128.5 -34q-92 0 -150 44zM391 401q-32 33 -96 33q-67 0 -104 -49.5t-37 -132.5q0 -70 15 -112zM416 355l-220 -259
q31 -31 95 -31q66 0 102 50.5t36 135.5q0 65 -13 104z" />
    <glyph glyph-name="ugrave" unicode="&#xf9;" horiz-adv-x="562" 
d="M74 497h101v-305q0 -63 19.5 -90t63.5 -27q50 0 84.5 44.5t37.5 113.5v264h101v-497h-94v58l3 77h-6q-4 -29 -23 -62t-53 -57t-79 -24q-79 0 -117 46t-38 138v321zM98 760h111l104 -177h-65l-150 164v13z" />
    <glyph glyph-name="uacute" unicode="&#xfa;" horiz-adv-x="562" 
d="M74 497h101v-305q0 -63 19.5 -90t63.5 -27q50 0 84.5 44.5t37.5 113.5v264h101v-497h-94v58l3 77h-6q-4 -29 -23 -62t-53 -57t-79 -24q-79 0 -117 46t-38 138v321zM460 760v-13l-150 -164h-65l104 177h111z" />
    <glyph glyph-name="ucircumflex" unicode="&#xfb;" horiz-adv-x="562" 
d="M74 497h101v-305q0 -63 19.5 -90t63.5 -27q50 0 84.5 44.5t37.5 113.5v264h101v-497h-94v58l3 77h-6q-4 -29 -23 -62t-53 -57t-79 -24q-79 0 -117 46t-38 138v321zM237 760h83l128 -169v-8h-90l-53 86l-24 43h-5l-25 -43l-53 -86h-88v8z" />
    <glyph glyph-name="udieresis" unicode="&#xfc;" horiz-adv-x="562" 
d="M74 497h101v-305q0 -63 19.5 -90t63.5 -27q50 0 84.5 44.5t37.5 113.5v264h101v-497h-94v58l3 77h-6q-4 -29 -23 -62t-53 -57t-79 -24q-79 0 -117 46t-38 138v321zM131 689q0 8 8 8h76q7 0 7 -8v-99q0 -7 -7 -7h-78q-6 0 -6 7v99zM336 689q0 8 8 8h76q7 0 7 -8v-99
q0 -7 -7 -7h-78q-6 0 -6 7v99z" />
    <glyph glyph-name="yacute" unicode="&#xfd;" horiz-adv-x="483" 
d="M49 -117q28 -6 51 -6q42 0 64.5 23.5t39.5 85.5l-193 511h106l100 -303l27 -114h6l26 114l94 303h104l-192 -545q-27 -76 -66.5 -115t-108.5 -39q-15 0 -32 3.5t-26 7.5v74zM423 759v-13l-150 -164h-65l104 177h111z" />
    <glyph glyph-name="thorn" unicode="&#xfe;" horiz-adv-x="589" 
d="M177 34v-246h-96v946h97v-271l-4 -74h6q19 53 64 87t105 34q94 0 144 -65t50 -183q0 -84 -26 -145t-71.5 -92.5t-103.5 -31.5q-60 0 -105.5 36t-64.5 93zM408 387q-31 47 -94 47q-42 0 -74 -26t-49 -66.5t-17 -81.5v-27q0 -73 36 -119t102 -46q58 0 92.5 51.5t34.5 133.5
q0 87 -31 134z" />
    <glyph glyph-name="ydieresis" unicode="&#xff;" horiz-adv-x="483" 
d="M49 -117q28 -6 51 -6q42 0 64.5 23.5t39.5 85.5l-193 511h106l100 -303l27 -114h6l26 114l94 303h104l-192 -545q-27 -76 -66.5 -115t-108.5 -39q-15 0 -32 3.5t-26 7.5v74zM94 688q0 8 8 8h76q7 0 7 -8v-99q0 -7 -7 -7h-78q-6 0 -6 7v99zM299 688q0 8 8 8h76q7 0 7 -8
v-99q0 -7 -7 -7h-78q-6 0 -6 7v99z" />
    <glyph glyph-name="Amacron" unicode="&#x100;" horiz-adv-x="616" 
d="M376 659l230 -659h-106l-60 179h-265l-60 -179h-105l234 659h132zM414 262l-71 214l-31 120h-4l-34 -120l-72 -214h212zM445 814v-72h-271v72h271z" />
    <glyph glyph-name="amacron" unicode="&#x101;" horiz-adv-x="529" 
d="M295.5 23.5q-44.5 -32.5 -102.5 -32.5q-72 0 -111.5 37.5t-39.5 99.5q1 66 45.5 101t129.5 51q77 16 107 26t31 24v8q0 46 -24.5 69.5t-76.5 23.5q-44 0 -78 -21.5t-50 -54.5l-77 40q26 52 84 82.5t131 30.5q189 0 189 -179v-165q0 -136 28 -164h-101q-20 22 -23 108
q-17 -52 -61.5 -84.5zM355 280q-14 -23 -84 -40q-66 -16 -97 -39.5t-31 -62.5q0 -35 22 -54.5t55 -19.5q52 0 90 32.5t45 83.5v100zM402 675v-73h-272v73h272z" />
    <glyph glyph-name="Abreve" unicode="&#x102;" horiz-adv-x="616" 
d="M376 659l230 -659h-106l-60 179h-265l-60 -179h-105l234 659h132zM414 262l-71 214l-31 120h-4l-34 -120l-72 -214h212zM224 883q-1 -37 21 -62t65 -25t64.5 24.5t21.5 62.5l79 -1q2 -64 -41 -107t-124 -43t-124 43t-41 107z" />
    <glyph glyph-name="abreve" unicode="&#x103;" horiz-adv-x="529" 
d="M295.5 23.5q-44.5 -32.5 -102.5 -32.5q-72 0 -111.5 37.5t-39.5 99.5q1 66 45.5 101t129.5 51q77 16 107 26t31 24v8q0 46 -24.5 69.5t-76.5 23.5q-44 0 -78 -21.5t-50 -54.5l-77 40q26 52 84 82.5t131 30.5q189 0 189 -179v-165q0 -136 28 -164h-101q-20 22 -23 108
q-17 -52 -61.5 -84.5zM355 280q-14 -23 -84 -40q-66 -16 -97 -39.5t-31 -62.5q0 -35 22 -54.5t55 -19.5q52 0 90 32.5t45 83.5v100zM183 744q-1 -46 19.5 -74t63.5 -28t63 27t20 75h79q2 -75 -40 -121t-122 -46t-122 46t-40 121h79z" />
    <glyph glyph-name="Aogonek" unicode="&#x104;" horiz-adv-x="616" 
d="M446 -57q27 34 75 57h-21l-60 179h-265l-60 -179h-105l234 659h132l230 -659q-49 -20 -77.5 -48t-28.5 -62q0 -27 16.5 -41t46.5 -14q32 0 46 7v-71q-27 -9 -63 -9q-58 0 -92.5 29.5t-34.5 75.5q0 42 27 76zM414 262l-71 214l-31 120h-4l-34 -120l-72 -214h212z" />
    <glyph glyph-name="aogonek" unicode="&#x105;" horiz-adv-x="526" 
d="M294.5 23.5q-44.5 -32.5 -102.5 -32.5q-72 0 -111.5 37.5t-39.5 99.5q1 66 45.5 101t128.5 51q78 16 108 26t31 24v8q0 46 -24.5 69.5t-76.5 23.5q-44 0 -78 -21.5t-51 -54.5l-77 40q26 52 84.5 82.5t131.5 30.5q189 0 189 -179v-165q0 -136 28 -164h-4
q-46 -20 -74.5 -49t-28.5 -63q0 -53 60 -53q33 0 46 7v-71q-25 -9 -63 -9q-58 0 -91.5 28t-33.5 74q0 42 28 76.5t75 59.5h-16q-19 23 -22 108q-17 -52 -61.5 -84.5zM354 280q-14 -23 -84 -40q-66 -16 -97 -39.5t-31 -62.5q0 -35 21.5 -54.5t55.5 -19.5q51 0 89.5 32.5
t45.5 83.5v100z" />
    <glyph glyph-name="Cacute" unicode="&#x106;" horiz-adv-x="661" 
d="M87.5 509.5q37.5 77.5 106.5 120t161 42.5q107 0 174.5 -53t92.5 -156l-101 -20q-20 77 -60 111.5t-107 34.5q-92 0 -146 -69.5t-54 -187.5v-3q0 -119 52.5 -188.5t147.5 -69.5q73 0 113.5 39t56.5 113l100 -19q-21 -104 -91 -160t-180 -56q-94 0 -162 42.5t-104.5 120
t-36.5 179.5t37.5 179.5zM535 905v-12l-154 -155h-66l106 167h114z" />
    <glyph glyph-name="cacute" unicode="&#x107;" horiz-adv-x="504" 
d="M72.5 384q28.5 59 82.5 92.5t127 33.5q75 0 122.5 -30t71.5 -95l-87 -38q-26 85 -105 85q-63 0 -99.5 -46t-36.5 -133q0 -90 34.5 -138t100.5 -48q42 0 71 19.5t42 55.5l78 -38q-23 -53 -72 -84t-122 -31t-126 32t-81.5 91t-28.5 138q0 75 28.5 134zM470 760v-13
l-150 -164h-65l104 177h111z" />
    <glyph glyph-name="Ccircumflex" unicode="&#x108;" horiz-adv-x="661" 
d="M87.5 509.5q37.5 77.5 106.5 120t161 42.5q107 0 174.5 -53t92.5 -156l-101 -20q-20 77 -60 111.5t-107 34.5q-92 0 -146 -69.5t-54 -187.5v-3q0 -119 52.5 -188.5t147.5 -69.5q73 0 113.5 39t56.5 113l100 -19q-21 -104 -91 -160t-180 -56q-94 0 -162 42.5t-104.5 120
t-36.5 179.5t37.5 179.5zM308 903h85l128 -155v-8h-90l-53 74l-24 41h-6l-24 -41l-53 -74h-90v8z" />
    <glyph glyph-name="ccircumflex" unicode="&#x109;" horiz-adv-x="504" 
d="M72.5 384q28.5 59 82.5 92.5t127 33.5q75 0 122.5 -30t71.5 -95l-87 -38q-26 85 -105 85q-63 0 -99.5 -46t-36.5 -133q0 -90 34.5 -138t100.5 -48q42 0 71 19.5t42 55.5l78 -38q-23 -53 -72 -84t-122 -31t-126 32t-81.5 91t-28.5 138q0 75 28.5 134zM247 760h83l128 -169
v-8h-90l-53 86l-24 43h-5l-25 -43l-53 -86h-88v8z" />
    <glyph glyph-name="Cdotaccent" unicode="&#x10a;" horiz-adv-x="661" 
d="M87.5 509.5q37.5 77.5 106.5 120t161 42.5q107 0 174.5 -53t92.5 -156l-101 -20q-20 77 -60 111.5t-107 34.5q-92 0 -146 -69.5t-54 -187.5v-3q0 -119 52.5 -188.5t147.5 -69.5q73 0 113.5 39t56.5 113l100 -19q-21 -104 -91 -160t-180 -56q-94 0 -162 42.5t-104.5 120
t-36.5 179.5t37.5 179.5zM296 846q0 8 8 8h95q7 0 7 -8v-99q0 -7 -7 -7h-97q-6 0 -6 7v99z" />
    <glyph glyph-name="cdotaccent" unicode="&#x10b;" horiz-adv-x="505" 
d="M72.5 384q28.5 59 82.5 92.5t127 33.5q75 0 122.5 -30t71.5 -95l-87 -38q-26 85 -105 85q-63 0 -99.5 -46t-36.5 -133q0 -90 34.5 -138t100.5 -48q42 0 71 19.5t42 55.5l78 -38q-23 -53 -72 -84t-122 -31t-126 32t-81.5 91t-28.5 138q0 75 28.5 134zM231 689q0 8 8 8h95
q7 0 7 -8v-99q0 -7 -7 -7h-97q-6 0 -6 7v99z" />
    <glyph glyph-name="Ccaron" unicode="&#x10c;" horiz-adv-x="661" 
d="M87.5 509.5q37.5 77.5 106.5 120t161 42.5q107 0 174.5 -53t92.5 -156l-101 -20q-20 77 -60 111.5t-107 34.5q-92 0 -146 -69.5t-54 -187.5v-3q0 -119 52.5 -188.5t147.5 -69.5q73 0 113.5 39t56.5 113l100 -19q-21 -104 -91 -160t-180 -56q-94 0 -162 42.5t-104.5 120
t-36.5 179.5t37.5 179.5zM181 908h89l54 -78l24 -42h6l24 42l53 78h90v-8l-128 -160h-85l-127 160v8z" />
    <glyph glyph-name="ccaron" unicode="&#x10d;" horiz-adv-x="504" 
d="M72.5 384q28.5 59 82.5 92.5t127 33.5q75 0 122.5 -30t71.5 -95l-87 -38q-26 85 -105 85q-63 0 -99.5 -46t-36.5 -133q0 -90 34.5 -138t100.5 -48q42 0 71 19.5t42 55.5l78 -38q-23 -53 -72 -84t-122 -31t-126 32t-81.5 91t-28.5 138q0 75 28.5 134zM119 760h90l54 -87
l24 -42h5l77 129h89v-8l-128 -169h-83l-128 169v8z" />
    <glyph glyph-name="Dcaron" unicode="&#x10e;" horiz-adv-x="675" 
d="M309 659q153 0 234.5 -84.5t81.5 -244.5q0 -157 -85.5 -243.5t-242.5 -86.5h-203v659h215zM464 148q54 63 54 181v4q0 242 -212 242h-112v-490h110q106 0 160 63zM144 908h89l54 -78l24 -42h6l24 42l53 78h90v-8l-128 -160h-85l-127 160v8z" />
    <glyph glyph-name="dcaron" unicode="&#x10f;" horiz-adv-x="590" 
d="M100.5 443.5q55.5 66.5 147.5 66.5q63 0 105 -33.5t60 -86.5h5l-6 95v249h96v-734h-93l1 121l4 38q-9 -71 -57.5 -118.5t-119.5 -47.5q-91 0 -144.5 70.5t-53.5 189.5q0 124 55.5 190.5zM414 269q0 71 -34.5 118.5t-102.5 47.5q-61 0 -94.5 -47.5t-33.5 -129.5
q0 -88 32.5 -138.5t92.5 -50.5q41 0 73 25t49.5 65t17.5 83v27zM595 748v-25l-42 -191h-58l14 216h86z" />
    <glyph glyph-name="Dcroat" unicode="&#x110;" horiz-adv-x="680" 
d="M99 381v278h215q153 0 234 -84.5t81 -244.5q0 -157 -85.5 -243.5t-242.5 -86.5h-202v294h-71v87h71zM469 148q53 62 53 181v4q0 242 -211 242h-112v-194h160v-87h-160v-208h109q108 0 161 62z" />
    <glyph glyph-name="dcroat" unicode="&#x111;" horiz-adv-x="591" 
d="M412 665v69h96v-69h79v-64h-79v-601h-93l1 121l4 38q-9 -71 -57.5 -118.5t-119.5 -47.5q-91 0 -144.5 70.5t-53.5 189.5q0 124 55.5 190.5t147.5 66.5q63 0 105 -33.5t60 -86.5h5l-6 95v116h-97v64h97zM414 269q0 71 -34.5 118.5t-102.5 47.5q-61 0 -94.5 -47.5
t-33.5 -129.5q0 -88 32.5 -138.5t92.5 -50.5q41 0 73 25t49.5 65t17.5 83v27z" />
    <glyph glyph-name="Emacron" unicode="&#x112;" horiz-adv-x="580" 
d="M527 659v-88h-333v-188h236v-86h-236v-210h346v-87h-446v659h433zM462 814v-72h-271v72h271z" />
    <glyph glyph-name="emacron" unicode="&#x113;" horiz-adv-x="537" 
d="M108.5 439.5q62.5 70.5 170.5 70.5q110 0 162.5 -66.5t51.5 -178.5l-1 -37h-347q5 -82 42.5 -122t99.5 -40q42 0 74.5 18t48.5 48l67 -47q-68 -96 -196 -96q-112 0 -173.5 68t-61.5 189q0 123 62.5 193.5zM391 293v4q0 138 -115 138q-54 0 -88.5 -34.5t-39.5 -107.5h243z
M417 675v-73h-272v73h272z" />
    <glyph glyph-name="Ebreve" unicode="&#x114;" horiz-adv-x="580" 
d="M527 659v-88h-333v-188h236v-86h-236v-210h346v-87h-446v659h433zM241 883q-1 -37 21 -62t65 -25t64.5 24.5t21.5 62.5l79 -1q2 -64 -41 -107t-124 -43t-124 43t-41 107z" />
    <glyph glyph-name="ebreve" unicode="&#x115;" horiz-adv-x="537" 
d="M108.5 439.5q62.5 70.5 170.5 70.5q110 0 162.5 -66.5t51.5 -178.5l-1 -37h-347q5 -82 42.5 -122t99.5 -40q42 0 74.5 18t48.5 48l67 -47q-68 -96 -196 -96q-112 0 -173.5 68t-61.5 189q0 123 62.5 193.5zM391 293v4q0 138 -115 138q-54 0 -88.5 -34.5t-39.5 -107.5h243z
M198 744q-1 -46 19.5 -74t63.5 -28t63 27t20 75h79q2 -75 -40 -121t-122 -46t-122 46t-40 121h79z" />
    <glyph glyph-name="Edotaccent" unicode="&#x116;" horiz-adv-x="580" 
d="M527 659v-88h-333v-188h236v-86h-236v-210h346v-87h-446v659h433zM272 846q0 8 8 8h95q7 0 7 -8v-99q0 -7 -7 -7h-97q-6 0 -6 7v99z" />
    <glyph glyph-name="edotaccent" unicode="&#x117;" horiz-adv-x="537" 
d="M108.5 439.5q62.5 70.5 170.5 70.5q110 0 162.5 -66.5t51.5 -178.5l-1 -37h-347q5 -82 42.5 -122t99.5 -40q42 0 74.5 18t48.5 48l67 -47q-68 -96 -196 -96q-112 0 -173.5 68t-61.5 189q0 123 62.5 193.5zM391 293v4q0 138 -115 138q-54 0 -88.5 -34.5t-39.5 -107.5h243z
M223 689q0 8 8 8h95q7 0 7 -8v-99q0 -7 -7 -7h-97q-6 0 -6 7v99z" />
    <glyph glyph-name="Eogonek" unicode="&#x118;" horiz-adv-x="580" 
d="M527 659v-88h-333v-188h236v-85h-236v-211h346v-87q-49 -20 -77.5 -48t-28.5 -62q0 -27 16.5 -41t46.5 -14q33 0 46 7v-71q-27 -9 -64 -9q-57 0 -91.5 29.5t-34.5 75.5q0 42 27.5 75.5t75.5 57.5h-362v659h433z" />
    <glyph glyph-name="eogonek" unicode="&#x119;" horiz-adv-x="537" 
d="M251.5 -70q19.5 32 52.5 60q-6 -1 -20 -1q-112 0 -175 68.5t-63 188.5q0 123 61.5 193.5t170.5 70.5q110 0 163 -66t52 -178l-1 -38h-345q9 -162 146 -162q41 0 69.5 19.5t44.5 48.5l70 -50q-30 -43 -74 -67q-38 -25 -64 -61t-26 -68q0 -53 61 -53q33 0 46 7v-71
q-27 -9 -63 -9q-58 0 -91.5 28t-33.5 74q0 34 19.5 66zM391 293q-1 71 -27 107t-89 36q-53 0 -87 -35.5t-39 -107.5h242z" />
    <glyph glyph-name="Ecaron" unicode="&#x11a;" horiz-adv-x="580" 
d="M527 659v-88h-333v-188h236v-86h-236v-210h346v-87h-446v659h433zM157 908h89l54 -78l24 -42h6l24 42l53 78h90v-8l-128 -160h-85l-127 160v8z" />
    <glyph glyph-name="ecaron" unicode="&#x11b;" horiz-adv-x="537" 
d="M108.5 439.5q62.5 70.5 170.5 70.5q110 0 162.5 -66.5t51.5 -178.5l-1 -37h-347q5 -82 42.5 -122t99.5 -40q42 0 74.5 18t48.5 48l67 -47q-68 -96 -196 -96q-112 0 -173.5 68t-61.5 189q0 123 62.5 193.5zM391 293v4q0 138 -115 138q-54 0 -88.5 -34.5t-39.5 -107.5h243z
M111 760h90l54 -87l24 -42h5l77 129h89v-8l-128 -169h-83l-128 169v8z" />
    <glyph glyph-name="Gcircumflex" unicode="&#x11c;" horiz-adv-x="709" 
d="M89 509.5q39 77.5 111 120t169 42.5q103 0 170.5 -43.5t98.5 -125.5l-104 -33q-37 119 -165 119q-99 0 -157 -68t-58 -188v-4q0 -121 54.5 -190t149.5 -69q79 0 132 48.5t57 142.5h-167v89h267v-350h-78l-8 181q-16 -94 -74 -143.5t-146 -49.5q-87 0 -153 42.5
t-102 119.5t-36 178q0 104 39 181.5zM328 903h85l128 -155v-8h-90l-53 74l-24 41h-6l-24 -41l-53 -74h-90v8z" />
    <glyph glyph-name="gcircumflex" unicode="&#x11d;" horiz-adv-x="561" 
d="M162.5 134.5q-15.5 -11.5 -15.5 -25.5q0 -20 16.5 -32t58.5 -17q82 -8 125 -11q89 -10 130 -39t41 -89q0 -47 -30.5 -84t-89 -58t-138.5 -21h-8q-110 0 -164.5 33t-54.5 91q0 39 32 67.5t90 39.5q-40 8 -64.5 31.5t-24.5 56.5q0 66 94 88q-48 22 -74.5 64.5t-26.5 95.5
t24.5 94.5t71.5 65.5t111 24q59 0 103 -20t70 -56q17 70 90 70q11 0 20 -3v-94q-10 5 -25 5q-42 0 -63 -21q11 -30 11 -61q0 -83 -55.5 -133.5t-154.5 -50.5q-35 0 -57 5q-27 -4 -42.5 -15.5zM351 411q-28 31 -85 31q-55 0 -82.5 -32t-27.5 -83q0 -52 28 -82.5t84 -30.5
t83.5 31t27.5 83t-28 83zM139.5 -49.5q-18.5 -18.5 -17.5 -44.5q0 -35 37 -55.5t106 -20.5h11q80 0 116 23t36 60q0 27 -26.5 37.5t-86.5 16.5q-33 4 -121 9q-36 -7 -54.5 -25.5zM229 760h83l128 -169v-8h-90l-53 86l-24 43h-5l-25 -43l-53 -86h-88v8z" />
    <glyph glyph-name="Gbreve" unicode="&#x11e;" horiz-adv-x="709" 
d="M89 509.5q39 77.5 111 120t169 42.5q103 0 170.5 -43.5t98.5 -125.5l-104 -33q-37 119 -165 119q-99 0 -157 -68t-58 -188v-4q0 -121 54.5 -190t149.5 -69q79 0 132 48.5t57 142.5h-167v89h267v-350h-78l-8 181q-16 -94 -74 -143.5t-146 -49.5q-87 0 -153 42.5
t-102 119.5t-36 178q0 104 39 181.5zM285 883q-1 -37 21 -62t65 -25t64.5 24.5t21.5 62.5l79 -1q2 -64 -41 -107t-124 -43t-124 43t-41 107z" />
    <glyph glyph-name="gbreve" unicode="&#x11f;" horiz-adv-x="561" 
d="M162.5 134.5q-15.5 -11.5 -15.5 -25.5q0 -20 16.5 -32t58.5 -17q82 -8 125 -11q89 -10 130 -39t41 -89q0 -47 -30.5 -84t-89 -58t-138.5 -21h-8q-110 0 -164.5 33t-54.5 91q0 39 32 67.5t90 39.5q-40 8 -64.5 31.5t-24.5 56.5q0 66 94 88q-48 22 -74.5 64.5t-26.5 95.5
t24.5 94.5t71.5 65.5t111 24q59 0 103 -20t70 -56q17 70 90 70q11 0 20 -3v-94q-10 5 -25 5q-42 0 -63 -21q11 -30 11 -61q0 -83 -55.5 -133.5t-154.5 -50.5q-35 0 -57 5q-27 -4 -42.5 -15.5zM351 411q-28 31 -85 31q-55 0 -82.5 -32t-27.5 -83q0 -52 28 -82.5t84 -30.5
t83.5 31t27.5 83t-28 83zM139.5 -49.5q-18.5 -18.5 -17.5 -44.5q0 -35 37 -55.5t106 -20.5h11q80 0 116 23t36 60q0 27 -26.5 37.5t-86.5 16.5q-33 4 -121 9q-36 -7 -54.5 -25.5zM188 744q-1 -46 19.5 -74t63.5 -28t63 27t20 75h79q2 -75 -40 -121t-122 -46t-122 46t-40 121
h79z" />
    <glyph glyph-name="Gdotaccent" unicode="&#x120;" horiz-adv-x="709" 
d="M89 509.5q39 77.5 111 120t169 42.5q103 0 170.5 -43.5t98.5 -125.5l-104 -33q-37 119 -165 119q-99 0 -157 -68t-58 -188v-4q0 -121 54.5 -190t149.5 -69q79 0 132 48.5t57 142.5h-167v89h267v-350h-78l-8 181q-16 -94 -74 -143.5t-146 -49.5q-87 0 -153 42.5
t-102 119.5t-36 178q0 104 39 181.5zM316 846q0 8 8 8h95q7 0 7 -8v-99q0 -7 -7 -7h-97q-6 0 -6 7v99z" />
    <glyph glyph-name="gdotaccent" unicode="&#x121;" horiz-adv-x="561" 
d="M162.5 134.5q-15.5 -11.5 -15.5 -25.5q0 -20 16.5 -32t58.5 -17q82 -8 125 -11q89 -10 130 -39t41 -89q0 -47 -30.5 -84t-89 -58t-138.5 -21h-8q-110 0 -164.5 33t-54.5 91q0 39 32 67.5t90 39.5q-40 8 -64.5 31.5t-24.5 56.5q0 66 94 88q-48 22 -74.5 64.5t-26.5 95.5
t24.5 94.5t71.5 65.5t111 24q59 0 103 -20t70 -56q17 70 90 70q11 0 20 -3v-94q-10 5 -25 5q-42 0 -63 -21q11 -30 11 -61q0 -83 -55.5 -133.5t-154.5 -50.5q-35 0 -57 5q-27 -4 -42.5 -15.5zM351 411q-28 31 -85 31q-55 0 -82.5 -32t-27.5 -83q0 -52 28 -82.5t84 -30.5
t83.5 31t27.5 83t-28 83zM139.5 -49.5q-18.5 -18.5 -17.5 -44.5q0 -35 37 -55.5t106 -20.5h11q80 0 116 23t36 60q0 27 -26.5 37.5t-86.5 16.5q-33 4 -121 9q-36 -7 -54.5 -25.5zM218 689q0 8 8 8h95q7 0 7 -8v-99q0 -7 -7 -7h-97q-6 0 -6 7v99z" />
    <glyph glyph-name="Gcommaaccent" unicode="&#x122;" horiz-adv-x="709" 
d="M89 509.5q39 77.5 111 120t169 42.5q103 0 170.5 -43.5t98.5 -125.5l-104 -33q-37 119 -165 119q-99 0 -157 -68t-58 -188v-4q0 -121 54.5 -190t149.5 -69q79 0 132 48.5t57 142.5h-167v89h267v-350h-78l-8 181q-16 -94 -74 -143.5t-146 -49.5q-87 0 -153 42.5
t-102 119.5t-36 178q0 104 39 181.5zM293 -258q24 8 37 26.5t15 50.5h-40q-6 0 -6 7v86q0 4 3 6t6 2h93q7 0 7 -8v-56q0 -118 -102 -134z" />
    <glyph glyph-name="gcommaaccent" unicode="&#x123;" horiz-adv-x="561" 
d="M162.5 134.5q-15.5 -11.5 -15.5 -25.5q0 -20 16.5 -32t58.5 -17q82 -8 125 -11q89 -10 130 -39t41 -89q0 -47 -30.5 -84t-89 -58t-138.5 -21h-8q-110 0 -164.5 33t-54.5 91q0 39 32 67.5t90 39.5q-40 8 -64.5 31.5t-24.5 56.5q0 66 94 88q-48 22 -74.5 64.5t-26.5 95.5
t24.5 94.5t71.5 65.5t111 24q59 0 103 -20t70 -56q17 70 90 70q11 0 20 -3v-94q-10 5 -25 5q-42 0 -63 -21q11 -30 11 -61q0 -83 -55.5 -133.5t-154.5 -50.5q-35 0 -57 5q-27 -4 -42.5 -15.5zM351 411q-28 31 -85 31q-55 0 -82.5 -32t-27.5 -83q0 -52 28 -82.5t84 -30.5
t83.5 31t27.5 83t-28 83zM139.5 -49.5q-18.5 -18.5 -17.5 -44.5q0 -35 37 -55.5t106 -20.5h11q80 0 116 23t36 60q0 27 -26.5 37.5t-86.5 16.5q-33 4 -121 9q-36 -7 -54.5 -25.5zM223 584q-7 0 -7 7v56q0 69 30.5 100t74.5 38l13 -20q-26 -9 -39.5 -28t-14.5 -51h40
q6 0 6 -8v-87q0 -7 -10 -7h-93z" />
    <glyph glyph-name="Hcircumflex" unicode="&#x124;" horiz-adv-x="700" 
d="M196 659v-278h307v278h102v-659h-102v293h-307v-293h-102v659h102zM306 903h85l128 -155v-8h-90l-53 74l-24 41h-6l-24 -41l-53 -74h-90v8z" />
    <glyph glyph-name="hcircumflex" unicode="&#x125;" horiz-adv-x="583" 
d="M175.5 396.5q-1.5 -23.5 -2.5 -33.5h6q18 64 64.5 104.5t112.5 40.5q73 0 111.5 -45.5t38.5 -134.5v-328h-101v303q0 63 -23.5 91t-68.5 28q-36 0 -66.5 -22t-49 -62.5t-19.5 -93.5v-244h-96v734h96v-298q-1 -16 -2.5 -39.5zM86 903h85l128 -155v-8h-90l-53 74l-24 41h-6
l-24 -41l-53 -74h-90v8z" />
    <glyph glyph-name="Hbar" unicode="&#x126;" horiz-adv-x="736" 
d="M104 560v101h102v-101h313v101h101v-101h73v-79h-73v-481h-101v262h-313v-262h-102v481h-71v79h71zM519 349v132h-313v-132h313z" />
    <glyph glyph-name="hbar" unicode="&#x127;" horiz-adv-x="579" 
d="M81 665v69h97v-69h103v-64h-103v-158l-4 -98q17 75 63.5 120t115.5 45q150 0 150 -182v-328h-102v307q0 62 -21 90t-65 28q-53 0 -88 -43.5t-50 -122.5v-259h-96v601h-72v64h72z" />
    <glyph glyph-name="Itilde" unicode="&#x128;" horiz-adv-x="294" 
d="M198 659v-659h-102v659h102zM70 835q-26 0 -34 -67l-2 -24h-66q1 7 2.5 21t2.5 21q7 57 36 83.5t72 26.5q38 0 59 -18.5t40 -50.5q12 -18 19.5 -26.5t17.5 -8.5h6q16 0 23 18t11 48q1 4 2 12.5t1 12.5h66l-4 -42q-15 -109 -109 -109q-38 0 -59 18.5t-40 49.5
q-12 18 -19.5 26.5t-17.5 8.5h-7z" />
    <glyph glyph-name="itilde" unicode="&#x129;" horiz-adv-x="262" 
d="M220.5 655q5.5 17 8.5 50l2 25h67l-5 -43q-15 -110 -102 -110q-40 0 -58 18.5t-33 52.5q-8 18 -14 26.5t-16 8.5h-7q-15 0 -20.5 -17t-9.5 -51l-2 -23h-66l5 42q14 110 104 110q38 0 56 -18.5t33 -51.5q7 -19 13.5 -27.5t16.5 -8.5h7q15 0 20.5 17zM180 497v-497h-98v497
h98z" />
    <glyph glyph-name="Imacron" unicode="&#x12a;" horiz-adv-x="293" 
d="M279 814v-72h-267v72h267zM198 659v-659h-102v659h102z" />
    <glyph glyph-name="imacron" unicode="&#x12b;" horiz-adv-x="262" 
d="M266 675v-73h-269v73h269zM180 497v-497h-98v497h98z" />
    <glyph glyph-name="Ibreve" unicode="&#x12c;" horiz-adv-x="294" 
d="M198 659v-659h-102v659h102zM60 883q-1 -37 21 -62t65 -25t64.5 24.5t21.5 62.5l79 -1q2 -64 -41 -107t-124 -43t-124 43t-41 107z" />
    <glyph glyph-name="ibreve" unicode="&#x12d;" horiz-adv-x="262" 
d="M52 744q-1 -46 18.5 -74t60.5 -28t60.5 27.5t19.5 74.5h79q2 -75 -39 -121t-120 -46t-119.5 46t-38.5 121h79zM180 497v-497h-98v497h98z" />
    <glyph glyph-name="Iogonek" unicode="&#x12e;" horiz-adv-x="293" 
d="M197 659v-659q-48 -18 -75 -46.5t-27 -63.5q0 -27 16 -41t46 -14q29 0 40 7l1 -71q-25 -9 -61 -9q-56 0 -89.5 29.5t-33.5 76.5q0 41 26.5 74.5t71.5 57.5h-16v659h101z" />
    <glyph glyph-name="iogonek" unicode="&#x12f;" horiz-adv-x="262" 
d="M76 689q0 8 8 8h95q7 0 7 -8v-99q0 -7 -7 -7h-97q-6 0 -6 7v99zM180 497v-497q-98 -42 -98 -111q0 -27 16.5 -40.5t46.5 -13.5q29 0 43 7v-71q-27 -9 -62 -9q-57 0 -91.5 29t-34.5 76q0 42 27 75.5t73 57.5h-18v497h98z" />
    <glyph glyph-name="Idotaccent" unicode="&#x130;" horiz-adv-x="294" 
d="M198 659v-659h-102v659h102zM91 846q0 8 8 8h95q7 0 7 -8v-99q0 -7 -7 -7h-97q-6 0 -6 7v99z" />
    <glyph glyph-name="dotlessi" unicode="&#x131;" horiz-adv-x="262" 
d="M180 497v-497h-98v497h98z" />
    <glyph glyph-name="IJ" unicode="&#x132;" horiz-adv-x="824" 
d="M198 659v-659h-102v659h102zM415 206q7 -65 34.5 -96t79.5 -31q61 0 85.5 34.5t24.5 114.5v431h101v-442q0 -117 -52 -173.5t-157 -56.5q-99 0 -153.5 54t-62.5 150z" />
    <glyph glyph-name="ij" unicode="&#x133;" horiz-adv-x="533" 
d="M77 689q0 8 8 8h96q6 0 6 -8v-99q0 -7 -6 -7h-97q-7 0 -7 7v99zM182 497v-497h-99v497h99zM349 689q0 8 6 8h96q7 0 7 -8v-99q0 -7 -7 -7h-97q-5 0 -5 7v99zM252 -126q16 -4 37 -4q37 0 51 18t14 66v543h97v-540q0 -63 -14 -99t-44.5 -52t-83.5 -16q-22 0 -57 7v77z" />
    <glyph glyph-name="Jcircumflex" unicode="&#x134;" horiz-adv-x="530" 
d="M121 206q7 -65 34.5 -96t79.5 -31q61 0 85.5 34.5t24.5 114.5v431h101v-442q0 -117 -52 -173.5t-157 -56.5q-99 0 -153.5 54t-62.5 150zM351 903h85l128 -155v-8h-90l-53 74l-24 41h-6l-24 -41l-53 -74h-90v8z" />
    <glyph glyph-name="jcircumflex" unicode="&#x135;" horiz-adv-x="265" 
d="M-15 -143q13 -3 35 -3q37 0 52 18.5t15 65.5v559h98v-558q0 -91 -35.5 -128t-113.5 -37q-18 0 -33 2.5t-18 2.5v78zM93 760h83l128 -169v-8h-90l-53 86l-24 43h-5l-25 -43l-53 -86h-88v8z" />
    <glyph glyph-name="Kcommaaccent" unicode="&#x136;" horiz-adv-x="623" 
d="M194 659v-287l-4 -80l290 367h119l-218 -271l229 -388h-117l-181 321l-122 -146l4 -67v-108h-100v659h100zM273 -258q24 8 37 26.5t15 50.5h-40q-6 0 -6 7v86q0 4 3 6t6 2h93q7 0 7 -8v-56q0 -118 -102 -134z" />
    <glyph glyph-name="kcommaaccent" unicode="&#x137;" horiz-adv-x="529" 
d="M178 734v-404l-5 -107l213 274h122l-165 -198l178 -299h-112l-136 239l-98 -113l2 -35v-91h-95v734h96zM235 -258q24 8 37 26.5t15 50.5h-40q-6 0 -6 7v86q0 4 3 6t6 2h93q7 0 7 -8v-56q0 -118 -102 -134z" />
    <glyph glyph-name="kgreenlandic" unicode="&#x138;" horiz-adv-x="532" 
d="M177 497v-170l-9 -113l222 283h121l-164 -196l177 -301h-112l-136 240l-102 -120v-120h-93v497h96z" />
    <glyph glyph-name="Lacute" unicode="&#x139;" horiz-adv-x="506" 
d="M197 659v-568h285v-91h-388v659h103zM330 905v-12l-154 -155h-66l106 167h114z" />
    <glyph glyph-name="lacute" unicode="&#x13a;" horiz-adv-x="264" 
d="M181 734v-734h-98v734h98zM316 964v-12l-154 -155h-66l106 167h114z" />
    <glyph glyph-name="Lcommaaccent" unicode="&#x13b;" horiz-adv-x="506" 
d="M197 659v-568h285v-91h-388v659h103zM227 -258q24 8 37 26.5t15 50.5h-40q-6 0 -6 7v86q0 4 3 6t6 2h93q7 0 7 -8v-56q0 -118 -102 -134z" />
    <glyph glyph-name="lcommaaccent" unicode="&#x13c;" horiz-adv-x="264" 
d="M181 734v-734h-98v734h98zM72 -258q24 8 37 26.5t15 50.5h-40q-6 0 -6 7v86q0 4 3 6t6 2h93q7 0 7 -8v-56q0 -118 -102 -134z" />
    <glyph glyph-name="Lcaron" unicode="&#x13d;" horiz-adv-x="507" 
d="M197 659v-568h285v-91h-388v659h103zM417 748v-25l-42 -191h-58l14 216h86z" />
    <glyph glyph-name="lcaron" unicode="&#x13e;" horiz-adv-x="264" 
d="M181 734v-734h-98v734h98zM331 748v-25l-42 -191h-58l14 216h86z" />
    <glyph glyph-name="Ldot" unicode="&#x13f;" horiz-adv-x="557" 
d="M197 659v-568h285v-91h-388v659h103zM410 409q0 7 7 7h96q2 0 4 -2t2 -5v-133q0 -3 -2 -5t-4 -2h-98q-5 0 -5 7v133z" />
    <glyph glyph-name="ldot" unicode="&#x140;" horiz-adv-x="390" 
d="M181 734v-734h-98v734h98zM265 372q0 7 7 7h96q2 0 4 -2t2 -5v-133q0 -3 -2 -5t-4 -2h-98q-5 0 -5 7v133z" />
    <glyph glyph-name="Lslash" unicode="&#x141;" horiz-adv-x="548" 
d="M106 384v273h103v-227l162 77v-87l-162 -77v-253h285v-91h-388v298l-87 -40v87z" />
    <glyph glyph-name="lslash" unicode="&#x142;" horiz-adv-x="318" 
d="M109 428v306h100v-260l74 34v-84l-74 -33v-391h-100v346l-72 -33v83z" />
    <glyph glyph-name="Nacute" unicode="&#x143;" horiz-adv-x="713" 
d="M211 659l242 -388l82 -159l-14 162v385h98v-659h-96l-269 423l-80 152l16 -155v-420h-96v659h117zM542 905v-12l-154 -155h-66l106 167h114z" />
    <glyph glyph-name="nacute" unicode="&#x144;" horiz-adv-x="584" 
d="M177.5 392q-1.5 -22 -2.5 -31h6q18 65 64.5 106t111.5 41q74 0 112.5 -46t38.5 -136v-326h-101v303q0 63 -23 91t-68 28q-36 0 -66 -20.5t-48.5 -59t-19.5 -90.5v-252h-100v497h97v-68q0 -15 -1.5 -37zM488 760v-13l-150 -164h-65l104 177h111z" />
    <glyph glyph-name="Ncommaaccent" unicode="&#x145;" horiz-adv-x="713" 
d="M211 659l242 -388l82 -159l-14 162v385h98v-659h-96l-269 423l-80 152l16 -155v-420h-96v659h117zM298 -258q24 8 37 26.5t15 50.5h-40q-6 0 -6 7v86q0 4 3 6t6 2h93q7 0 7 -8v-56q0 -118 -102 -134z" />
    <glyph glyph-name="ncommaaccent" unicode="&#x146;" horiz-adv-x="584" 
d="M177.5 392q-1.5 -22 -2.5 -31h6q18 65 64.5 106t111.5 41q74 0 112.5 -46t38.5 -136v-326h-101v303q0 63 -23 91t-68 28q-36 0 -66 -20.5t-48.5 -59t-19.5 -90.5v-252h-100v497h97v-68q0 -15 -1.5 -37zM237 -258q24 8 37 26.5t15 50.5h-40q-6 0 -6 7v86q0 4 3 6t6 2h93
q7 0 7 -8v-56q0 -118 -102 -134z" />
    <glyph glyph-name="Ncaron" unicode="&#x147;" horiz-adv-x="713" 
d="M211 659l242 -388l82 -159l-14 162v385h98v-659h-96l-269 423l-80 152l16 -155v-420h-96v659h117zM188 908h89l54 -78l24 -42h6l24 42l53 78h90v-8l-128 -160h-85l-127 160v8z" />
    <glyph glyph-name="ncaron" unicode="&#x148;" horiz-adv-x="584" 
d="M177.5 392q-1.5 -22 -2.5 -31h6q18 65 64.5 106t111.5 41q74 0 112.5 -46t38.5 -136v-326h-101v303q0 63 -23 91t-68 28q-36 0 -66 -20.5t-48.5 -59t-19.5 -90.5v-252h-100v497h97v-68q0 -15 -1.5 -37zM137 760h90l54 -87l24 -42h5l77 129h89v-8l-128 -169h-83l-128 169
v8z" />
    <glyph glyph-name="Eng" unicode="&#x14a;" horiz-adv-x="713" 
d="M332 -90q15 -16 38 -26t50 -10q101 0 101 116v13l-269 420l-77 150l16 -153v-420h-97v659h118l245 -394l77 -149l-14 158v385h99v-655q0 -110 -55 -164t-144 -54q-48 0 -87.5 14.5t-65.5 41.5z" />
    <glyph glyph-name="eng" unicode="&#x14b;" horiz-adv-x="583" 
d="M314 -105h25q40 0 54 15.5t14 61.5v335q0 62 -21.5 90t-66.5 28q-53 0 -87.5 -43.5t-49.5 -126.5v-255h-100v497h98l1 -67l-6 -84q21 73 69.5 118.5t114.5 45.5q147 0 149 -183v-358q0 -63 -16 -97.5t-50.5 -49t-94.5 -14.5h-33v87z" />
    <glyph glyph-name="Omacron" unicode="&#x14c;" horiz-adv-x="713" 
d="M87.5 510q36.5 77 106 119.5t166.5 42.5q94 0 162 -42.5t104 -120t36 -180.5q0 -104 -37 -181t-107.5 -118.5t-166.5 -41.5q-94 0 -161.5 41.5t-103 118t-35.5 181.5q0 104 36.5 181zM556 331q0 122 -52.5 190t-147.5 68q-96 0 -149 -68t-53 -190v-3q0 -121 53 -189.5
t148 -68.5q96 0 148.5 67.5t52.5 191.5v2zM491 814v-72h-271v72h271z" />
    <glyph glyph-name="omacron" unicode="&#x14d;" horiz-adv-x="569" 
d="M72.5 382.5q29.5 59.5 85 93.5t131.5 34q113 0 175 -69.5t62 -187.5q0 -76 -30 -136t-85 -94t-129 -34q-115 0 -177 69.5t-62 190.5q0 74 29.5 133.5zM387.5 384.5q-35.5 49.5 -100.5 49.5q-67 0 -103.5 -49.5t-36.5 -133.5q0 -85 36 -135.5t101 -50.5q66 0 102.5 50.5
t36.5 135.5q0 84 -35.5 133.5zM423 675v-73h-272v73h272z" />
    <glyph glyph-name="Obreve" unicode="&#x14e;" horiz-adv-x="713" 
d="M87.5 510q36.5 77 106 119.5t166.5 42.5q94 0 162 -42.5t104 -120t36 -180.5q0 -104 -37 -181t-107.5 -118.5t-166.5 -41.5q-94 0 -161.5 41.5t-103 118t-35.5 181.5q0 104 36.5 181zM556 331q0 122 -52.5 190t-147.5 68q-96 0 -149 -68t-53 -190v-3q0 -121 53 -189.5
t148 -68.5q96 0 148.5 67.5t52.5 191.5v2zM270 883q-1 -37 21 -62t65 -25t64.5 24.5t21.5 62.5l79 -1q2 -64 -41 -107t-124 -43t-124 43t-41 107z" />
    <glyph glyph-name="obreve" unicode="&#x14f;" horiz-adv-x="569" 
d="M72.5 382.5q29.5 59.5 85 93.5t131.5 34q113 0 175 -69.5t62 -187.5q0 -76 -30 -136t-85 -94t-129 -34q-115 0 -177 69.5t-62 190.5q0 74 29.5 133.5zM387.5 384.5q-35.5 49.5 -100.5 49.5q-67 0 -103.5 -49.5t-36.5 -133.5q0 -85 36 -135.5t101 -50.5q66 0 102.5 50.5
t36.5 135.5q0 84 -35.5 133.5zM204 744q-1 -46 19.5 -74t63.5 -28t63 27t20 75h79q2 -75 -40 -121t-122 -46t-122 46t-40 121h79z" />
    <glyph glyph-name="Ohungarumlaut" unicode="&#x150;" horiz-adv-x="713" 
d="M87.5 510q36.5 77 106 119.5t166.5 42.5q94 0 162 -42.5t104 -120t36 -180.5q0 -104 -37 -181t-107.5 -118.5t-166.5 -41.5q-94 0 -161.5 41.5t-103 118t-35.5 181.5q0 104 36.5 181zM556 331q0 122 -52.5 190t-147.5 68q-96 0 -149 -68t-53 -190v-3q0 -121 53 -189.5
t148 -68.5q96 0 148.5 67.5t52.5 191.5v2zM406 908v-13l-129 -156h-61l88 169h102zM631 908v-11l-133 -158h-60l87 169h106z" />
    <glyph glyph-name="ohungarumlaut" unicode="&#x151;" horiz-adv-x="569" 
d="M72.5 382.5q29.5 59.5 85 93.5t131.5 34q113 0 175 -69.5t62 -187.5q0 -76 -30 -136t-85 -94t-129 -34q-115 0 -177 69.5t-62 190.5q0 74 29.5 133.5zM387.5 384.5q-35.5 49.5 -100.5 49.5q-67 0 -103.5 -49.5t-36.5 -133.5q0 -85 36 -135.5t101 -50.5q66 0 102.5 50.5
t36.5 135.5q0 84 -35.5 133.5zM337 762v-13l-126 -167h-65l93 180h98zM559 762v-10l-129 -170h-64l91 180h102z" />
    <glyph glyph-name="OE" unicode="&#x152;" horiz-adv-x="1046" 
d="M86.5 508.5q35.5 77.5 104 120.5t163.5 43q152 0 207 -128v115h440v-82h-342v-189h237v-87h-237v-214h353v-87h-451v124q-28 -66 -82 -100.5t-132 -34.5q-93 0 -159.5 42t-101.5 119t-35 180q0 101 35.5 178.5zM557 332q0 120 -51.5 188.5t-147.5 68.5
q-97 0 -150.5 -68.5t-53.5 -189.5v-2q0 -120 52.5 -189.5t147.5 -69.5q96 0 149.5 69t53.5 190v3z" />
    <glyph glyph-name="oe" unicode="&#x153;" horiz-adv-x="927" 
d="M398.5 14.5q-47.5 -25.5 -111.5 -25.5q-116 0 -179.5 70.5t-63.5 190.5q0 74 30.5 133.5t87.5 93.5t133 34q130 0 185 -93q29 45 75.5 69t107.5 24q110 0 163 -66.5t53 -178.5q0 -28 -2 -38h-347q8 -162 142 -162q80 0 123 64l68 -48q-70 -93 -197 -93q-67 0 -115 25
t-76 72q-29 -46 -76.5 -71.5zM777 293v4q0 139 -117 139q-55 0 -89 -34.5t-39 -108.5h245zM392.5 386q-33.5 49 -99.5 49q-68 0 -106 -50t-38 -133q0 -85 36.5 -136t103.5 -51t102 50t35 136t-33.5 135z" />
    <glyph glyph-name="Racute" unicode="&#x154;" horiz-adv-x="636" 
d="M317 659q123 0 181 -46.5t58 -128.5q0 -57 -35 -104t-116 -64q75 -16 117.5 -86t52.5 -193q1 -31 3 -37h-105q0 3 -0.5 10t-0.5 21q-9 121 -51 178t-127 57h-100v-266h-100v659h223zM416.5 378.5q36.5 35.5 36.5 91.5q0 54 -34 81t-119 27h-106v-235h107q79 0 115.5 35.5
zM507 905v-12l-154 -155h-66l106 167h114z" />
    <glyph glyph-name="racute" unicode="&#x155;" horiz-adv-x="380" 
d="M175 497v-67l-11 -155h7q10 93 53 161.5t121 68.5h15v-119q-9 1 -36 1q-68 0 -103.5 -49.5t-41.5 -137.5v-200h-99v497h95zM407 760v-13l-150 -164h-65l104 177h111z" />
    <glyph glyph-name="Rcommaaccent" unicode="&#x156;" horiz-adv-x="636" 
d="M317 659q123 0 181 -46.5t58 -128.5q0 -57 -35 -104t-116 -64q75 -16 117.5 -86t52.5 -193q1 -31 3 -37h-105q0 3 -0.5 10t-0.5 21q-9 121 -51 178t-127 57h-100v-266h-100v659h223zM416.5 378.5q36.5 35.5 36.5 91.5q0 54 -34 81t-119 27h-106v-235h107q79 0 115.5 35.5
zM262 -258q24 8 37 26.5t15 50.5h-40q-6 0 -6 7v86q0 4 3 6t6 2h93q7 0 7 -8v-56q0 -118 -102 -134z" />
    <glyph glyph-name="rcommaaccent" unicode="&#x157;" horiz-adv-x="380" 
d="M175 497v-67l-11 -155h7q10 93 53 161.5t121 68.5h15v-119q-9 1 -36 1q-68 0 -103.5 -49.5t-41.5 -137.5v-200h-99v497h95zM69 -258q24 8 37 26.5t15 50.5h-40q-6 0 -6 7v86q0 4 3 6t6 2h93q7 0 7 -8v-56q0 -118 -102 -134z" />
    <glyph glyph-name="Rcaron" unicode="&#x158;" horiz-adv-x="636" 
d="M317 659q123 0 181 -46.5t58 -128.5q0 -57 -35 -104t-116 -64q75 -16 117.5 -86t52.5 -193q1 -31 3 -37h-105q0 3 -0.5 10t-0.5 21q-9 121 -51 178t-127 57h-100v-266h-100v659h223zM416.5 378.5q36.5 35.5 36.5 91.5q0 54 -34 81t-119 27h-106v-235h107q79 0 115.5 35.5
zM153 908h89l54 -78l24 -42h6l24 42l53 78h90v-8l-128 -160h-85l-127 160v8z" />
    <glyph glyph-name="rcaron" unicode="&#x159;" horiz-adv-x="380" 
d="M175 497v-67l-11 -155h7q10 93 53 161.5t121 68.5h15v-119q-9 1 -36 1q-68 0 -103.5 -49.5t-41.5 -137.5v-200h-99v497h95zM56 760h90l54 -87l24 -42h5l77 129h89v-8l-128 -169h-83l-128 169v8z" />
    <glyph glyph-name="Sacute" unicode="&#x15a;" horiz-adv-x="566" 
d="M128 185q15 -56 56.5 -84.5t97.5 -28.5q62 0 97.5 27.5t35.5 74.5q0 33 -18 54t-51.5 36t-95.5 34q-96 30 -141.5 72t-45.5 120q0 52 28 93t79 64.5t118 23.5q90 0 149 -37.5t78 -109.5l-86 -37q-13 51 -49 76.5t-92 25.5q-60 0 -93 -26t-33 -65q0 -31 13 -50.5
t43.5 -34.5t90.5 -33q67 -20 111.5 -43t71.5 -60t27 -92q0 -59 -30.5 -103t-85.5 -68.5t-125 -24.5q-92 0 -154.5 40.5t-85.5 119.5zM458 905v-12l-154 -155h-66l106 167h114z" />
    <glyph glyph-name="sacute" unicode="&#x15b;" horiz-adv-x="460" 
d="M99 142q24 -39 59 -58t76 -19q39 0 62.5 16.5t23.5 47.5q0 33 -30 51t-98 41q-66 23 -102.5 54.5t-36.5 89.5q0 63 51 103t132 40q120 0 178 -86l-66 -53q-14 26 -43 45.5t-70 19.5q-37 0 -60 -17t-23 -44q0 -23 15 -38.5t37 -25t67 -25.5q47 -17 77.5 -33.5t50.5 -45
t20 -72.5q0 -66 -51.5 -104t-136.5 -38q-64 0 -117 26t-81 75zM408 760v-13l-150 -164h-65l104 177h111z" />
    <glyph glyph-name="Scircumflex" unicode="&#x15c;" horiz-adv-x="566" 
d="M128 185q15 -56 56.5 -84.5t97.5 -28.5q62 0 97.5 27.5t35.5 74.5q0 33 -18 54t-51.5 36t-95.5 34q-96 30 -141.5 72t-45.5 120q0 52 28 93t79 64.5t118 23.5q90 0 149 -37.5t78 -109.5l-86 -37q-13 51 -49 76.5t-92 25.5q-60 0 -93 -26t-33 -65q0 -31 13 -50.5
t43.5 -34.5t90.5 -33q67 -20 111.5 -43t71.5 -60t27 -92q0 -59 -30.5 -103t-85.5 -68.5t-125 -24.5q-92 0 -154.5 40.5t-85.5 119.5zM231 903h85l128 -155v-8h-90l-53 74l-24 41h-6l-24 -41l-53 -74h-90v8z" />
    <glyph glyph-name="scircumflex" unicode="&#x15d;" horiz-adv-x="460" 
d="M99 142q24 -39 59 -58t76 -19q39 0 62.5 16.5t23.5 47.5q0 33 -30 51t-98 41q-66 23 -102.5 54.5t-36.5 89.5q0 63 51 103t132 40q120 0 178 -86l-66 -53q-14 26 -43 45.5t-70 19.5q-37 0 -60 -17t-23 -44q0 -23 15 -38.5t37 -25t67 -25.5q47 -17 77.5 -33.5t50.5 -45
t20 -72.5q0 -66 -51.5 -104t-136.5 -38q-64 0 -117 26t-81 75zM185 760h83l128 -169v-8h-90l-53 86l-24 43h-5l-25 -43l-53 -86h-88v8z" />
    <glyph glyph-name="Scedilla" unicode="&#x15e;" horiz-adv-x="566" 
d="M187 -148q18 -9 50 -9q28 0 43 15t15 41q0 25 -14 49.5t-41 42.5q-78 8 -130 47.5t-72 110.5l90 36q15 -56 56.5 -84.5t97.5 -28.5q62 0 97.5 27.5t35.5 74.5q0 33 -18 54t-51.5 36t-95.5 34q-96 30 -141.5 72t-45.5 120q0 52 28 93t79 64.5t118 23.5q90 0 149 -37.5
t78 -109.5l-86 -37q-13 51 -49 76.5t-92 25.5q-60 0 -93 -26t-33 -65q0 -31 13 -50.5t43.5 -34.5t90.5 -33q67 -20 111.5 -43t71.5 -60t27 -92q0 -83 -59 -135.5t-155 -59.5q32 -23 50 -53.5t18 -64.5q0 -47 -30.5 -75.5t-87.5 -28.5q-43 0 -68 13v71z" />
    <glyph glyph-name="scedilla" unicode="&#x15f;" horiz-adv-x="461" 
d="M136 -148q22 -9 52 -9q27 0 42 15t15 41q0 27 -15.5 52.5t-45.5 43.5q-49 8 -88.5 32.5t-62.5 64.5l66 50q24 -39 59 -58t77 -19q38 0 62 16.5t24 47.5q0 33 -30 51t-99 41q-66 23 -102.5 54.5t-36.5 89.5q0 63 51 103t132 40q121 0 179 -86l-67 -53q-14 27 -43 46
t-70 19q-37 0 -60 -17.5t-23 -43.5q0 -23 15 -38.5t37 -25t67 -25.5q47 -17 77.5 -33.5t50.5 -45t20 -72.5q0 -62 -45.5 -99t-121.5 -42q33 -23 51.5 -54t18.5 -66q0 -47 -30 -75.5t-87 -28.5q-19 0 -38 3.5t-31 9.5v71z" />
    <glyph glyph-name="Scaron" unicode="&#x160;" horiz-adv-x="566" 
d="M128 185q15 -56 56.5 -84.5t97.5 -28.5q62 0 97.5 27.5t35.5 74.5q0 33 -18 54t-51.5 36t-95.5 34q-96 30 -141.5 72t-45.5 120q0 52 28 93t79 64.5t118 23.5q90 0 149 -37.5t78 -109.5l-86 -37q-13 51 -49 76.5t-92 25.5q-60 0 -93 -26t-33 -65q0 -31 13 -50.5
t43.5 -34.5t90.5 -33q67 -20 111.5 -43t71.5 -60t27 -92q0 -59 -30.5 -103t-85.5 -68.5t-125 -24.5q-92 0 -154.5 40.5t-85.5 119.5zM104 908h89l54 -78l24 -42h6l24 42l53 78h90v-8l-128 -160h-85l-127 160v8z" />
    <glyph glyph-name="scaron" unicode="&#x161;" horiz-adv-x="460" 
d="M99 142q24 -39 59 -58t76 -19q39 0 62.5 16.5t23.5 47.5q0 33 -30 51t-98 41q-66 23 -102.5 54.5t-36.5 89.5q0 63 51 103t132 40q120 0 178 -86l-66 -53q-14 26 -43 45.5t-70 19.5q-37 0 -60 -17t-23 -44q0 -23 15 -38.5t37 -25t67 -25.5q47 -17 77.5 -33.5t50.5 -45
t20 -72.5q0 -66 -51.5 -104t-136.5 -38q-64 0 -117 26t-81 75zM57 760h90l54 -87l24 -42h5l77 129h89v-8l-128 -169h-83l-128 169v8z" />
    <glyph glyph-name="uni0162" unicode="&#x162;" horiz-adv-x="531" 
d="M506 659v-90h-189v-569h-19q40 -22 63 -56t23 -72q0 -47 -30 -75.5t-88 -28.5q-46 0 -68 14v70q18 -9 50 -9q28 0 43.5 15t15.5 41q0 30 -19.5 56.5t-56.5 44.5h-16v569h-190v90h481z" />
    <glyph glyph-name="uni0163" unicode="&#x163;" horiz-adv-x="366" 
d="M112 497v123l88 42v-128l-3 -37h130v-81h-132l5 -37v-224q0 -34 5.5 -50t19.5 -22t42 -6q36 0 75 11v-74q-44 -17 -93 -20q31 -24 48 -56.5t17 -70.5q0 -47 -31 -75.5t-87 -28.5q-47 0 -73 13v72q26 -12 55 -12q27 0 41.5 16t14.5 43q0 34 -15.5 59t-47.5 48
q-34 13 -49 46t-15 92v276h-81v81h86z" />
    <glyph glyph-name="Tcaron" unicode="&#x164;" horiz-adv-x="531" 
d="M506 659v-90h-189v-569h-102v569h-190v90h481zM95 908h89l54 -78l24 -42h6l24 42l53 78h90v-8l-128 -160h-85l-127 160v8z" />
    <glyph glyph-name="tcaron" unicode="&#x165;" horiz-adv-x="365" 
d="M111 497v124l89 41v-128l-4 -37h130v-81h-130l4 -38v-226q0 -33 5.5 -49t19.5 -22t42 -6q34 0 75 13v-75q-23 -9 -51.5 -15t-56.5 -6q-69 0 -98.5 32.5t-29.5 112.5v279h-81v81h86zM361 748v-25l-42 -191h-58l14 216h86z" />
    <glyph glyph-name="Tbar" unicode="&#x166;" horiz-adv-x="550" 
d="M515 659v-90h-189v-189h150v-87h-150v-293h-102v293h-149v87h149v189h-190v90h481z" />
    <glyph glyph-name="tbar" unicode="&#x167;" horiz-adv-x="373" 
d="M116 497v123l88 42v-128l-3 -37h130v-81h-131l4 -35v-56h130v-79h-131v-21l1 -72q0 -33 5.5 -49t19.5 -21.5t43 -5.5q34 0 75 11v-74q-55 -21 -108 -21q-69 0 -99 33.5t-30 113.5v106h-79v79h79v91h-80v81h86z" />
    <glyph glyph-name="Utilde" unicode="&#x168;" horiz-adv-x="672" 
d="M81 659h102v-389q0 -100 37.5 -147t115.5 -47q79 0 117 46.5t38 147.5v389h101v-392q0 -141 -67 -210.5t-187 -69.5q-257 0 -257 280v392zM260 835q-26 0 -34 -67l-2 -24h-66q1 7 2.5 21t2.5 21q7 57 36 83.5t72 26.5q38 0 59 -18.5t40 -50.5q12 -18 19.5 -26.5
t17.5 -8.5h6q16 0 23 18t11 48q1 4 2 12.5t1 12.5h66l-4 -42q-15 -109 -109 -109q-38 0 -59 18.5t-40 49.5q-12 18 -19.5 26.5t-17.5 8.5h-7z" />
    <glyph glyph-name="utilde" unicode="&#x169;" horiz-adv-x="562" 
d="M74 497h101v-305q0 -63 19.5 -90t63.5 -27q50 0 84.5 44.5t37.5 113.5v264h101v-497h-94v58l3 77h-6q-4 -29 -23 -62t-53 -57t-79 -24q-79 0 -117 46t-38 138v321zM203 681q-26 0 -34 -67l-2 -23h-66l5 40q7 58 35.5 84.5t72.5 26.5q37 0 58 -18.5t40 -50.5
q12 -18 19.5 -26.5t16.5 -8.5h7q26 0 34 66l2 25h66l-5 -42q-7 -57 -36 -83t-69 -26t-61 18.5t-40 50.5q-12 18 -19 26t-17 8h-7z" />
    <glyph glyph-name="Umacron" unicode="&#x16a;" horiz-adv-x="672" 
d="M81 659h102v-389q0 -100 37.5 -147t115.5 -47q79 0 117 46.5t38 147.5v389h101v-392q0 -141 -67 -210.5t-187 -69.5q-257 0 -257 280v392zM471 814v-72h-271v72h271z" />
    <glyph glyph-name="umacron" unicode="&#x16b;" horiz-adv-x="562" 
d="M74 497h101v-305q0 -63 19.5 -90t63.5 -27q50 0 84.5 44.5t37.5 113.5v264h101v-497h-94v58l3 77h-6q-4 -29 -23 -62t-53 -57t-79 -24q-79 0 -117 46t-38 138v321zM415 675v-73h-272v73h272z" />
    <glyph glyph-name="Ubreve" unicode="&#x16c;" horiz-adv-x="672" 
d="M81 659h102v-389q0 -100 37.5 -147t115.5 -47q79 0 117 46.5t38 147.5v389h101v-392q0 -141 -67 -210.5t-187 -69.5q-257 0 -257 280v392zM250 883q-1 -37 21 -62t65 -25t64.5 24.5t21.5 62.5l79 -1q2 -64 -41 -107t-124 -43t-124 43t-41 107z" />
    <glyph glyph-name="ubreve" unicode="&#x16d;" horiz-adv-x="562" 
d="M74 497h101v-305q0 -63 19.5 -90t63.5 -27q50 0 84.5 44.5t37.5 113.5v264h101v-497h-94v58l3 77h-6q-4 -29 -23 -62t-53 -57t-79 -24q-79 0 -117 46t-38 138v321zM196 744q-1 -46 19.5 -74t63.5 -28t63 27t20 75h79q2 -75 -40 -121t-122 -46t-122 46t-40 121h79z" />
    <glyph glyph-name="Uring" unicode="&#x16e;" horiz-adv-x="672" 
d="M81 659h102v-389q0 -100 37.5 -147t115.5 -47q79 0 117 46.5t38 147.5v389h101v-392q0 -141 -67 -210.5t-187 -69.5q-257 0 -257 280v392zM240 939q37 34 96 34t96.5 -34t37.5 -88q0 -53 -37.5 -87t-96.5 -34t-96 34t-37 87q0 54 37 88zM390 903.5q-21 19.5 -54 19.5
t-54 -19.5t-21 -52.5t21 -52.5t54 -19.5t54 19.5t21 52.5t-21 52.5z" />
    <glyph glyph-name="uring" unicode="&#x16f;" horiz-adv-x="562" 
d="M74 497h101v-305q0 -63 19.5 -90t63.5 -27q50 0 84.5 44.5t37.5 113.5v264h101v-497h-94v58l3 77h-6q-4 -29 -23 -62t-53 -57t-79 -24q-79 0 -117 46t-38 138v321zM183 785q37 34 96 34t96.5 -34t37.5 -88q0 -53 -37.5 -86.5t-96.5 -33.5t-96 33.5t-37 86.5q0 54 37 88z
M333 749q-21 20 -54 20t-54 -20t-21 -52q0 -33 21 -52.5t54 -19.5t54 19.5t21 52.5q0 32 -21 52z" />
    <glyph glyph-name="Uhungarumlaut" unicode="&#x170;" horiz-adv-x="672" 
d="M81 659h102v-389q0 -100 37.5 -147t115.5 -47q79 0 117 46.5t38 147.5v389h101v-392q0 -141 -67 -210.5t-187 -69.5q-257 0 -257 280v392zM386 908v-13l-129 -156h-61l88 169h102zM611 908v-11l-133 -158h-60l87 169h106z" />
    <glyph glyph-name="uhungarumlaut" unicode="&#x171;" horiz-adv-x="562" 
d="M74 497h101v-305q0 -63 19.5 -90t63.5 -27q50 0 84.5 44.5t37.5 113.5v264h101v-497h-94v58l3 77h-6q-4 -29 -23 -62t-53 -57t-79 -24q-79 0 -117 46t-38 138v321zM329 762v-13l-126 -167h-65l93 180h98zM551 762v-10l-129 -170h-64l91 180h102z" />
    <glyph glyph-name="Uogonek" unicode="&#x172;" horiz-adv-x="673" 
d="M335 -13q-254 2 -254 280v392h102v-389q0 -100 37.5 -147.5t115.5 -47.5q79 0 117 47t38 148v389h101v-392q0 -106 -39 -172t-111 -92h1q-102 -46 -102 -113q0 -27 16.5 -41t45.5 -14q33 0 46 7v-71q-25 -9 -63 -9q-58 0 -92.5 29.5t-34.5 75.5q0 70 76 120z" />
    <glyph glyph-name="uogonek" unicode="&#x173;" horiz-adv-x="562" 
d="M74 497h102v-305q0 -63 19 -90t63 -27q33 0 60.5 20t44.5 55.5t18 80.5v266h101v-497q-47 -19 -75 -47.5t-28 -63.5q0 -54 60 -54q33 0 46 7v-71q-27 -9 -63 -9q-57 0 -91 29t-34 75q0 42 27.5 76t75.5 58h-13v57l2 82l-3 5q-3 -32 -22.5 -67.5t-53.5 -60t-80 -24.5
q-80 0 -118 45.5t-38 138.5v321z" />
    <glyph glyph-name="Wcircumflex" unicode="&#x174;" horiz-adv-x="884" 
d="M120 659l103 -423l25 -157h5l26 157l111 423h106l111 -423l26 -157h5l26 157l101 423h105l-183 -659h-107l-116 442l-21 138h-5l-22 -138l-112 -442h-107l-183 659h106zM392 903h85l128 -155v-8h-90l-53 74l-24 41h-6l-24 -41l-53 -74h-90v8z" />
    <glyph glyph-name="wcircumflex" unicode="&#x175;" horiz-adv-x="751" 
d="M124 497l64 -274l24 -134h4l33 135l80 273h103l73 -273l32 -136h4l26 136l68 273h100l-148 -497h-104l-82 296l-23 113h-4l-24 -113l-88 -296h-103l-140 497h105zM336 760h83l128 -169v-8h-90l-53 86l-24 43h-5l-25 -43l-53 -86h-88v8z" />
    <glyph glyph-name="Ycircumflex" unicode="&#x176;" horiz-adv-x="570" 
d="M5 659h116l106 -195l54 -137h9l54 137l104 195h118l-230 -399v-260h-102v260zM242 903h85l128 -155v-8h-90l-53 74l-24 41h-6l-24 -41l-53 -74h-90v8z" />
    <glyph glyph-name="ycircumflex" unicode="&#x177;" horiz-adv-x="483" 
d="M49 -117q28 -6 51 -6q42 0 64.5 23.5t39.5 85.5l-193 511h106l100 -303l27 -114h6l26 114l94 303h104l-192 -545q-27 -76 -66.5 -115t-108.5 -39q-15 0 -32 3.5t-26 7.5v74zM200 759h83l128 -169v-8h-90l-53 86l-24 43h-5l-25 -43l-53 -86h-88v8z" />
    <glyph glyph-name="Ydieresis" unicode="&#x178;" horiz-adv-x="570" 
d="M5 659h116l106 -195l54 -137h9l54 137l104 195h118l-230 -399v-260h-102v260zM137 846q0 8 8 8h76q7 0 7 -8v-99q0 -7 -7 -7h-78q-6 0 -6 7v99zM342 846q0 8 8 8h76q7 0 7 -8v-99q0 -7 -7 -7h-78q-6 0 -6 7v99z" />
    <glyph glyph-name="Zacute" unicode="&#x179;" horiz-adv-x="561" 
d="M321 474l96 105l-130 -11h-228v91h453v-83l-284 -395l-98 -102l130 9h260v-88h-484v81zM460 905v-12l-154 -155h-66l106 167h114z" />
    <glyph glyph-name="zacute" unicode="&#x17a;" horiz-adv-x="477" 
d="M254 346l79 71v3l-84 -7h-193v84h377v-76l-221 -277l-69 -66v-3l85 9h209v-84h-400v73zM428 760v-13l-150 -164h-65l104 177h111z" />
    <glyph glyph-name="Zdotaccent" unicode="&#x17b;" horiz-adv-x="561" 
d="M321 474l96 105l-130 -11h-228v91h453v-83l-284 -395l-98 -102l130 9h260v-88h-484v81zM221 846q0 8 8 8h95q7 0 7 -8v-99q0 -7 -7 -7h-97q-6 0 -6 7v99z" />
    <glyph glyph-name="zdotaccent" unicode="&#x17c;" horiz-adv-x="477" 
d="M254 346l79 71v3l-84 -7h-193v84h377v-76l-221 -277l-69 -66v-3l85 9h209v-84h-400v73zM191 689q0 8 8 8h95q7 0 7 -8v-99q0 -7 -7 -7h-97q-6 0 -6 7v99z" />
    <glyph glyph-name="Zcaron" unicode="&#x17d;" horiz-adv-x="561" 
d="M321 474l96 105l-130 -11h-228v91h453v-83l-284 -395l-98 -102l130 9h260v-88h-484v81zM106 908h89l54 -78l24 -42h6l24 42l53 78h90v-8l-128 -160h-85l-127 160v8z" />
    <glyph glyph-name="zcaron" unicode="&#x17e;" horiz-adv-x="477" 
d="M254 346l79 71v3l-84 -7h-193v84h377v-76l-221 -277l-69 -66v-3l85 9h209v-84h-400v73zM77 760h90l54 -87l24 -42h5l77 129h89v-8l-128 -169h-83l-128 169v8z" />
    <glyph glyph-name="uni018F" unicode="&#x18f;" horiz-adv-x="705" 
d="M49 338h502q-1 117 -53 183.5t-148 66.5q-70 0 -116.5 -30t-66.5 -87l-105 28q31 81 105 127t180 46q97 0 166.5 -43.5t105.5 -121t36 -177.5q0 -105 -38.5 -182.5t-108 -119t-158.5 -41.5q-142 0 -221.5 85.5t-79.5 250.5v15zM155 262q11 -97 57 -145.5t133 -48.5
q83 0 136 50.5t66 143.5h-392z" />
    <glyph glyph-name="florin" unicode="&#x192;" horiz-adv-x="561" 
d="M256 415l28 103q19 78 54 109.5t105 31.5h94v-80h-54q-36 0 -54.5 -5t-31.5 -22.5t-24 -55.5l-21 -81h124v-79h-145l-49 -190q-19 -79 -54.5 -112.5t-105.5 -33.5h-71v80h35q32 0 50 4.5t31 21.5t22 52l47 178h-105v79h125z" />
    <glyph glyph-name="Ohorn" unicode="&#x1a0;" horiz-adv-x="743" 
d="M87.5 510q36.5 77 105.5 119.5t166 42.5q80 0 142 -31.5t101 -89.5q31 16 46 41.5t15 54.5q0 51 -43 86l67 37q27 -16 42.5 -43.5t15.5 -63.5q0 -47 -28 -91t-92 -62q37 -79 37 -181q0 -104 -36.5 -181t-106 -118.5t-166.5 -41.5q-94 0 -162 41.5t-104 118t-36 181.5
q0 104 36.5 181zM556 331q0 122 -52.5 190t-147.5 68t-148.5 -68t-53.5 -190v-3q0 -121 53 -189.5t148 -68.5q97 0 149 67.5t52 191.5v2z" />
    <glyph glyph-name="ohorn" unicode="&#x1a1;" horiz-adv-x="646" 
d="M74.5 383.5q30.5 59.5 87 93.5t133.5 34q75 0 128.5 -31t82.5 -87q32 16 47.5 42t15.5 56q0 53 -44 88l67 37q27 -16 43 -45t16 -65q0 -50 -31 -94.5t-98 -60.5q14 -47 14 -98q0 -75 -30.5 -135.5t-87.5 -94.5t-131 -34q-117 0 -180 70t-63 191q0 74 30.5 133.5z
M395.5 385.5q-35.5 49.5 -102.5 49.5q-69 0 -106.5 -49.5t-37.5 -133.5q0 -85 36 -136t103 -51q68 0 105.5 50.5t37.5 135.5t-35.5 134.5z" />
    <glyph glyph-name="Uhorn" unicode="&#x1af;" horiz-adv-x="760" 
d="M81 659h102v-387q0 -99 38 -147.5t116 -48.5t116 47.5t38 147.5v388h101v-118q48 13 70 41t22 65q0 52 -42 86l66 37q27 -16 43 -45t16 -66q0 -57 -43 -104t-132 -59v-229q0 -141 -67 -210.5t-187 -69.5q-127 0 -192 70t-65 210v392z" />
    <glyph glyph-name="uhorn" unicode="&#x1b0;" horiz-adv-x="644" 
d="M74 497h101v-305q0 -63 19.5 -90t63.5 -27q50 0 84.5 44.5t37.5 113.5v264h101v-112q45 14 65.5 42.5t20.5 63.5q0 53 -44 88l67 37q27 -16 43 -45t16 -65q0 -57 -40 -104.5t-128 -56.5v-345h-94v58l3 77h-6q-4 -29 -23 -62t-53 -57t-79 -24q-79 0 -117 46t-38 138v321z
" />
    <glyph glyph-name="Aringacute" unicode="&#x1fa;" horiz-adv-x="616" 
d="M185 746q0 49 30.5 77.5t85.5 30.5l47 107h86v-11l-77 -102q37 -10 57 -36t20 -66q0 -67 -56 -93l228 -653h-106l-60 179h-265l-60 -179h-105l232 653q-57 25 -57 93zM358 793q-18 17 -48 17q-31 0 -49 -17t-18 -45q0 -29 18 -46t49 -17q30 0 48 17t18 46q0 28 -18 45z
M414 262l-71 214l-31 118h-4l-33 -118l-73 -214h212z" />
    <glyph glyph-name="aringacute" unicode="&#x1fb;" horiz-adv-x="528" 
d="M164.5 759.5q30.5 27.5 87.5 29.5l52 116h95v-11l-90 -112q35 -10 54 -35.5t19 -65.5q0 -50 -32.5 -77t-90.5 -27q-59 0 -92 27t-33 77q0 51 30.5 78.5zM306.5 729.5q-17.5 16.5 -47.5 16.5q-31 0 -49 -16.5t-18 -45.5t18 -46t49 -17q30 0 47.5 17t17.5 46t-17.5 45.5z
M295.5 23.5q-44.5 -32.5 -102.5 -32.5q-72 0 -111.5 37.5t-39.5 99.5q1 66 45.5 101t129.5 51q77 16 107 26t31 24v8q0 46 -24.5 69.5t-76.5 23.5q-44 0 -78 -21.5t-50 -54.5l-77 40q26 52 84 82.5t131 30.5q189 0 189 -179v-165q0 -136 28 -164h-101q-20 22 -23 108
q-17 -52 -61.5 -84.5zM355 280q-14 -23 -84 -40q-66 -16 -97 -39.5t-31 -62.5q0 -35 22 -54.5t55 -19.5q52 0 90 32.5t45 83.5v100z" />
    <glyph glyph-name="AEacute" unicode="&#x1fc;" horiz-adv-x="893" 
d="M843 659v-87h-321v-191h231v-85h-231v-210h328v-86h-427v187h-221l-95 -187h-114l341 659h509zM423 271v345h-14l-35 -82l-130 -263h179zM686 905v-12l-154 -155h-66l106 167h114z" />
    <glyph glyph-name="aeacute" unicode="&#x1fd;" horiz-adv-x="842" 
d="M87 228.5q44 34.5 130 51.5q79 17 108 26.5t30 23.5v8q0 46 -24.5 69.5t-76.5 23.5q-43 0 -77 -21t-51 -55l-77 40q26 52 84.5 82.5t131.5 30.5q116 0 154 -74q29 37 70.5 56.5t93.5 19.5q111 0 163.5 -67t52.5 -178q0 -27 -2 -37h-345q4 -82 42.5 -122t104.5 -40
q41 0 70 20t44 48l69 -49q-63 -96 -192 -96q-80 0 -133 37.5t-75 106.5q-21 -72 -73 -107t-116 -35q-72 0 -111.5 37.5t-39.5 99.5q1 66 45 100.5zM697 293q-1 71 -27 106.5t-89 35.5q-55 0 -88.5 -35t-37.5 -107h242zM355 282q-18 -28 -84 -42q-66 -16 -97 -39.5t-31 -62.5
q0 -35 22 -54.5t56 -19.5q51 0 88 31.5t46 81.5v105zM600 760v-13l-150 -164h-65l104 177h111z" />
    <glyph glyph-name="Oslashacute" unicode="&#x1fe;" horiz-adv-x="732" 
d="M118 -6h-89l95 105q-63 89 -63 230q0 104 36.5 181t105.5 119.5t166 42.5q117 0 195 -67l53 60h89l-98 -108q64 -91 64 -228q0 -104 -36.5 -181t-106 -118.5t-166.5 -41.5q-119 0 -195 64zM504 532q-51 57 -138 57q-95 0 -148.5 -68t-53.5 -190v-3q0 -96 33 -159z
M566 331q0 91 -31 155l-308 -360q53 -56 138 -56q97 0 149 67.5t52 191.5v2zM550 905v-12l-154 -155h-66l106 167h114z" />
    <glyph glyph-name="oslashacute" unicode="&#x1ff;" horiz-adv-x="586" 
d="M81 -34l-48 38l64 73q-47 67 -47 173q0 74 29.5 133t85 93t131.5 34q90 0 149 -45l62 70l47 -41l-65 -75q45 -67 45 -166q0 -75 -30 -135.5t-85.5 -94.5t-128.5 -34q-92 0 -150 44zM391 401q-32 33 -96 33q-67 0 -104 -49.5t-37 -132.5q0 -70 15 -112zM416 355l-220 -259
q31 -31 95 -31q66 0 102 50.5t36 135.5q0 65 -13 104zM481 760v-13l-150 -164h-65l104 177h111z" />
    <glyph glyph-name="Scommaaccent" unicode="&#x218;" horiz-adv-x="566" 
d="M128 185q15 -56 56.5 -84.5t97.5 -28.5q62 0 97.5 27.5t35.5 74.5q0 33 -18 54t-51.5 36t-95.5 34q-96 30 -141.5 72t-45.5 120q0 52 28 93t79 64.5t118 23.5q90 0 149 -37.5t78 -109.5l-86 -37q-13 51 -49 76.5t-92 25.5q-60 0 -93 -26t-33 -65q0 -31 13 -50.5
t43.5 -34.5t90.5 -33q67 -20 111.5 -43t71.5 -60t27 -92q0 -59 -30.5 -103t-85.5 -68.5t-125 -24.5q-92 0 -154.5 40.5t-85.5 119.5zM214 -259q24 8 37 26.5t15 50.5h-40q-6 0 -6 7v86q0 4 3 6t6 2h93q7 0 7 -8v-56q0 -118 -102 -134z" />
    <glyph glyph-name="scommaaccent" unicode="&#x219;" horiz-adv-x="460" 
d="M99 142q24 -39 59 -58t76 -19q39 0 62.5 16.5t23.5 47.5q0 33 -30 51t-98 41q-66 23 -102.5 54.5t-36.5 89.5q0 63 51 103t132 40q120 0 178 -86l-66 -53q-14 26 -43 45.5t-70 19.5q-37 0 -60 -17t-23 -44q0 -23 15 -38.5t37 -25t67 -25.5q47 -17 77.5 -33.5t50.5 -45
t20 -72.5q0 -66 -51.5 -104t-136.5 -38q-64 0 -117 26t-81 75zM163 -258q24 8 37 26.5t15 50.5h-40q-6 0 -6 7v86q0 4 3 6t6 2h93q7 0 7 -8v-56q0 -118 -102 -134z" />
    <glyph glyph-name="uni021A" unicode="&#x21a;" horiz-adv-x="531" 
d="M506 659v-90h-189v-569h-102v569h-190v90h481zM205 -258q24 8 37 26.5t15 50.5h-40q-6 0 -6 7v86q0 4 3 6t6 2h93q7 0 7 -8v-56q0 -118 -102 -134z" />
    <glyph glyph-name="uni021B" unicode="&#x21b;" horiz-adv-x="365" 
d="M111 497v124l89 41v-128l-4 -37h130v-81h-130l4 -38v-226q0 -33 5.5 -49t19.5 -22t42 -6q34 0 75 13v-75q-23 -9 -51.5 -15t-56.5 -6q-69 0 -98.5 32.5t-29.5 112.5v279h-81v81h86zM140 -258q24 8 37 26.5t15 50.5h-40q-6 0 -6 7v86q0 4 3 6t6 2h93q7 0 7 -8v-56
q0 -118 -102 -134z" />
    <glyph glyph-name="uni0237" unicode="&#x237;" horiz-adv-x="265" 
d="M-15 -143q13 -3 35 -3q37 0 52 18.5t15 65.5v559h98v-558q0 -91 -35.5 -128t-113.5 -37q-18 0 -33 2.5t-18 2.5v78z" />
    <glyph glyph-name="uni0259" unicode="&#x259;" horiz-adv-x="537" 
d="M46 277h345q-10 158 -143 158q-78 0 -116 -66l-71 51q31 42 79 67.5t116 25.5q113 0 174.5 -68.5t61.5 -189.5q-1 -123 -62.5 -193.5t-169.5 -70.5q-110 0 -162.5 67t-52.5 180q0 33 1 39zM147 211q1 -73 27 -109.5t90 -36.5q53 0 86 36.5t39 109.5h-242z" />
    <glyph glyph-name="uni02BB" unicode="&#x2bb;" horiz-adv-x="66" 
d="M-31 643q0 74 35 111t82 41l11 -23q-30 -9 -45.5 -31t-18.5 -64h44q6 0 6 -7v-86q0 -8 -9 -8h-99q-6 0 -6 8v59z" />
    <glyph glyph-name="uni02BC" unicode="&#x2bc;" horiz-adv-x="66" 
d="M-13 669q0 7 6 7h44q-3 42 -19 63.5t-46 30.5l12 23q47 -4 82 -40.5t35 -111.5v-59q0 -7 -6 -7h-99q-9 0 -9 7v87z" />
    <glyph glyph-name="circumflex" unicode="&#x2c6;" horiz-adv-x="370" 
d="M142 760h85l127 -169v-8h-90l-53 86l-24 43h-6l-24 -43l-54 -86h-88v8z" />
    <glyph glyph-name="caron" unicode="&#x2c7;" horiz-adv-x="365" 
d="M12 760h90l54 -87l24 -42h6l24 42l53 87h89v-8l-128 -169h-84l-128 169v8z" />
    <glyph glyph-name="uni02CA" unicode="&#x2ca;" horiz-adv-x="267" 
d="M247 740v-12l-160 -161h-67l112 173h115z" />
    <glyph glyph-name="uni02CB" unicode="&#x2cb;" horiz-adv-x="269" 
d="M20 740h117l112 -173h-68l-161 161v12z" />
    <glyph glyph-name="breve" unicode="&#x2d8;" horiz-adv-x="368" 
d="M101 732q-1 -47 21 -74.5t61 -27.5q41 0 63 27t20 75h80q2 -76 -41 -121.5t-122 -45.5t-121.5 45.5t-40.5 121.5h80z" />
    <glyph glyph-name="dotaccent" unicode="&#x2d9;" horiz-adv-x="149" 
d="M20 690q0 8 8 8h94q7 0 7 -8v-99q0 -6 -7 -6h-96q-6 0 -6 6v99z" />
    <glyph glyph-name="ring" unicode="&#x2da;" horiz-adv-x="66" 
d="M-63.5 785q37.5 34 96.5 34t96 -34t37 -88q0 -53 -37 -86.5t-96 -33.5t-96.5 33.5t-37.5 86.5q0 54 37.5 88zM87 749q-21 20 -54 20t-54 -20t-21 -52q0 -33 20.5 -52.5t54.5 -19.5q33 0 54 19.5t21 52.5q0 32 -21 52z" />
    <glyph glyph-name="ogonek" unicode="&#x2db;" horiz-adv-x="230" 
d="M65.5 -32q45.5 39 119.5 62l20 -25q-103 -44 -103 -106q0 -26 15 -38.5t42 -12.5q28 0 50 9l1 -70q-27 -12 -67 -12q-56 0 -89.5 28t-33.5 73q0 53 45.5 92z" />
    <glyph glyph-name="tilde" unicode="&#x2dc;" horiz-adv-x="395" 
d="M122 681q-16 0 -23 -18t-11 -49l-2 -23h-66l5 40q7 58 35.5 84.5t71.5 26.5q38 0 59 -18.5t40 -50.5q12 -18 19.5 -26.5t16.5 -8.5h7q15 0 22 18t11 48l2 25h66q-1 -7 -2.5 -21t-2.5 -21q-7 -57 -35.5 -83t-69.5 -26q-39 0 -60.5 18.5t-40.5 50.5q-11 17 -18.5 25.5
t-17.5 8.5h-6z" />
    <glyph glyph-name="hungarumlaut" unicode="&#x2dd;" horiz-adv-x="438" 
d="M212 740l-1 -15l-128 -158h-63l93 173h99zM418 740l-2 -12l-129 -161h-63l90 173h104z" />
    <glyph glyph-name="uni0300" unicode="&#x300;" 
d="M-181 760h111l104 -177h-65l-150 164v13z" />
    <glyph glyph-name="uni0301" unicode="&#x301;" 
d="M181 760v-13l-150 -164h-65l104 177h111z" />
    <glyph glyph-name="uni0302" unicode="&#x302;" 
d="M-42 760h83l128 -169v-8h-90l-53 86l-24 43h-5l-25 -43l-53 -86h-88v8z" />
    <glyph glyph-name="uni0303" unicode="&#x303;" 
d="M-76 681q-26 0 -34 -67l-2 -23h-66l5 40q7 58 35.5 84.5t72.5 26.5q37 0 58 -18.5t40 -50.5q12 -18 19.5 -26.5t16.5 -8.5h7q26 0 34 66l2 25h66l-5 -42q-7 -57 -36 -83t-69 -26t-61 18.5t-40 50.5q-12 18 -19 26t-17 8h-7z" />
    <glyph glyph-name="uni0304" unicode="&#x304;" 
d="M136 675v-73h-272v73h272z" />
    <glyph glyph-name="uni0306" unicode="&#x306;" 
d="M-83 744q-1 -46 19.5 -74t63.5 -28t63 27t20 75h79q2 -75 -40 -121t-122 -46t-122 46t-40 121h79z" />
    <glyph glyph-name="uni0307" unicode="&#x307;" 
d="M-55 689q0 8 8 8h95q7 0 7 -8v-99q0 -7 -7 -7h-97q-6 0 -6 7v99z" />
    <glyph glyph-name="uni0308" unicode="&#x308;" 
d="M-148 689q0 8 8 8h76q7 0 7 -8v-99q0 -7 -7 -7h-78q-6 0 -6 7v99zM57 689q0 8 8 8h76q7 0 7 -8v-99q0 -7 -7 -7h-78q-6 0 -6 7v99z" />
    <glyph glyph-name="uni0309" unicode="&#x309;" 
d="M-9 657l22 14q18 10 27.5 18.5t9.5 22.5q0 36 -66 36q-28 0 -52 -12.5t-37 -28.5l-37 41q17 22 55 40.5t86 18.5q60 0 96.5 -21.5t36.5 -62.5q0 -30 -16 -46t-47 -33l-21 -12q-13 -9 -18.5 -17.5t-6.5 -25.5v-6h-62v17q0 36 30 57z" />
    <glyph glyph-name="uni030A" unicode="&#x30a;" 
d="M-96 785q37 34 96 34t96.5 -34t37.5 -88q0 -53 -37.5 -86.5t-96.5 -33.5t-96 33.5t-37 86.5q0 54 37 88zM54 749q-21 20 -54 20t-54 -20t-21 -52q0 -33 21 -52.5t54 -19.5t54 19.5t21 52.5q0 32 -21 52z" />
    <glyph glyph-name="uni030B" unicode="&#x30b;" 
d="M50 762v-13l-126 -167h-65l93 180h98zM272 762v-10l-129 -170h-64l91 180h102z" />
    <glyph glyph-name="uni030C" unicode="&#x30c;" 
d="M-170 760h90l54 -87l24 -42h5l77 129h89v-8l-128 -169h-83l-128 169v8z" />
    <glyph glyph-name="uni0312" unicode="&#x312;" 
d="M-48 584q-7 0 -7 7v56q0 69 30.5 100t74.5 38l13 -20q-26 -9 -39.5 -28t-14.5 -51h40q6 0 6 -8v-87q0 -7 -10 -7h-93z" />
    <glyph glyph-name="uni0315" unicode="&#x315;" 
d="M104 748v-25l-42 -191h-58l14 216h86z" />
    <glyph glyph-name="uni031B" unicode="&#x31b;" 
d="M6.5 468.5q27.5 32.5 27.5 75.5q0 48 -44 81l66 40q28 -15 44.5 -42.5t16.5 -64.5q0 -35 -17.5 -70t-55 -60.5t-93.5 -32.5l-27 30q55 11 82.5 43.5z" />
    <glyph glyph-name="uni0323" unicode="&#x323;" 
d="M-54 -88q0 8 6 8h96q7 0 7 -8v-96q0 -7 -7 -7h-96q-6 0 -6 7v96z" />
    <glyph glyph-name="uni0326" unicode="&#x326;" 
d="M-60 -258q24 8 37 26.5t15 50.5h-40q-6 0 -6 7v86q0 4 3 6t6 2h93q7 0 7 -8v-56q0 -118 -102 -134z" />
    <glyph glyph-name="uni0327" unicode="&#x327;" 
d="M-77 -148q18 -9 50 -9q28 0 43 14.5t15 41.5q0 31 -22.5 60t-65.5 46l25 17q64 -18 102.5 -58.5t38.5 -91.5q0 -47 -30 -75.5t-88 -28.5q-44 0 -68 14v70z" />
    <glyph glyph-name="uni0328" unicode="&#x328;" 
d="M-89 -37.5q46 40.5 122 62.5l20 -25q-49 -20 -77.5 -47.5t-28.5 -61.5q0 -27 16.5 -41.5t46.5 -14.5t46 7v-70q-30 -10 -63 -10q-57 0 -92.5 30t-35.5 75q0 55 46 95.5z" />
    <glyph glyph-name="pi" unicode="&#x3c0;" horiz-adv-x="614" 
d="M383 414h-163l-17 -414h-101l32 414h-106v83h549v-85h-104l14 -271q2 -37 9 -48.5t22 -11.5q22 0 44 8v-78q-15 -8 -39 -12.5t-48 -4.5q-41 0 -61 21.5t-21 69.5z" />
    <glyph glyph-name="Wgrave" unicode="&#x1e80;" horiz-adv-x="884" 
d="M120 659l103 -423l25 -157h5l26 157l111 423h106l111 -423l26 -157h5l26 157l101 423h105l-183 -659h-107l-116 442l-21 138h-5l-22 -138l-112 -442h-107l-183 659h106zM245 905h114l110 -167h-66l-158 155v12z" />
    <glyph glyph-name="wgrave" unicode="&#x1e81;" horiz-adv-x="751" 
d="M124 497l64 -274l24 -134h4l33 135l80 273h103l73 -273l32 -136h4l26 136l68 273h100l-148 -497h-104l-82 296l-23 113h-4l-24 -113l-88 -296h-103l-140 497h105zM197 760h111l104 -177h-65l-150 164v13z" />
    <glyph glyph-name="Wacute" unicode="&#x1e82;" horiz-adv-x="884" 
d="M120 659l103 -423l25 -157h5l26 157l111 423h106l111 -423l26 -157h5l26 157l101 423h105l-183 -659h-107l-116 442l-21 138h-5l-22 -138l-112 -442h-107l-183 659h106zM619 905v-12l-154 -155h-66l106 167h114z" />
    <glyph glyph-name="wacute" unicode="&#x1e83;" horiz-adv-x="751" 
d="M124 497l64 -274l24 -134h4l33 135l80 273h103l73 -273l32 -136h4l26 136l68 273h100l-148 -497h-104l-82 296l-23 113h-4l-24 -113l-88 -296h-103l-140 497h105zM559 760v-13l-150 -164h-65l104 177h111z" />
    <glyph glyph-name="Wdieresis" unicode="&#x1e84;" horiz-adv-x="884" 
d="M120 659l103 -423l25 -157h5l26 157l111 423h106l111 -423l26 -157h5l26 157l101 423h105l-183 -659h-107l-116 442l-21 138h-5l-22 -138l-112 -442h-107l-183 659h106zM287 846q0 8 8 8h76q7 0 7 -8v-99q0 -7 -7 -7h-78q-6 0 -6 7v99zM492 846q0 8 8 8h76q7 0 7 -8v-99
q0 -7 -7 -7h-78q-6 0 -6 7v99z" />
    <glyph glyph-name="wdieresis" unicode="&#x1e85;" horiz-adv-x="751" 
d="M124 497l64 -274l24 -134h4l33 135l80 273h103l73 -273l32 -136h4l26 136l68 273h100l-148 -497h-104l-82 296l-23 113h-4l-24 -113l-88 -296h-103l-140 497h105zM230 689q0 8 8 8h76q7 0 7 -8v-99q0 -7 -7 -7h-78q-6 0 -6 7v99zM435 689q0 8 8 8h76q7 0 7 -8v-99
q0 -7 -7 -7h-78q-6 0 -6 7v99z" />
    <glyph glyph-name="uni1E9E" unicode="&#x1e9e;" horiz-adv-x="666" 
d="M323.5 80.5q19.5 -3.5 53.5 -3.5q66 0 98.5 34t32.5 92q0 49 -33 81.5t-96 32.5h-32l-25 45l166 186q-12 19 -40.5 31.5t-70.5 12.5q-87 0 -139.5 -60t-52.5 -166v-366h-102v371q0 93 37 161t104.5 104t157.5 36q66 0 113.5 -19.5t73.5 -46.5t35 -51l-169 -176
q91 -10 135.5 -60t44.5 -116q0 -60 -26.5 -107t-77.5 -74t-122 -27q-38 0 -61.5 4.5t-26.5 4.5v81q3 -1 22.5 -4.5z" />
    <glyph glyph-name="uni1EA0" unicode="&#x1ea0;" horiz-adv-x="616" 
d="M376 659l230 -659h-106l-60 179h-265l-60 -179h-105l234 659h132zM414 262l-71 214l-31 120h-4l-34 -120l-72 -214h212zM254 -88q0 8 6 8h96q7 0 7 -8v-96q0 -7 -7 -7h-96q-6 0 -6 7v96z" />
    <glyph glyph-name="uni1EA1" unicode="&#x1ea1;" horiz-adv-x="529" 
d="M295.5 23.5q-44.5 -32.5 -102.5 -32.5q-72 0 -111.5 37.5t-39.5 99.5q1 66 45.5 101t129.5 51q77 16 107 26t31 24v8q0 46 -24.5 69.5t-76.5 23.5q-44 0 -78 -21.5t-50 -54.5l-77 40q26 52 84 82.5t131 30.5q189 0 189 -179v-165q0 -136 28 -164h-101q-20 22 -23 108
q-17 -52 -61.5 -84.5zM355 280q-14 -23 -84 -40q-66 -16 -97 -39.5t-31 -62.5q0 -35 22 -54.5t55 -19.5q52 0 90 32.5t45 83.5v100zM212 -88q0 8 6 8h96q7 0 7 -8v-96q0 -7 -7 -7h-96q-6 0 -6 7v96z" />
    <glyph glyph-name="uni1EA2" unicode="&#x1ea2;" horiz-adv-x="616" 
d="M376 659l230 -659h-106l-60 179h-265l-60 -179h-105l234 659h132zM414 262l-71 214l-31 120h-4l-34 -120l-72 -214h212zM303 809l22 12q19 9 28 16t9 18q0 17 -13.5 26t-49.5 9q-31 0 -59 -12.5t-43 -27.5l-36 42q16 22 57 39.5t92 17.5q58 0 97 -22t39 -57
q0 -27 -17 -42.5t-49 -32.5q-18 -9 -21 -11q-13 -9 -19.5 -17.5t-6.5 -23.5v-3h-62v13q0 35 32 56z" />
    <glyph glyph-name="uni1EA3" unicode="&#x1ea3;" horiz-adv-x="529" 
d="M295.5 23.5q-44.5 -32.5 -102.5 -32.5q-72 0 -111.5 37.5t-39.5 99.5q1 66 45.5 101t129.5 51q77 16 107 26t31 24v8q0 46 -24.5 69.5t-76.5 23.5q-44 0 -78 -21.5t-50 -54.5l-77 40q26 52 84 82.5t131 30.5q189 0 189 -179v-165q0 -136 28 -164h-101q-20 22 -23 108
q-17 -52 -61.5 -84.5zM355 280q-14 -23 -84 -40q-66 -16 -97 -39.5t-31 -62.5q0 -35 22 -54.5t55 -19.5q52 0 90 32.5t45 83.5v100zM258 658l22 14q18 10 27.5 18.5t9.5 22.5q0 36 -66 36q-28 0 -52 -12.5t-37 -28.5l-37 41q17 22 55 40.5t86 18.5q60 0 96.5 -21.5
t36.5 -62.5q0 -30 -16 -46t-47 -33l-21 -12q-13 -9 -18.5 -17.5t-6.5 -25.5v-6h-62v17q0 36 30 57z" />
    <glyph glyph-name="uni1EA4" unicode="&#x1ea4;" horiz-adv-x="616" 
d="M376 659l230 -659h-106l-60 179h-265l-60 -179h-105l234 659h132zM414 262l-71 214l-31 120h-4l-34 -120l-72 -214h212zM455 866l59 143h94v-11l-106 -132h-47zM268 892h87l115 -146v-6h-86l-50 78l-20 36h-7l-21 -37l-50 -77h-85v6z" />
    <glyph glyph-name="uni1EA5" unicode="&#x1ea5;" horiz-adv-x="529" 
d="M295.5 23.5q-44.5 -32.5 -102.5 -32.5q-72 0 -111.5 37.5t-39.5 99.5q1 66 45.5 101t129.5 51q77 16 107 26t31 24v8q0 46 -24.5 69.5t-76.5 23.5q-44 0 -78 -21.5t-50 -54.5l-77 40q26 52 84 82.5t131 30.5q189 0 189 -179v-165q0 -136 28 -164h-101q-20 22 -23 108
q-17 -52 -61.5 -84.5zM355 280q-14 -23 -84 -40q-66 -16 -97 -39.5t-31 -62.5q0 -35 22 -54.5t55 -19.5q52 0 90 32.5t45 83.5v100zM410 709l62 148h94v-10l-108 -138h-48zM223 741h89l115 -152v-6h-87l-50 83l-20 37h-7l-21 -39l-51 -81h-86v6z" />
    <glyph glyph-name="uni1EA6" unicode="&#x1ea6;" horiz-adv-x="616" 
d="M376 659l230 -659h-106l-60 179h-265l-60 -179h-105l234 659h132zM414 262l-71 214l-31 120h-4l-34 -120l-72 -214h212zM12 1009h94l64 -143h-53l-105 132v11zM268 892h87l115 -146v-6h-86l-50 78l-20 36h-7l-21 -37l-50 -77h-85v6z" />
    <glyph glyph-name="uni1EA7" unicode="&#x1ea7;" horiz-adv-x="529" 
d="M295.5 23.5q-44.5 -32.5 -102.5 -32.5q-72 0 -111.5 37.5t-39.5 99.5q1 66 45.5 101t129.5 51q77 16 107 26t31 24v8q0 46 -24.5 69.5t-76.5 23.5q-44 0 -78 -21.5t-50 -54.5l-77 40q26 52 84 82.5t131 30.5q189 0 189 -179v-165q0 -136 28 -164h-101q-20 22 -23 108
q-17 -52 -61.5 -84.5zM355 280q-14 -23 -84 -40q-66 -16 -97 -39.5t-31 -62.5q0 -35 22 -54.5t55 -19.5q52 0 90 32.5t45 83.5v100zM-29 857h94l62 -148h-52l-104 138v10zM223 741h89l115 -152v-6h-87l-50 83l-20 37h-7l-21 -39l-51 -81h-86v6z" />
    <glyph glyph-name="uni1EA8" unicode="&#x1ea8;" horiz-adv-x="616" 
d="M376 659l230 -659h-106l-60 179h-265l-60 -179h-105l234 659h132zM414 262l-71 214l-31 120h-4l-34 -120l-72 -214h212zM468 928q7 4 12.5 7t9.5 5q15 7 23 14t8 18q0 32 -56 32q-31 0 -53 -11t-34 -25l-33 39q16 19 49.5 34.5t81.5 15.5q52 0 85 -19.5t33 -55.5
q0 -26 -15 -39.5t-34 -22.5t-27 -14q-12 -7 -17.5 -15t-6.5 -20v-3h-56v11q0 31 30 49zM268 892h87l115 -146v-6h-86l-50 78l-20 36h-7l-21 -37l-50 -77h-85v6z" />
    <glyph glyph-name="uni1EA9" unicode="&#x1ea9;" horiz-adv-x="529" 
d="M295.5 23.5q-44.5 -32.5 -102.5 -32.5q-72 0 -111.5 37.5t-39.5 99.5q1 66 45.5 101t129.5 51q77 16 107 26t31 24v8q0 46 -24.5 69.5t-76.5 23.5q-44 0 -78 -21.5t-50 -54.5l-77 40q26 52 84 82.5t131 30.5q189 0 189 -179v-165q0 -136 28 -164h-101q-20 22 -23 108
q-17 -52 -61.5 -84.5zM355 280q-14 -23 -84 -40q-66 -16 -97 -39.5t-31 -62.5q0 -35 22 -54.5t55 -19.5q52 0 90 32.5t45 83.5v100zM423 774q10 7 20 11q17 9 25 16t8 18q0 14 -13 23.5t-43 9.5t-51.5 -11t-34.5 -26l-33 39q16 19 49.5 34.5t79.5 15.5q53 0 86 -19t33 -56
q0 -26 -15 -40t-33.5 -23t-26.5 -14q-12 -9 -17.5 -16.5t-6.5 -19.5v-3h-56v11q0 32 29 50zM223 741h89l115 -152v-6h-87l-50 83l-20 37h-7l-21 -39l-51 -81h-86v6z" />
    <glyph glyph-name="uni1EAA" unicode="&#x1eaa;" horiz-adv-x="616" 
d="M376 659l230 -659h-106l-60 179h-265l-60 -179h-105l234 659h132zM414 262l-71 214l-31 120h-4l-34 -120l-72 -214h212zM240 1009q-12 -1 -17.5 -15.5t-9.5 -41.5l-2 -19h-56q0 6 1.5 17.5t2.5 17.5q5 48 29.5 70t63.5 22q32 0 50.5 -15t36.5 -42q11 -16 18 -23t16 -7h7
q21 0 27 55l2 20h56q0 -6 -1.5 -18t-2.5 -18q-11 -91 -92 -91q-35 0 -54 16t-36 43q-10 15 -16.5 22t-15.5 7h-7zM268 892h87l115 -146v-6h-86l-50 78l-20 36h-7l-21 -37l-50 -77h-85v6z" />
    <glyph glyph-name="uni1EAB" unicode="&#x1eab;" horiz-adv-x="529" 
d="M295.5 23.5q-44.5 -32.5 -102.5 -32.5q-72 0 -111.5 37.5t-39.5 99.5q1 66 45.5 101t129.5 51q77 16 107 26t31 24v8q0 46 -24.5 69.5t-76.5 23.5q-44 0 -78 -21.5t-50 -54.5l-77 40q26 52 84 82.5t131 30.5q189 0 189 -179v-165q0 -136 28 -164h-101q-20 22 -23 108
q-17 -52 -61.5 -84.5zM355 280q-14 -23 -84 -40q-66 -16 -97 -39.5t-31 -62.5q0 -35 22 -54.5t55 -19.5q52 0 90 32.5t45 83.5v100zM196 863q-12 -1 -17 -15.5t-8 -42.5l-3 -19h-57l4 36q6 48 30.5 70.5t62.5 22.5q32 0 50.5 -15.5t36.5 -42.5q11 -16 18 -23.5t16 -7.5h7
q12 1 17 15.5t8 40.5l2 22h57q0 -6 -1.5 -18.5t-2.5 -19.5q-6 -48 -30.5 -70t-61.5 -22q-35 0 -53.5 15.5t-35.5 43.5q-10 16 -16.5 23t-15.5 7h-7zM223 741h89l115 -152v-6h-87l-50 83l-20 37h-7l-21 -39l-51 -81h-86v6z" />
    <glyph glyph-name="uni1EAC" unicode="&#x1eac;" horiz-adv-x="616" 
d="M376 659l230 -659h-106l-60 179h-265l-60 -179h-105l234 659h132zM414 262l-71 214l-31 120h-4l-34 -120l-72 -214h212zM254 -88q0 8 6 8h96q7 0 7 -8v-96q0 -7 -7 -7h-96q-6 0 -6 7v96zM267 903h85l128 -155v-8h-90l-53 74l-24 41h-6l-24 -41l-53 -74h-90v8z" />
    <glyph glyph-name="uni1EAD" unicode="&#x1ead;" horiz-adv-x="529" 
d="M295.5 23.5q-44.5 -32.5 -102.5 -32.5q-72 0 -111.5 37.5t-39.5 99.5q1 66 45.5 101t129.5 51q77 16 107 26t31 24v8q0 46 -24.5 69.5t-76.5 23.5q-44 0 -78 -21.5t-50 -54.5l-77 40q26 52 84 82.5t131 30.5q189 0 189 -179v-165q0 -136 28 -164h-101q-20 22 -23 108
q-17 -52 -61.5 -84.5zM355 280q-14 -23 -84 -40q-66 -16 -97 -39.5t-31 -62.5q0 -35 22 -54.5t55 -19.5q52 0 90 32.5t45 83.5v100zM224 760h83l128 -169v-8h-90l-53 86l-24 43h-5l-25 -43l-53 -86h-88v8zM212 -88q0 8 6 8h96q7 0 7 -8v-96q0 -7 -7 -7h-96q-6 0 -6 7v96z
" />
    <glyph glyph-name="uni1EAE" unicode="&#x1eae;" horiz-adv-x="616" 
d="M376 659l230 -659h-106l-60 179h-265l-60 -179h-105l234 659h132zM414 262l-71 214l-31 120h-4l-34 -120l-72 -214h212zM444 1037v-10l-116 -142h-48l70 152h94zM223 872q-2 -36 22 -58.5t66 -22.5q40 0 64 22.5t22 58.5l73 -1q2 -59 -41 -99t-119 -40t-119 40t-41 99z
" />
    <glyph glyph-name="uni1EAF" unicode="&#x1eaf;" horiz-adv-x="529" 
d="M295.5 23.5q-44.5 -32.5 -102.5 -32.5q-72 0 -111.5 37.5t-39.5 99.5q1 66 45.5 101t129.5 51q77 16 107 26t31 24v8q0 46 -24.5 69.5t-76.5 23.5q-44 0 -78 -21.5t-50 -54.5l-77 40q26 52 84 82.5t131 30.5q189 0 189 -179v-165q0 -136 28 -164h-101q-20 22 -23 108
q-17 -52 -61.5 -84.5zM355 280q-14 -23 -84 -40q-66 -16 -97 -39.5t-31 -62.5q0 -35 22 -54.5t55 -19.5q52 0 90 32.5t45 83.5v100zM399 896v-11l-114 -148h-47l67 159h94zM179 724q-1 -38 22.5 -62t64.5 -24t64.5 23.5t21.5 62.5l74 -1q2 -65 -40 -105.5t-120 -40.5
t-120 40.5t-40 105.5z" />
    <glyph glyph-name="uni1EB0" unicode="&#x1eb0;" horiz-adv-x="616" 
d="M376 659l230 -659h-106l-60 179h-265l-60 -179h-105l234 659h132zM414 262l-71 214l-31 120h-4l-34 -120l-72 -214h212zM179 1037h94l70 -152h-53l-111 141v11zM223 872q-2 -36 22 -58.5t66 -22.5q40 0 64 22.5t22 58.5l73 -1q2 -59 -41 -99t-119 -40t-119 40t-41 99z
" />
    <glyph glyph-name="uni1EB1" unicode="&#x1eb1;" horiz-adv-x="529" 
d="M295.5 23.5q-44.5 -32.5 -102.5 -32.5q-72 0 -111.5 37.5t-39.5 99.5q1 66 45.5 101t129.5 51q77 16 107 26t31 24v8q0 46 -24.5 69.5t-76.5 23.5q-44 0 -78 -21.5t-50 -54.5l-77 40q26 52 84 82.5t131 30.5q189 0 189 -179v-165q0 -136 28 -164h-101q-20 22 -23 108
q-17 -52 -61.5 -84.5zM355 280q-14 -23 -84 -40q-66 -16 -97 -39.5t-31 -62.5q0 -35 22 -54.5t55 -19.5q52 0 90 32.5t45 83.5v100zM136 895h94l67 -159h-52l-109 148v11zM179 723q-1 -39 22 -62t65 -23t65 23t21 62h74q2 -65 -40 -105.5t-120 -40.5t-120 40.5t-40 105.5h73
z" />
    <glyph glyph-name="uni1EB2" unicode="&#x1eb2;" horiz-adv-x="616" 
d="M376 659l230 -659h-106l-60 179h-265l-60 -179h-105l234 659h132zM414 262l-71 214l-31 120h-4l-34 -120l-72 -214h212zM310 933q14 8 21 11q17 9 24.5 15t7.5 17q0 14 -13 23t-43 9q-31 0 -53.5 -11t-34.5 -25l-32 38q16 19 49 34t81 15q52 0 85 -19t33 -55
q0 -24 -15 -37.5t-33.5 -22.5t-26.5 -13q-13 -8 -18.5 -15.5t-5.5 -20.5v-1h-56v11q0 29 30 47zM223 872q-2 -36 22 -58.5t66 -22.5q40 0 64 22.5t22 58.5l73 -1q2 -59 -41 -99t-119 -40t-119 40t-41 99z" />
    <glyph glyph-name="uni1EB3" unicode="&#x1eb3;" horiz-adv-x="529" 
d="M295.5 23.5q-44.5 -32.5 -102.5 -32.5q-72 0 -111.5 37.5t-39.5 99.5q1 66 45.5 101t129.5 51q77 16 107 26t31 24v8q0 46 -24.5 69.5t-76.5 23.5q-44 0 -78 -21.5t-50 -54.5l-77 40q26 52 84 82.5t131 30.5q189 0 189 -179v-165q0 -136 28 -164h-101q-20 22 -23 108
q-17 -52 -61.5 -84.5zM355 280q-14 -23 -84 -40q-66 -16 -97 -39.5t-31 -62.5q0 -35 22 -54.5t55 -19.5q52 0 90 32.5t45 83.5v100zM265 786q3 2 19 10q17 9 25 16t8 18q0 32 -55 32q-30 0 -52 -10.5t-35 -25.5l-33 39q15 20 49 35t80 15q53 0 86 -19.5t33 -56.5
q0 -25 -14.5 -38.5t-40.5 -26.5l-9 -4.5t-11 -6.5q-12 -8 -17.5 -15.5t-6.5 -19.5v-3h-55v11q0 32 29 50zM179 723q-1 -39 22 -62t65 -23t65 23t21 62h74q2 -65 -40 -105.5t-120 -40.5t-120 40.5t-40 105.5h73z" />
    <glyph glyph-name="uni1EB4" unicode="&#x1eb4;" horiz-adv-x="616" 
d="M376 659l230 -659h-106l-60 179h-265l-60 -179h-105l234 659h132zM414 262l-71 214l-31 120h-4l-34 -120l-72 -214h212zM240 1004q-12 -1 -17.5 -15t-9.5 -40l-2 -20h-56q0 6 1.5 18t2.5 18q5 48 29.5 70t63.5 22q32 0 50.5 -15t36.5 -42q11 -16 18 -23.5t16 -7.5h7
q21 1 27 55l2 21h56q0 -6 -1.5 -18.5t-2.5 -18.5q-11 -90 -92 -90q-35 0 -54 15t-36 42q-10 15 -16.5 22t-15.5 7h-7zM223 871q-2 -35 22 -57.5t66 -22.5q40 0 64 22t22 58h73q2 -59 -41 -99t-119 -40t-119 40t-41 99h73z" />
    <glyph glyph-name="uni1EB5" unicode="&#x1eb5;" horiz-adv-x="529" 
d="M295.5 23.5q-44.5 -32.5 -102.5 -32.5q-72 0 -111.5 37.5t-39.5 99.5q1 66 45.5 101t129.5 51q77 16 107 26t31 24v8q0 46 -24.5 69.5t-76.5 23.5q-44 0 -78 -21.5t-50 -54.5l-77 40q26 52 84 82.5t131 30.5q189 0 189 -179v-165q0 -136 28 -164h-101q-20 22 -23 108
q-17 -52 -61.5 -84.5zM355 280q-14 -23 -84 -40q-66 -16 -97 -39.5t-31 -62.5q0 -35 22 -54.5t55 -19.5q52 0 90 32.5t45 83.5v100zM196 860q-12 -1 -17 -15.5t-8 -41.5l-3 -20h-57l4 36q6 49 30.5 71.5t62.5 22.5q32 0 50.5 -15.5t36.5 -43.5q11 -16 18 -23.5t16 -7.5h7
q12 1 17 15.5t8 40.5l2 22h57q0 -6 -1.5 -18.5t-2.5 -18.5q-6 -49 -30.5 -71t-61.5 -22q-35 0 -53.5 15.5t-35.5 43.5q-10 16 -16.5 23t-15.5 7h-7zM179 724q-1 -38 22.5 -62t64.5 -24t64.5 23.5t21.5 62.5l74 -1q2 -65 -40 -105.5t-120 -40.5t-120 40.5t-40 105.5z" />
    <glyph glyph-name="uni1EB6" unicode="&#x1eb6;" horiz-adv-x="616" 
d="M376 659l230 -659h-106l-60 179h-265l-60 -179h-105l234 659h132zM414 262l-71 214l-31 120h-4l-34 -120l-72 -214h212zM224 883q-1 -37 21 -62t65 -25t64.5 24.5t21.5 62.5l79 -1q2 -64 -41 -107t-124 -43t-124 43t-41 107zM254 -88q0 8 6 8h96q7 0 7 -8v-96q0 -7 -7 -7
h-96q-6 0 -6 7v96z" />
    <glyph glyph-name="uni1EB7" unicode="&#x1eb7;" horiz-adv-x="529" 
d="M295.5 23.5q-44.5 -32.5 -102.5 -32.5q-72 0 -111.5 37.5t-39.5 99.5q1 66 45.5 101t129.5 51q77 16 107 26t31 24v8q0 46 -24.5 69.5t-76.5 23.5q-44 0 -78 -21.5t-50 -54.5l-77 40q26 52 84 82.5t131 30.5q189 0 189 -179v-165q0 -136 28 -164h-101q-20 22 -23 108
q-17 -52 -61.5 -84.5zM355 280q-14 -23 -84 -40q-66 -16 -97 -39.5t-31 -62.5q0 -35 22 -54.5t55 -19.5q52 0 90 32.5t45 83.5v100zM183 744q-1 -46 19.5 -74t63.5 -28t63 27t20 75h79q2 -75 -40 -121t-122 -46t-122 46t-40 121h79zM212 -88q0 8 6 8h96q7 0 7 -8v-96
q0 -7 -7 -7h-96q-6 0 -6 7v96z" />
    <glyph glyph-name="uni1EB8" unicode="&#x1eb8;" horiz-adv-x="580" 
d="M527 659v-88h-333v-188h236v-86h-236v-210h346v-87h-446v659h433zM273 -88q0 8 6 8h96q7 0 7 -8v-96q0 -7 -7 -7h-96q-6 0 -6 7v96z" />
    <glyph glyph-name="uni1EB9" unicode="&#x1eb9;" horiz-adv-x="537" 
d="M108.5 439.5q62.5 70.5 170.5 70.5q110 0 162.5 -66.5t51.5 -178.5l-1 -37h-347q5 -82 42.5 -122t99.5 -40q42 0 74.5 18t48.5 48l67 -47q-68 -96 -196 -96q-112 0 -173.5 68t-61.5 189q0 123 62.5 193.5zM391 293v4q0 138 -115 138q-54 0 -88.5 -34.5t-39.5 -107.5h243z
M220 -88q0 8 6 8h96q7 0 7 -8v-96q0 -7 -7 -7h-96q-6 0 -6 7v96z" />
    <glyph glyph-name="uni1EBA" unicode="&#x1eba;" horiz-adv-x="580" 
d="M527 659v-88h-333v-188h236v-86h-236v-210h346v-87h-446v659h433zM320 809l22 12q19 9 28 16t9 18q0 17 -13.5 26t-49.5 9q-31 0 -59 -12.5t-43 -27.5l-36 42q16 22 57 39.5t92 17.5q58 0 97 -22t39 -57q0 -27 -17 -42.5t-49 -32.5q-18 -9 -21 -11q-13 -9 -19.5 -17.5
t-6.5 -23.5v-3h-62v13q0 35 32 56z" />
    <glyph glyph-name="uni1EBB" unicode="&#x1ebb;" horiz-adv-x="537" 
d="M108.5 439.5q62.5 70.5 170.5 70.5q110 0 162.5 -66.5t51.5 -178.5l-1 -37h-347q5 -82 42.5 -122t99.5 -40q42 0 74.5 18t48.5 48l67 -47q-68 -96 -196 -96q-112 0 -173.5 68t-61.5 189q0 123 62.5 193.5zM391 293v4q0 138 -115 138q-54 0 -88.5 -34.5t-39.5 -107.5h243z
M273 658l22 14q18 10 27.5 18.5t9.5 22.5q0 36 -66 36q-28 0 -52 -12.5t-37 -28.5l-37 41q17 22 55 40.5t86 18.5q60 0 96.5 -21.5t36.5 -62.5q0 -30 -16 -46t-47 -33l-21 -12q-13 -9 -18.5 -17.5t-6.5 -25.5v-6h-62v17q0 36 30 57z" />
    <glyph glyph-name="uni1EBC" unicode="&#x1ebc;" horiz-adv-x="580" 
d="M527 659v-88h-333v-188h236v-86h-236v-210h346v-87h-446v659h433zM251 835q-26 0 -34 -67l-2 -24h-66q1 7 2.5 21t2.5 21q7 57 36 83.5t72 26.5q38 0 59 -18.5t40 -50.5q12 -18 19.5 -26.5t17.5 -8.5h6q16 0 23 18t11 48q1 4 2 12.5t1 12.5h66l-4 -42q-15 -109 -109 -109
q-38 0 -59 18.5t-40 49.5q-12 18 -19.5 26.5t-17.5 8.5h-7z" />
    <glyph glyph-name="uni1EBD" unicode="&#x1ebd;" horiz-adv-x="537" 
d="M108.5 439.5q62.5 70.5 170.5 70.5q110 0 162.5 -66.5t51.5 -178.5l-1 -37h-347q5 -82 42.5 -122t99.5 -40q42 0 74.5 18t48.5 48l67 -47q-68 -96 -196 -96q-112 0 -173.5 68t-61.5 189q0 123 62.5 193.5zM391 293v4q0 138 -115 138q-54 0 -88.5 -34.5t-39.5 -107.5h243z
M205 681q-26 0 -34 -67l-2 -23h-66l5 40q7 58 35.5 84.5t72.5 26.5q37 0 58 -18.5t40 -50.5q12 -18 19.5 -26.5t16.5 -8.5h7q26 0 34 66l2 25h66l-5 -42q-7 -57 -36 -83t-69 -26t-61 18.5t-40 50.5q-12 18 -19 26t-17 8h-7z" />
    <glyph glyph-name="uni1EBE" unicode="&#x1ebe;" horiz-adv-x="580" 
d="M527 659v-88h-333v-188h236v-86h-236v-210h346v-87h-446v659h433zM472 866l59 143h94v-11l-106 -132h-47zM285 892h87l115 -146v-6h-86l-50 78l-20 36h-7l-21 -37l-50 -77h-85v6z" />
    <glyph glyph-name="uni1EBF" unicode="&#x1ebf;" horiz-adv-x="537" 
d="M108.5 439.5q62.5 70.5 170.5 70.5q110 0 162.5 -66.5t51.5 -178.5l-1 -37h-347q5 -82 42.5 -122t99.5 -40q42 0 74.5 18t48.5 48l67 -47q-68 -96 -196 -96q-112 0 -173.5 68t-61.5 189q0 123 62.5 193.5zM391 293v4q0 138 -115 138q-54 0 -88.5 -34.5t-39.5 -107.5h243z
M425 709l62 148h94v-10l-108 -138h-48zM238 741h89l115 -152v-6h-87l-50 83l-20 37h-7l-21 -39l-51 -81h-86v6z" />
    <glyph glyph-name="uni1EC0" unicode="&#x1ec0;" horiz-adv-x="580" 
d="M527 659v-88h-333v-188h236v-86h-236v-210h346v-87h-446v659h433zM29 1009h94l64 -143h-53l-105 132v11zM285 892h87l115 -146v-6h-86l-50 78l-20 36h-7l-21 -37l-50 -77h-85v6z" />
    <glyph glyph-name="uni1EC1" unicode="&#x1ec1;" horiz-adv-x="537" 
d="M108.5 439.5q62.5 70.5 170.5 70.5q110 0 162.5 -66.5t51.5 -178.5l-1 -37h-347q5 -82 42.5 -122t99.5 -40q42 0 74.5 18t48.5 48l67 -47q-68 -96 -196 -96q-112 0 -173.5 68t-61.5 189q0 123 62.5 193.5zM391 293v4q0 138 -115 138q-54 0 -88.5 -34.5t-39.5 -107.5h243z
M-14 857h94l62 -148h-52l-104 138v10zM238 741h89l115 -152v-6h-87l-50 83l-20 37h-7l-21 -39l-51 -81h-86v6z" />
    <glyph glyph-name="uni1EC2" unicode="&#x1ec2;" horiz-adv-x="580" 
d="M527 659v-88h-333v-188h236v-86h-236v-210h346v-87h-446v659h433zM485 928q7 4 12.5 7t9.5 5q15 7 23 14t8 18q0 32 -56 32q-31 0 -53 -11t-34 -25l-33 39q16 19 49.5 34.5t81.5 15.5q52 0 85 -19.5t33 -55.5q0 -26 -15 -39.5t-34 -22.5t-27 -14q-12 -7 -17.5 -15
t-6.5 -20v-3h-56v11q0 31 30 49zM285 892h87l115 -146v-6h-86l-50 78l-20 36h-7l-21 -37l-50 -77h-85v6z" />
    <glyph glyph-name="uni1EC3" unicode="&#x1ec3;" horiz-adv-x="537" 
d="M108.5 439.5q62.5 70.5 170.5 70.5q110 0 162.5 -66.5t51.5 -178.5l-1 -37h-347q5 -82 42.5 -122t99.5 -40q42 0 74.5 18t48.5 48l67 -47q-68 -96 -196 -96q-112 0 -173.5 68t-61.5 189q0 123 62.5 193.5zM391 293v4q0 138 -115 138q-54 0 -88.5 -34.5t-39.5 -107.5h243z
M438 774q10 7 20 11q17 9 25 16t8 18q0 14 -13 23.5t-43 9.5t-51.5 -11t-34.5 -26l-33 39q16 19 49.5 34.5t79.5 15.5q53 0 86 -19t33 -56q0 -26 -15 -40t-33.5 -23t-26.5 -14q-12 -9 -17.5 -16.5t-6.5 -19.5v-3h-56v11q0 32 29 50zM238 741h89l115 -152v-6h-87l-50 83
l-20 37h-7l-21 -39l-51 -81h-86v6z" />
    <glyph glyph-name="uni1EC4" unicode="&#x1ec4;" horiz-adv-x="580" 
d="M527 659v-88h-333v-188h236v-86h-236v-210h346v-87h-446v659h433zM257 1009q-12 -1 -17.5 -15.5t-9.5 -41.5l-2 -19h-56q0 6 1.5 17.5t2.5 17.5q5 48 29.5 70t63.5 22q32 0 50.5 -15t36.5 -42q11 -16 18 -23t16 -7h7q21 0 27 55l2 20h56q0 -6 -1.5 -18t-2.5 -18
q-11 -91 -92 -91q-35 0 -54 16t-36 43q-10 15 -16.5 22t-15.5 7h-7zM285 892h87l115 -146v-6h-86l-50 78l-20 36h-7l-21 -37l-50 -77h-85v6z" />
    <glyph glyph-name="uni1EC5" unicode="&#x1ec5;" horiz-adv-x="537" 
d="M108.5 439.5q62.5 70.5 170.5 70.5q110 0 162.5 -66.5t51.5 -178.5l-1 -37h-347q5 -82 42.5 -122t99.5 -40q42 0 74.5 18t48.5 48l67 -47q-68 -96 -196 -96q-112 0 -173.5 68t-61.5 189q0 123 62.5 193.5zM391 293v4q0 138 -115 138q-54 0 -88.5 -34.5t-39.5 -107.5h243z
M211 863q-12 -1 -17 -15.5t-8 -42.5l-3 -19h-57l4 36q6 48 30.5 70.5t62.5 22.5q32 0 50.5 -15.5t36.5 -42.5q11 -16 18 -23.5t16 -7.5h7q12 1 17 15.5t8 40.5l2 22h57q0 -6 -1.5 -18.5t-2.5 -19.5q-6 -48 -30.5 -70t-61.5 -22q-35 0 -53.5 15.5t-35.5 43.5q-10 16 -16.5 23
t-15.5 7h-7zM238 741h89l115 -152v-6h-87l-50 83l-20 37h-7l-21 -39l-51 -81h-86v6z" />
    <glyph glyph-name="uni1EC6" unicode="&#x1ec6;" horiz-adv-x="580" 
d="M527 659v-88h-333v-188h236v-86h-236v-210h346v-87h-446v659h433zM273 -88q0 8 6 8h96q7 0 7 -8v-96q0 -7 -7 -7h-96q-6 0 -6 7v96zM284 903h85l128 -155v-8h-90l-53 74l-24 41h-6l-24 -41l-53 -74h-90v8z" />
    <glyph glyph-name="uni1EC7" unicode="&#x1ec7;" horiz-adv-x="537" 
d="M108.5 439.5q62.5 70.5 170.5 70.5q110 0 162.5 -66.5t51.5 -178.5l-1 -37h-347q5 -82 42.5 -122t99.5 -40q42 0 74.5 18t48.5 48l67 -47q-68 -96 -196 -96q-112 0 -173.5 68t-61.5 189q0 123 62.5 193.5zM391 293v4q0 138 -115 138q-54 0 -88.5 -34.5t-39.5 -107.5h243z
M239 760h83l128 -169v-8h-90l-53 86l-24 43h-5l-25 -43l-53 -86h-88v8zM220 -88q0 8 6 8h96q7 0 7 -8v-96q0 -7 -7 -7h-96q-6 0 -6 7v96z" />
    <glyph glyph-name="uni1EC8" unicode="&#x1ec8;" horiz-adv-x="294" 
d="M198 659v-659h-102v659h102zM139 809l22 12q19 9 28 16t9 18q0 17 -13.5 26t-49.5 9q-31 0 -59 -12.5t-43 -27.5l-36 42q16 22 57 39.5t92 17.5q58 0 97 -22t39 -57q0 -27 -17 -42.5t-49 -32.5q-18 -9 -21 -11q-13 -9 -19.5 -17.5t-6.5 -23.5v-3h-62v13q0 35 32 56z" />
    <glyph glyph-name="uni1EC9" unicode="&#x1ec9;" horiz-adv-x="262" 
d="M180 497v-497h-98v497h98zM123 658l22 14q18 10 27.5 18.5t9.5 22.5q0 36 -66 36q-28 0 -52 -12.5t-37 -28.5l-37 41q17 22 55 40.5t86 18.5q60 0 96.5 -21.5t36.5 -62.5q0 -30 -16 -46t-47 -33l-21 -12q-13 -9 -18.5 -17.5t-6.5 -25.5v-6h-62v17q0 36 30 57z" />
    <glyph glyph-name="uni1ECA" unicode="&#x1eca;" horiz-adv-x="294" 
d="M198 659v-659h-102v659h102zM92 -88q0 8 6 8h96q7 0 7 -8v-96q0 -7 -7 -7h-96q-6 0 -6 7v96z" />
    <glyph glyph-name="uni1ECB" unicode="&#x1ecb;" horiz-adv-x="262" 
d="M180 497v-497h-98v497h98zM76 689q0 8 8 8h95q7 0 7 -8v-99q0 -7 -7 -7h-97q-6 0 -6 7v99zM77 -88q0 8 6 8h96q7 0 7 -8v-96q0 -7 -7 -7h-96q-6 0 -6 7v96z" />
    <glyph glyph-name="uni1ECC" unicode="&#x1ecc;" horiz-adv-x="713" 
d="M87.5 510q36.5 77 106 119.5t166.5 42.5q94 0 162 -42.5t104 -120t36 -180.5q0 -104 -37 -181t-107.5 -118.5t-166.5 -41.5q-94 0 -161.5 41.5t-103 118t-35.5 181.5q0 104 36.5 181zM556 331q0 122 -52.5 190t-147.5 68q-96 0 -149 -68t-53 -190v-3q0 -121 53 -189.5
t148 -68.5q96 0 148.5 67.5t52.5 191.5v2zM302 -88q0 8 6 8h96q7 0 7 -8v-96q0 -7 -7 -7h-96q-6 0 -6 7v96z" />
    <glyph glyph-name="uni1ECD" unicode="&#x1ecd;" horiz-adv-x="569" 
d="M72.5 382.5q29.5 59.5 85 93.5t131.5 34q113 0 175 -69.5t62 -187.5q0 -76 -30 -136t-85 -94t-129 -34q-115 0 -177 69.5t-62 190.5q0 74 29.5 133.5zM387.5 384.5q-35.5 49.5 -100.5 49.5q-67 0 -103.5 -49.5t-36.5 -133.5q0 -85 36 -135.5t101 -50.5q66 0 102.5 50.5
t36.5 135.5q0 84 -35.5 133.5zM231 -88q0 8 6 8h96q7 0 7 -8v-96q0 -7 -7 -7h-96q-6 0 -6 7v96z" />
    <glyph glyph-name="uni1ECE" unicode="&#x1ece;" horiz-adv-x="713" 
d="M87.5 510q36.5 77 106 119.5t166.5 42.5q94 0 162 -42.5t104 -120t36 -180.5q0 -104 -37 -181t-107.5 -118.5t-166.5 -41.5q-94 0 -161.5 41.5t-103 118t-35.5 181.5q0 104 36.5 181zM556 331q0 122 -52.5 190t-147.5 68q-96 0 -149 -68t-53 -190v-3q0 -121 53 -189.5
t148 -68.5q96 0 148.5 67.5t52.5 191.5v2zM349 809l22 12q19 9 28 16t9 18q0 17 -13.5 26t-49.5 9q-31 0 -59 -12.5t-43 -27.5l-36 42q16 22 57 39.5t92 17.5q58 0 97 -22t39 -57q0 -27 -17 -42.5t-49 -32.5q-18 -9 -21 -11q-13 -9 -19.5 -17.5t-6.5 -23.5v-3h-62v13
q0 35 32 56z" />
    <glyph glyph-name="uni1ECF" unicode="&#x1ecf;" horiz-adv-x="569" 
d="M72.5 382.5q29.5 59.5 85 93.5t131.5 34q113 0 175 -69.5t62 -187.5q0 -76 -30 -136t-85 -94t-129 -34q-115 0 -177 69.5t-62 190.5q0 74 29.5 133.5zM387.5 384.5q-35.5 49.5 -100.5 49.5q-67 0 -103.5 -49.5t-36.5 -133.5q0 -85 36 -135.5t101 -50.5q66 0 102.5 50.5
t36.5 135.5q0 84 -35.5 133.5zM279 658l22 14q18 10 27.5 18.5t9.5 22.5q0 36 -66 36q-28 0 -52 -12.5t-37 -28.5l-37 41q17 22 55 40.5t86 18.5q60 0 96.5 -21.5t36.5 -62.5q0 -30 -16 -46t-47 -33l-21 -12q-13 -9 -18.5 -17.5t-6.5 -25.5v-6h-62v17q0 36 30 57z" />
    <glyph glyph-name="uni1ED0" unicode="&#x1ed0;" horiz-adv-x="713" 
d="M87.5 510q36.5 77 106 119.5t166.5 42.5q94 0 162 -42.5t104 -120t36 -180.5q0 -104 -37 -181t-107.5 -118.5t-166.5 -41.5q-94 0 -161.5 41.5t-103 118t-35.5 181.5q0 104 36.5 181zM556 331q0 122 -52.5 190t-147.5 68q-96 0 -149 -68t-53 -190v-3q0 -121 53 -189.5
t148 -68.5q96 0 148.5 67.5t52.5 191.5v2zM501 866l59 143h94v-11l-106 -132h-47zM314 892h87l115 -146v-6h-86l-50 78l-20 36h-7l-21 -37l-50 -77h-85v6z" />
    <glyph glyph-name="uni1ED1" unicode="&#x1ed1;" horiz-adv-x="569" 
d="M72.5 382.5q29.5 59.5 85 93.5t131.5 34q113 0 175 -69.5t62 -187.5q0 -76 -30 -136t-85 -94t-129 -34q-115 0 -177 69.5t-62 190.5q0 74 29.5 133.5zM387.5 384.5q-35.5 49.5 -100.5 49.5q-67 0 -103.5 -49.5t-36.5 -133.5q0 -85 36 -135.5t101 -50.5q66 0 102.5 50.5
t36.5 135.5q0 84 -35.5 133.5zM431 709l62 148h94v-10l-108 -138h-48zM244 741h89l115 -152v-6h-87l-50 83l-20 37h-7l-21 -39l-51 -81h-86v6z" />
    <glyph glyph-name="uni1ED2" unicode="&#x1ed2;" horiz-adv-x="713" 
d="M87.5 510q36.5 77 106 119.5t166.5 42.5q94 0 162 -42.5t104 -120t36 -180.5q0 -104 -37 -181t-107.5 -118.5t-166.5 -41.5q-94 0 -161.5 41.5t-103 118t-35.5 181.5q0 104 36.5 181zM556 331q0 122 -52.5 190t-147.5 68q-96 0 -149 -68t-53 -190v-3q0 -121 53 -189.5
t148 -68.5q96 0 148.5 67.5t52.5 191.5v2zM58 1009h94l64 -143h-53l-105 132v11zM314 892h87l115 -146v-6h-86l-50 78l-20 36h-7l-21 -37l-50 -77h-85v6z" />
    <glyph glyph-name="uni1ED3" unicode="&#x1ed3;" horiz-adv-x="569" 
d="M72.5 382.5q29.5 59.5 85 93.5t131.5 34q113 0 175 -69.5t62 -187.5q0 -76 -30 -136t-85 -94t-129 -34q-115 0 -177 69.5t-62 190.5q0 74 29.5 133.5zM387.5 384.5q-35.5 49.5 -100.5 49.5q-67 0 -103.5 -49.5t-36.5 -133.5q0 -85 36 -135.5t101 -50.5q66 0 102.5 50.5
t36.5 135.5q0 84 -35.5 133.5zM-8 857h94l62 -148h-52l-104 138v10zM244 741h89l115 -152v-6h-87l-50 83l-20 37h-7l-21 -39l-51 -81h-86v6z" />
    <glyph glyph-name="uni1ED4" unicode="&#x1ed4;" horiz-adv-x="713" 
d="M87.5 510q36.5 77 106 119.5t166.5 42.5q94 0 162 -42.5t104 -120t36 -180.5q0 -104 -37 -181t-107.5 -118.5t-166.5 -41.5q-94 0 -161.5 41.5t-103 118t-35.5 181.5q0 104 36.5 181zM556 331q0 122 -52.5 190t-147.5 68q-96 0 -149 -68t-53 -190v-3q0 -121 53 -189.5
t148 -68.5q96 0 148.5 67.5t52.5 191.5v2zM514 928q7 4 12.5 7t9.5 5q15 7 23 14t8 18q0 32 -56 32q-31 0 -53 -11t-34 -25l-33 39q16 19 49.5 34.5t81.5 15.5q52 0 85 -19.5t33 -55.5q0 -26 -15 -39.5t-34 -22.5t-27 -14q-12 -7 -17.5 -15t-6.5 -20v-3h-56v11q0 31 30 49z
M314 892h87l115 -146v-6h-86l-50 78l-20 36h-7l-21 -37l-50 -77h-85v6z" />
    <glyph glyph-name="uni1ED5" unicode="&#x1ed5;" horiz-adv-x="569" 
d="M72.5 382.5q29.5 59.5 85 93.5t131.5 34q113 0 175 -69.5t62 -187.5q0 -76 -30 -136t-85 -94t-129 -34q-115 0 -177 69.5t-62 190.5q0 74 29.5 133.5zM387.5 384.5q-35.5 49.5 -100.5 49.5q-67 0 -103.5 -49.5t-36.5 -133.5q0 -85 36 -135.5t101 -50.5q66 0 102.5 50.5
t36.5 135.5q0 84 -35.5 133.5zM444 774q10 7 20 11q17 9 25 16t8 18q0 14 -13 23.5t-43 9.5t-51.5 -11t-34.5 -26l-33 39q16 19 49.5 34.5t79.5 15.5q53 0 86 -19t33 -56q0 -26 -15 -40t-33.5 -23t-26.5 -14q-12 -9 -17.5 -16.5t-6.5 -19.5v-3h-56v11q0 32 29 50zM244 741
h89l115 -152v-6h-87l-50 83l-20 37h-7l-21 -39l-51 -81h-86v6z" />
    <glyph glyph-name="uni1ED6" unicode="&#x1ed6;" horiz-adv-x="713" 
d="M87.5 510q36.5 77 106 119.5t166.5 42.5q94 0 162 -42.5t104 -120t36 -180.5q0 -104 -37 -181t-107.5 -118.5t-166.5 -41.5q-94 0 -161.5 41.5t-103 118t-35.5 181.5q0 104 36.5 181zM556 331q0 122 -52.5 190t-147.5 68q-96 0 -149 -68t-53 -190v-3q0 -121 53 -189.5
t148 -68.5q96 0 148.5 67.5t52.5 191.5v2zM286 1009q-12 -1 -17.5 -15.5t-9.5 -41.5l-2 -19h-56q0 6 1.5 17.5t2.5 17.5q5 48 29.5 70t63.5 22q32 0 50.5 -15t36.5 -42q11 -16 18 -23t16 -7h7q21 0 27 55l2 20h56q0 -6 -1.5 -18t-2.5 -18q-11 -91 -92 -91q-35 0 -54 16
t-36 43q-10 15 -16.5 22t-15.5 7h-7zM314 892h87l115 -146v-6h-86l-50 78l-20 36h-7l-21 -37l-50 -77h-85v6z" />
    <glyph glyph-name="uni1ED7" unicode="&#x1ed7;" horiz-adv-x="569" 
d="M72.5 382.5q29.5 59.5 85 93.5t131.5 34q113 0 175 -69.5t62 -187.5q0 -76 -30 -136t-85 -94t-129 -34q-115 0 -177 69.5t-62 190.5q0 74 29.5 133.5zM387.5 384.5q-35.5 49.5 -100.5 49.5q-67 0 -103.5 -49.5t-36.5 -133.5q0 -85 36 -135.5t101 -50.5q66 0 102.5 50.5
t36.5 135.5q0 84 -35.5 133.5zM217 863q-12 -1 -17 -15.5t-8 -42.5l-3 -19h-57l4 36q6 48 30.5 70.5t62.5 22.5q32 0 50.5 -15.5t36.5 -42.5q11 -16 18 -23.5t16 -7.5h7q12 1 17 15.5t8 40.5l2 22h57q0 -6 -1.5 -18.5t-2.5 -19.5q-6 -48 -30.5 -70t-61.5 -22
q-35 0 -53.5 15.5t-35.5 43.5q-10 16 -16.5 23t-15.5 7h-7zM244 741h89l115 -152v-6h-87l-50 83l-20 37h-7l-21 -39l-51 -81h-86v6z" />
    <glyph glyph-name="uni1ED8" unicode="&#x1ed8;" horiz-adv-x="713" 
d="M87.5 510q36.5 77 106 119.5t166.5 42.5q94 0 162 -42.5t104 -120t36 -180.5q0 -104 -37 -181t-107.5 -118.5t-166.5 -41.5q-94 0 -161.5 41.5t-103 118t-35.5 181.5q0 104 36.5 181zM556 331q0 122 -52.5 190t-147.5 68q-96 0 -149 -68t-53 -190v-3q0 -121 53 -189.5
t148 -68.5q96 0 148.5 67.5t52.5 191.5v2zM313 903h85l128 -155v-8h-90l-53 74l-24 41h-6l-24 -41l-53 -74h-90v8zM302 -88q0 8 6 8h96q7 0 7 -8v-96q0 -7 -7 -7h-96q-6 0 -6 7v96z" />
    <glyph glyph-name="uni1ED9" unicode="&#x1ed9;" horiz-adv-x="569" 
d="M72.5 382.5q29.5 59.5 85 93.5t131.5 34q113 0 175 -69.5t62 -187.5q0 -76 -30 -136t-85 -94t-129 -34q-115 0 -177 69.5t-62 190.5q0 74 29.5 133.5zM387.5 384.5q-35.5 49.5 -100.5 49.5q-67 0 -103.5 -49.5t-36.5 -133.5q0 -85 36 -135.5t101 -50.5q66 0 102.5 50.5
t36.5 135.5q0 84 -35.5 133.5zM245 760h83l128 -169v-8h-90l-53 86l-24 43h-5l-25 -43l-53 -86h-88v8zM231 -88q0 8 6 8h96q7 0 7 -8v-96q0 -7 -7 -7h-96q-6 0 -6 7v96z" />
    <glyph glyph-name="uni1EDA" unicode="&#x1eda;" horiz-adv-x="743" 
d="M87.5 510q36.5 77 105.5 119.5t166 42.5q80 0 142 -31.5t101 -89.5q31 16 46 41.5t15 54.5q0 51 -43 86l67 37q27 -16 42.5 -43.5t15.5 -63.5q0 -47 -28 -91t-92 -62q37 -79 37 -181q0 -104 -36.5 -181t-106 -118.5t-166.5 -41.5q-94 0 -162 41.5t-104 118t-36 181.5
q0 104 36.5 181zM556 331q0 122 -52.5 190t-147.5 68t-148.5 -68t-53.5 -190v-3q0 -121 53 -189.5t148 -68.5q97 0 149 67.5t52 191.5v2zM539 905v-12l-154 -155h-66l106 167h114z" />
    <glyph glyph-name="uni1EDB" unicode="&#x1edb;" horiz-adv-x="646" 
d="M74.5 383.5q30.5 59.5 87 93.5t133.5 34q75 0 128.5 -31t82.5 -87q32 16 47.5 42t15.5 56q0 53 -44 88l67 37q27 -16 43 -45t16 -65q0 -50 -31 -94.5t-98 -60.5q14 -47 14 -98q0 -75 -30.5 -135.5t-87.5 -94.5t-131 -34q-117 0 -180 70t-63 191q0 74 30.5 133.5z
M395.5 385.5q-35.5 49.5 -102.5 49.5q-69 0 -106.5 -49.5t-37.5 -133.5q0 -85 36 -136t103 -51q68 0 105.5 50.5t37.5 135.5t-35.5 134.5zM473 765v-13l-150 -164h-65l104 177h111z" />
    <glyph glyph-name="uni1EDC" unicode="&#x1edc;" horiz-adv-x="743" 
d="M87.5 510q36.5 77 105.5 119.5t166 42.5q80 0 142 -31.5t101 -89.5q31 16 46 41.5t15 54.5q0 51 -43 86l67 37q27 -16 42.5 -43.5t15.5 -63.5q0 -47 -28 -91t-92 -62q37 -79 37 -181q0 -104 -36.5 -181t-106 -118.5t-166.5 -41.5q-94 0 -162 41.5t-104 118t-36 181.5
q0 104 36.5 181zM556 331q0 122 -52.5 190t-147.5 68t-148.5 -68t-53.5 -190v-3q0 -121 53 -189.5t148 -68.5q97 0 149 67.5t52 191.5v2zM165 905h114l110 -167h-66l-158 155v12z" />
    <glyph glyph-name="uni1EDD" unicode="&#x1edd;" horiz-adv-x="646" 
d="M74.5 383.5q30.5 59.5 87 93.5t133.5 34q75 0 128.5 -31t82.5 -87q32 16 47.5 42t15.5 56q0 53 -44 88l67 37q27 -16 43 -45t16 -65q0 -50 -31 -94.5t-98 -60.5q14 -47 14 -98q0 -75 -30.5 -135.5t-87.5 -94.5t-131 -34q-117 0 -180 70t-63 191q0 74 30.5 133.5z
M395.5 385.5q-35.5 49.5 -102.5 49.5q-69 0 -106.5 -49.5t-37.5 -133.5q0 -85 36 -136t103 -51q68 0 105.5 50.5t37.5 135.5t-35.5 134.5zM111 765h111l104 -177h-65l-150 164v13z" />
    <glyph glyph-name="uni1EDE" unicode="&#x1ede;" horiz-adv-x="743" 
d="M87.5 510q36.5 77 105.5 119.5t166 42.5q80 0 142 -31.5t101 -89.5q31 16 46 41.5t15 54.5q0 51 -43 86l67 37q27 -16 42.5 -43.5t15.5 -63.5q0 -47 -28 -91t-92 -62q37 -79 37 -181q0 -104 -36.5 -181t-106 -118.5t-166.5 -41.5q-94 0 -162 41.5t-104 118t-36 181.5
q0 104 36.5 181zM556 331q0 122 -52.5 190t-147.5 68t-148.5 -68t-53.5 -190v-3q0 -121 53 -189.5t148 -68.5q97 0 149 67.5t52 191.5v2zM348 809l22 12q19 9 28 16t9 18q0 17 -13.5 26t-49.5 9q-31 0 -59 -12.5t-43 -27.5l-36 42q16 22 57 39.5t92 17.5q58 0 97 -22t39 -57
q0 -27 -17 -42.5t-49 -32.5q-18 -9 -21 -11q-13 -9 -19.5 -17.5t-6.5 -23.5v-3h-62v13q0 35 32 56z" />
    <glyph glyph-name="uni1EDF" unicode="&#x1edf;" horiz-adv-x="646" 
d="M74.5 383.5q30.5 59.5 87 93.5t133.5 34q75 0 128.5 -31t82.5 -87q32 16 47.5 42t15.5 56q0 53 -44 88l67 37q27 -16 43 -45t16 -65q0 -50 -31 -94.5t-98 -60.5q14 -47 14 -98q0 -75 -30.5 -135.5t-87.5 -94.5t-131 -34q-117 0 -180 70t-63 191q0 74 30.5 133.5z
M395.5 385.5q-35.5 49.5 -102.5 49.5q-69 0 -106.5 -49.5t-37.5 -133.5q0 -85 36 -136t103 -51q68 0 105.5 50.5t37.5 135.5t-35.5 134.5zM284 663l22 14q18 10 27.5 18.5t9.5 22.5q0 36 -66 36q-28 0 -52 -12.5t-37 -28.5l-37 41q17 22 55 40.5t86 18.5q60 0 96.5 -21.5
t36.5 -62.5q0 -30 -16 -46t-47 -33l-21 -12q-13 -9 -18.5 -17.5t-6.5 -25.5v-6h-62v17q0 36 30 57z" />
    <glyph glyph-name="uni1EE0" unicode="&#x1ee0;" horiz-adv-x="743" 
d="M87.5 510q36.5 77 105.5 119.5t166 42.5q80 0 142 -31.5t101 -89.5q31 16 46 41.5t15 54.5q0 51 -43 86l67 37q27 -16 42.5 -43.5t15.5 -63.5q0 -47 -28 -91t-92 -62q37 -79 37 -181q0 -104 -36.5 -181t-106 -118.5t-166.5 -41.5q-94 0 -162 41.5t-104 118t-36 181.5
q0 104 36.5 181zM556 331q0 122 -52.5 190t-147.5 68t-148.5 -68t-53.5 -190v-3q0 -121 53 -189.5t148 -68.5q97 0 149 67.5t52 191.5v2zM279 835q-26 0 -34 -67l-2 -24h-66q1 7 2.5 21t2.5 21q7 57 36 83.5t72 26.5q38 0 59 -18.5t40 -50.5q12 -18 19.5 -26.5t17.5 -8.5h6
q16 0 23 18t11 48q1 4 2 12.5t1 12.5h66l-4 -42q-15 -109 -109 -109q-38 0 -59 18.5t-40 49.5q-12 18 -19.5 26.5t-17.5 8.5h-7z" />
    <glyph glyph-name="uni1EE1" unicode="&#x1ee1;" horiz-adv-x="646" 
d="M74.5 383.5q30.5 59.5 87 93.5t133.5 34q75 0 128.5 -31t82.5 -87q32 16 47.5 42t15.5 56q0 53 -44 88l67 37q27 -16 43 -45t16 -65q0 -50 -31 -94.5t-98 -60.5q14 -47 14 -98q0 -75 -30.5 -135.5t-87.5 -94.5t-131 -34q-117 0 -180 70t-63 191q0 74 30.5 133.5z
M395.5 385.5q-35.5 49.5 -102.5 49.5q-69 0 -106.5 -49.5t-37.5 -133.5q0 -85 36 -136t103 -51q68 0 105.5 50.5t37.5 135.5t-35.5 134.5zM216 686q-26 0 -34 -67l-2 -23h-66l5 40q7 58 35.5 84.5t72.5 26.5q37 0 58 -18.5t40 -50.5q12 -18 19.5 -26.5t16.5 -8.5h7
q26 0 34 66l2 25h66l-5 -42q-7 -57 -36 -83t-69 -26t-61 18.5t-40 50.5q-12 18 -19 26t-17 8h-7z" />
    <glyph glyph-name="uni1EE2" unicode="&#x1ee2;" horiz-adv-x="743" 
d="M87.5 510q36.5 77 105.5 119.5t166 42.5q80 0 142 -31.5t101 -89.5q31 16 46 41.5t15 54.5q0 51 -43 86l67 37q27 -16 42.5 -43.5t15.5 -63.5q0 -47 -28 -91t-92 -62q37 -79 37 -181q0 -104 -36.5 -181t-106 -118.5t-166.5 -41.5q-94 0 -162 41.5t-104 118t-36 181.5
q0 104 36.5 181zM556 331q0 122 -52.5 190t-147.5 68t-148.5 -68t-53.5 -190v-3q0 -121 53 -189.5t148 -68.5q97 0 149 67.5t52 191.5v2zM301 -88q0 8 6 8h96q7 0 7 -8v-96q0 -7 -7 -7h-96q-6 0 -6 7v96z" />
    <glyph glyph-name="uni1EE3" unicode="&#x1ee3;" horiz-adv-x="646" 
d="M74.5 383.5q30.5 59.5 87 93.5t133.5 34q75 0 128.5 -31t82.5 -87q32 16 47.5 42t15.5 56q0 53 -44 88l67 37q27 -16 43 -45t16 -65q0 -50 -31 -94.5t-98 -60.5q14 -47 14 -98q0 -75 -30.5 -135.5t-87.5 -94.5t-131 -34q-117 0 -180 70t-63 191q0 74 30.5 133.5z
M395.5 385.5q-35.5 49.5 -102.5 49.5q-69 0 -106.5 -49.5t-37.5 -133.5q0 -85 36 -136t103 -51q68 0 105.5 50.5t37.5 135.5t-35.5 134.5zM237 -89q0 8 6 8h96q7 0 7 -8v-96q0 -7 -7 -7h-96q-6 0 -6 7v96z" />
    <glyph glyph-name="uni1EE4" unicode="&#x1ee4;" horiz-adv-x="672" 
d="M81 659h102v-389q0 -100 37.5 -147t115.5 -47q79 0 117 46.5t38 147.5v389h101v-392q0 -141 -67 -210.5t-187 -69.5q-257 0 -257 280v392zM282 -88q0 8 6 8h96q7 0 7 -8v-96q0 -7 -7 -7h-96q-6 0 -6 7v96z" />
    <glyph glyph-name="uni1EE5" unicode="&#x1ee5;" horiz-adv-x="562" 
d="M74 497h101v-305q0 -63 19.5 -90t63.5 -27q50 0 84.5 44.5t37.5 113.5v264h101v-497h-94v58l3 77h-6q-4 -29 -23 -62t-53 -57t-79 -24q-79 0 -117 46t-38 138v321zM225 -88q0 8 6 8h96q7 0 7 -8v-96q0 -7 -7 -7h-96q-6 0 -6 7v96z" />
    <glyph glyph-name="uni1EE6" unicode="&#x1ee6;" horiz-adv-x="672" 
d="M81 659h102v-389q0 -100 37.5 -147t115.5 -47q79 0 117 46.5t38 147.5v389h101v-392q0 -141 -67 -210.5t-187 -69.5q-257 0 -257 280v392zM329 809l22 12q19 9 28 16t9 18q0 17 -13.5 26t-49.5 9q-31 0 -59 -12.5t-43 -27.5l-36 42q16 22 57 39.5t92 17.5q58 0 97 -22
t39 -57q0 -27 -17 -42.5t-49 -32.5q-18 -9 -21 -11q-13 -9 -19.5 -17.5t-6.5 -23.5v-3h-62v13q0 35 32 56z" />
    <glyph glyph-name="uni1EE7" unicode="&#x1ee7;" horiz-adv-x="562" 
d="M74 497h101v-305q0 -63 19.5 -90t63.5 -27q50 0 84.5 44.5t37.5 113.5v264h101v-497h-94v58l3 77h-6q-4 -29 -23 -62t-53 -57t-79 -24q-79 0 -117 46t-38 138v321zM271 658l22 14q18 10 27.5 18.5t9.5 22.5q0 36 -66 36q-28 0 -52 -12.5t-37 -28.5l-37 41q17 22 55 40.5
t86 18.5q60 0 96.5 -21.5t36.5 -62.5q0 -30 -16 -46t-47 -33l-21 -12q-13 -9 -18.5 -17.5t-6.5 -25.5v-6h-62v17q0 36 30 57z" />
    <glyph glyph-name="uni1EE8" unicode="&#x1ee8;" horiz-adv-x="760" 
d="M81 659h102v-387q0 -99 38 -147.5t116 -48.5t116 47.5t38 147.5v388h101v-118q48 13 70 41t22 65q0 52 -42 86l66 37q27 -16 43 -45t16 -66q0 -57 -43 -104t-132 -59v-229q0 -141 -67 -210.5t-187 -69.5q-127 0 -192 70t-65 210v392zM523 905v-12l-154 -155h-66l106 167
h114z" />
    <glyph glyph-name="uni1EE9" unicode="&#x1ee9;" horiz-adv-x="644" 
d="M74 497h101v-305q0 -63 19.5 -90t63.5 -27q50 0 84.5 44.5t37.5 113.5v264h101v-112q45 14 65.5 42.5t20.5 63.5q0 53 -44 88l67 37q27 -16 43 -45t16 -65q0 -57 -40 -104.5t-128 -56.5v-345h-94v58l3 77h-6q-4 -29 -23 -62t-53 -57t-79 -24q-79 0 -117 46t-38 138v321z
M461 765v-13l-150 -164h-65l104 177h111z" />
    <glyph glyph-name="uni1EEA" unicode="&#x1eea;" horiz-adv-x="760" 
d="M81 659h102v-387q0 -99 38 -147.5t116 -48.5t116 47.5t38 147.5v388h101v-118q48 13 70 41t22 65q0 52 -42 86l66 37q27 -16 43 -45t16 -66q0 -57 -43 -104t-132 -59v-229q0 -141 -67 -210.5t-187 -69.5q-127 0 -192 70t-65 210v392zM149 905h114l110 -167h-66l-158 155
v12z" />
    <glyph glyph-name="uni1EEB" unicode="&#x1eeb;" horiz-adv-x="644" 
d="M74 497h101v-305q0 -63 19.5 -90t63.5 -27q50 0 84.5 44.5t37.5 113.5v264h101v-112q45 14 65.5 42.5t20.5 63.5q0 53 -44 88l67 37q27 -16 43 -45t16 -65q0 -57 -40 -104.5t-128 -56.5v-345h-94v58l3 77h-6q-4 -29 -23 -62t-53 -57t-79 -24q-79 0 -117 46t-38 138v321z
M99 765h111l104 -177h-65l-150 164v13z" />
    <glyph glyph-name="uni1EEC" unicode="&#x1eec;" horiz-adv-x="760" 
d="M81 659h102v-387q0 -99 38 -147.5t116 -48.5t116 47.5t38 147.5v388h101v-118q48 13 70 41t22 65q0 52 -42 86l66 37q27 -16 43 -45t16 -66q0 -57 -43 -104t-132 -59v-229q0 -141 -67 -210.5t-187 -69.5q-127 0 -192 70t-65 210v392zM332 809l22 12q19 9 28 16t9 18
q0 17 -13.5 26t-49.5 9q-31 0 -59 -12.5t-43 -27.5l-36 42q16 22 57 39.5t92 17.5q58 0 97 -22t39 -57q0 -27 -17 -42.5t-49 -32.5q-18 -9 -21 -11q-13 -9 -19.5 -17.5t-6.5 -23.5v-3h-62v13q0 35 32 56z" />
    <glyph glyph-name="uni1EED" unicode="&#x1eed;" horiz-adv-x="644" 
d="M74 497h101v-305q0 -63 19.5 -90t63.5 -27q50 0 84.5 44.5t37.5 113.5v264h101v-112q45 14 65.5 42.5t20.5 63.5q0 53 -44 88l67 37q27 -16 43 -45t16 -65q0 -57 -40 -104.5t-128 -56.5v-345h-94v58l3 77h-6q-4 -29 -23 -62t-53 -57t-79 -24q-79 0 -117 46t-38 138v321z
M272 663l22 14q18 10 27.5 18.5t9.5 22.5q0 36 -66 36q-28 0 -52 -12.5t-37 -28.5l-37 41q17 22 55 40.5t86 18.5q60 0 96.5 -21.5t36.5 -62.5q0 -30 -16 -46t-47 -33l-21 -12q-13 -9 -18.5 -17.5t-6.5 -25.5v-6h-62v17q0 36 30 57z" />
    <glyph glyph-name="uni1EEE" unicode="&#x1eee;" horiz-adv-x="760" 
d="M81 659h102v-387q0 -99 38 -147.5t116 -48.5t116 47.5t38 147.5v388h101v-118q48 13 70 41t22 65q0 52 -42 86l66 37q27 -16 43 -45t16 -66q0 -57 -43 -104t-132 -59v-229q0 -141 -67 -210.5t-187 -69.5q-127 0 -192 70t-65 210v392zM263 835q-26 0 -34 -67l-2 -24h-66
q1 7 2.5 21t2.5 21q7 57 36 83.5t72 26.5q38 0 59 -18.5t40 -50.5q12 -18 19.5 -26.5t17.5 -8.5h6q16 0 23 18t11 48q1 4 2 12.5t1 12.5h66l-4 -42q-15 -109 -109 -109q-38 0 -59 18.5t-40 49.5q-12 18 -19.5 26.5t-17.5 8.5h-7z" />
    <glyph glyph-name="uni1EEF" unicode="&#x1eef;" horiz-adv-x="644" 
d="M74 497h101v-305q0 -63 19.5 -90t63.5 -27q50 0 84.5 44.5t37.5 113.5v264h101v-112q45 14 65.5 42.5t20.5 63.5q0 53 -44 88l67 37q27 -16 43 -45t16 -65q0 -57 -40 -104.5t-128 -56.5v-345h-94v58l3 77h-6q-4 -29 -23 -62t-53 -57t-79 -24q-79 0 -117 46t-38 138v321z
M204 686q-26 0 -34 -67l-2 -23h-66l5 40q7 58 35.5 84.5t72.5 26.5q37 0 58 -18.5t40 -50.5q12 -18 19.5 -26.5t16.5 -8.5h7q26 0 34 66l2 25h66l-5 -42q-7 -57 -36 -83t-69 -26t-61 18.5t-40 50.5q-12 18 -19 26t-17 8h-7z" />
    <glyph glyph-name="uni1EF0" unicode="&#x1ef0;" horiz-adv-x="760" 
d="M81 659h102v-387q0 -99 38 -147.5t116 -48.5t116 47.5t38 147.5v388h101v-118q48 13 70 41t22 65q0 52 -42 86l66 37q27 -16 43 -45t16 -66q0 -57 -43 -104t-132 -59v-229q0 -141 -67 -210.5t-187 -69.5q-127 0 -192 70t-65 210v392zM285 -88q0 8 6 8h96q7 0 7 -8v-96
q0 -7 -7 -7h-96q-6 0 -6 7v96z" />
    <glyph glyph-name="uni1EF1" unicode="&#x1ef1;" horiz-adv-x="644" 
d="M74 497h101v-305q0 -63 19.5 -90t63.5 -27q50 0 84.5 44.5t37.5 113.5v264h101v-112q45 14 65.5 42.5t20.5 63.5q0 53 -44 88l67 37q27 -16 43 -45t16 -65q0 -57 -40 -104.5t-128 -56.5v-345h-94v58l3 77h-6q-4 -29 -23 -62t-53 -57t-79 -24q-79 0 -117 46t-38 138v321z
M219 -89q0 8 6 8h96q7 0 7 -8v-96q0 -7 -7 -7h-96q-6 0 -6 7v96z" />
    <glyph glyph-name="Ygrave" unicode="&#x1ef2;" horiz-adv-x="570" 
d="M5 659h116l106 -195l54 -137h9l54 137l104 195h118l-230 -399v-260h-102v260zM95 905h114l110 -167h-66l-158 155v12z" />
    <glyph glyph-name="ygrave" unicode="&#x1ef3;" horiz-adv-x="483" 
d="M49 -117q28 -6 51 -6q42 0 64.5 23.5t39.5 85.5l-193 511h106l100 -303l27 -114h6l26 114l94 303h104l-192 -545q-27 -76 -66.5 -115t-108.5 -39q-15 0 -32 3.5t-26 7.5v74zM61 759h111l104 -177h-65l-150 164v13z" />
    <glyph glyph-name="uni1EF4" unicode="&#x1ef4;" horiz-adv-x="570" 
d="M5 659h116l106 -195l54 -137h9l54 137l104 195h118l-230 -399v-260h-102v260zM231 -88q0 8 6 8h96q7 0 7 -8v-96q0 -7 -7 -7h-96q-6 0 -6 7v96z" />
    <glyph glyph-name="uni1EF5" unicode="&#x1ef5;" horiz-adv-x="483" 
d="M49 -117q28 -6 51 -6q42 0 64.5 23.5t39.5 85.5l-193 511h106l100 -303l27 -114h6l26 114l94 303h104l-192 -545q-27 -76 -66.5 -115t-108.5 -39q-15 0 -32 3.5t-26 7.5v74zM345 -88q0 8 6 8h96q7 0 7 -8v-96q0 -7 -7 -7h-96q-6 0 -6 7v96z" />
    <glyph glyph-name="uni1EF6" unicode="&#x1ef6;" horiz-adv-x="570" 
d="M5 659h116l106 -195l54 -137h9l54 137l104 195h118l-230 -399v-260h-102v260zM278 809l22 12q19 9 28 16t9 18q0 17 -13.5 26t-49.5 9q-31 0 -59 -12.5t-43 -27.5l-36 42q16 22 57 39.5t92 17.5q58 0 97 -22t39 -57q0 -27 -17 -42.5t-49 -32.5q-18 -9 -21 -11
q-13 -9 -19.5 -17.5t-6.5 -23.5v-3h-62v13q0 35 32 56z" />
    <glyph glyph-name="uni1EF7" unicode="&#x1ef7;" horiz-adv-x="483" 
d="M49 -117q28 -6 51 -6q42 0 64.5 23.5t39.5 85.5l-193 511h106l100 -303l27 -114h6l26 114l94 303h104l-192 -545q-27 -76 -66.5 -115t-108.5 -39q-15 0 -32 3.5t-26 7.5v74zM234 657l22 14q18 10 27.5 18.5t9.5 22.5q0 36 -66 36q-28 0 -52 -12.5t-37 -28.5l-37 41
q17 22 55 40.5t86 18.5q60 0 96.5 -21.5t36.5 -62.5q0 -30 -16 -46t-47 -33l-21 -12q-13 -9 -18.5 -17.5t-6.5 -25.5v-6h-62v17q0 36 30 57z" />
    <glyph glyph-name="uni1EF8" unicode="&#x1ef8;" horiz-adv-x="570" 
d="M5 659h116l106 -195l54 -137h9l54 137l104 195h118l-230 -399v-260h-102v260zM209 835q-26 0 -34 -67l-2 -24h-66q1 7 2.5 21t2.5 21q7 57 36 83.5t72 26.5q38 0 59 -18.5t40 -50.5q12 -18 19.5 -26.5t17.5 -8.5h6q16 0 23 18t11 48q1 4 2 12.5t1 12.5h66l-4 -42
q-15 -109 -109 -109q-38 0 -59 18.5t-40 49.5q-12 18 -19.5 26.5t-17.5 8.5h-7z" />
    <glyph glyph-name="uni1EF9" unicode="&#x1ef9;" horiz-adv-x="483" 
d="M49 -117q28 -6 51 -6q42 0 64.5 23.5t39.5 85.5l-193 511h106l100 -303l27 -114h6l26 114l94 303h104l-192 -545q-27 -76 -66.5 -115t-108.5 -39q-15 0 -32 3.5t-26 7.5v74zM166 680q-26 0 -34 -67l-2 -23h-66l5 40q7 58 35.5 84.5t72.5 26.5q37 0 58 -18.5t40 -50.5
q12 -18 19.5 -26.5t16.5 -8.5h7q26 0 34 66l2 25h66l-5 -42q-7 -57 -36 -83t-69 -26t-61 18.5t-40 50.5q-12 18 -19 26t-17 8h-7z" />
    <glyph glyph-name="uni2002" unicode="&#x2002;" horiz-adv-x="523" 
 />
    <glyph glyph-name="uni2009" unicode="&#x2009;" horiz-adv-x="244" 
 />
    <glyph glyph-name="uni200B" unicode="&#x200b;" horiz-adv-x="163" 
 />
    <glyph glyph-name="figuredash" unicode="&#x2012;" horiz-adv-x="657" 
d="M575 311v-88h-493v88h493z" />
    <glyph glyph-name="endash" unicode="&#x2013;" horiz-adv-x="611" 
d="M541 311v-88h-471v88h471z" />
    <glyph glyph-name="emdash" unicode="&#x2014;" horiz-adv-x="825" 
d="M756 311v-88h-686v88h686z" />
    <glyph glyph-name="quoteleft" unicode="&#x2018;" horiz-adv-x="268" 
d="M218 686q-47 -18 -69 -59t-23 -109h36q6 0 6 -7v-121q0 -6 -7 -6h-92q-6 0 -6 6v87q0 211 133 249z" />
    <glyph glyph-name="quoteright" unicode="&#x2019;" horiz-adv-x="265" 
d="M52 405q47 18 69 59t23 109h-36q-6 0 -6 7v121q0 6 7 6h92q6 0 6 -6v-87q0 -211 -133 -249z" />
    <glyph glyph-name="quotesinglbase" unicode="&#x201a;" horiz-adv-x="266" 
d="M37 -159q47 18 69 59t23 109h-36q-6 0 -6 7v121q0 6 7 6h92q6 0 6 -6v-87q0 -211 -133 -249z" />
    <glyph glyph-name="quotereversed" unicode="&#x201b;" horiz-adv-x="265" 
d="M213 405q-47 18 -69 59t-23 109h36q6 0 6 7v121q0 6 -7 6h-92q-6 0 -6 -6v-87q0 -211 133 -249z" />
    <glyph glyph-name="quotedblleft" unicode="&#x201c;" horiz-adv-x="496" 
d="M223 695q-47 -18 -69 -59t-23 -109h36q6 0 6 -7v-121q0 -6 -7 -6h-92q-6 0 -6 6v87q0 211 133 249zM451 695q-47 -18 -69 -59t-23 -109h36q6 0 6 -7v-121q0 -6 -7 -6h-92q-6 0 -6 6v87q0 211 133 249z" />
    <glyph glyph-name="quotedblright" unicode="&#x201d;" horiz-adv-x="493" 
d="M47 405q47 18 69 59t23 109h-36q-6 0 -6 7v121q0 6 7 6h92q6 0 6 -6v-87q0 -211 -133 -249zM276 405q47 18 69 59t23 109h-36q-6 0 -6 7v121q0 6 7 6h92q6 0 6 -6v-87q0 -211 -133 -249z" />
    <glyph glyph-name="quotedblbase" unicode="&#x201e;" horiz-adv-x="496" 
d="M37 -165q47 18 69 59t23 109h-36q-6 0 -6 7v121q0 6 7 6h92q6 0 6 -6v-87q0 -211 -133 -249zM267 -165q47 18 69 59t23 109h-36q-6 0 -6 7v121q0 6 7 6h92q6 0 6 -6v-87q0 -211 -133 -249z" />
    <glyph glyph-name="dagger" unicode="&#x2020;" horiz-adv-x="529" 
d="M218 463l-149 -22h-11v109h11l150 -23l-1 176h93l-1 -176l151 23h10v-109h-10l-150 22v-139l-31 -299h-30l-32 299v139z" />
    <glyph glyph-name="daggerdbl" unicode="&#x2021;" horiz-adv-x="529" 
d="M88 217h-10v110h10l130 -28v168l-149 -26h-11v110h11l149 -28v180h92v-179l148 27h13v-110h-14l-147 26v-168l128 28h13v-110h-13l-128 27v-206h-92v206z" />
    <glyph glyph-name="bullet" unicode="&#x2022;" horiz-adv-x="368" 
d="M87 364q0 7 7 7h180q7 0 7 -7v-185q0 -7 -7 -7h-182q-5 0 -5 7v185z" />
    <glyph glyph-name="ellipsis" unicode="&#x2026;" horiz-adv-x="773" 
d="M68 139q0 7 7 7h95q6 0 6 -7v-132q0 -7 -6 -7h-97q-5 0 -5 7v132zM332 139q0 7 7 7h96q6 0 6 -7v-132q0 -7 -6 -7h-97q-6 0 -6 7v132zM596 139q0 7 7 7h96q6 0 6 -7v-132q0 -7 -6 -7h-97q-6 0 -6 7v132z" />
    <glyph glyph-name="perthousand" unicode="&#x2030;" horiz-adv-x="1132" 
d="M80 638.5q45 44.5 119 44.5q70 0 114 -45t44 -117t-45 -117t-117 -45t-116 44t-44 118q0 73 45 117.5zM656 677l-463 -677h-82l462 677h83zM287 523q0 46 -24 71.5t-66 25.5q-43 0 -68 -26t-25 -71v-3q0 -47 24 -73.5t67 -26.5t67.5 26.5t24.5 73.5v3zM454 266.5
q45 44.5 119 44.5q71 0 114.5 -45t43.5 -118q0 -72 -45 -117t-117 -45t-116 44.5t-44 117.5q0 74 45 118.5zM823 266.5q45 44.5 119 44.5q71 0 114.5 -45t43.5 -118q0 -72 -45 -117t-117 -45t-116 44.5t-44 117.5q0 74 45 118.5zM661 151q0 45 -23.5 70.5t-65.5 25.5
q-43 0 -68 -26t-25 -70v-4q0 -47 23.5 -73.5t66.5 -26.5q44 0 68 26.5t24 73.5v4zM1030 150q0 46 -24 71.5t-65 25.5q-43 0 -68 -26t-25 -71v-3q0 -47 23.5 -73.5t66.5 -26.5t67.5 26.5t24.5 73.5v3z" />
    <glyph glyph-name="guilsinglleft" unicode="&#x2039;" horiz-adv-x="361" 
d="M47 314l243 178v-102l-159 -104v-4l159 -106v-99l-243 176v61z" />
    <glyph glyph-name="guilsinglright" unicode="&#x203a;" horiz-adv-x="360" 
d="M229 282v4l-158 104v102l242 -178v-61l-242 -176v99z" />
    <glyph glyph-name="fraction" unicode="&#x2044;" horiz-adv-x="220" 
d="M365 667l-440 -667h-82l440 667h82z" />
    <glyph glyph-name="zero.sups" unicode="&#x2070;" horiz-adv-x="451" 
d="M87 692.5q52 58.5 140 58.5q89 0 139 -56.5t50 -161.5q0 -104 -51.5 -161.5t-141.5 -57.5q-89 0 -138.5 57t-49.5 161q0 102 52 160.5zM328 543q0 73 -25 106.5t-76 33.5q-103 0 -103 -140v-15q0 -147 100 -147q104 0 104 147v15z" />
    <glyph glyph-name="four.sups" unicode="&#x2074;" horiz-adv-x="428" 
d="M178 695l33 48h112l-177 -217l-42 -53l63 6h86l1 80l80 40v-120h69v-65h-69v-93h-82v93h-226v67q27 31 152 214z" />
    <glyph glyph-name="five.sups" unicode="&#x2075;" horiz-adv-x="423" 
d="M126 445q3 -33 25.5 -50t57.5 -17q44 0 69 21t25 62v1q0 44 -24 65.5t-66 21.5q-63 0 -95 -54l-79 28l42 221h287v-69h-227l-29 -117q45 49 125 49q69 0 111 -38.5t42 -104.5q0 -69 -48 -109t-132 -40q-79 0 -125.5 34t-47.5 93z" />
    <glyph glyph-name="six.sups" unicode="&#x2076;" horiz-adv-x="435" 
d="M91 694.5q52 55.5 141 55.5q74 0 116 -32t45 -87l-78 -3q-3 27 -25 43t-59 16q-51 0 -80.5 -36.5t-29.5 -106.5v-15q16 29 50 44.5t75 15.5q72 0 112.5 -34t40.5 -94q0 -64 -46 -105t-128 -41q-186 0 -186 214q0 110 52 165.5zM313 455q0 36 -22 57.5t-64 21.5
q-38 0 -65 -21.5t-28 -56.5v-2q2 -33 27 -56t63 -23q39 0 64 22t25 56v2z" />
    <glyph glyph-name="seven.sups" unicode="&#x2077;" horiz-adv-x="379" 
d="M285 678h-6l-77 -4h-178v70h336v-66l-188 -356h-100l166 285z" />
    <glyph glyph-name="eight.sups" unicode="&#x2078;" horiz-adv-x="441" 
d="M72 506.5q36 25.5 95 27.5v4q-56 1 -85 26.5t-29 69.5q0 52 45 83.5t124 31.5q78 0 122.5 -31.5t44.5 -83.5q0 -40 -27 -60.5t-88 -26.5v-4q61 -4 96.5 -32t35.5 -73q0 -58 -48 -90.5t-139 -32.5q-89 0 -136 32t-47 90q0 44 36 69.5zM280.5 677.5q-21.5 18.5 -59.5 18.5
t-59.5 -18.5t-21.5 -47.5q0 -66 82 -66q39 0 59.5 17t20.5 50q0 28 -21.5 46.5zM220 512q-95 0 -95 -74q0 -31 25 -49.5t70 -18.5q44 0 68.5 18.5t24.5 50.5q0 73 -93 73z" />
    <glyph glyph-name="nine.sups" unicode="&#x2079;" horiz-adv-x="435" 
d="M123 435q5 -29 28.5 -44t60.5 -15q52 0 77 35t25 97v25q-15 -27 -45.5 -43.5t-75.5 -16.5q-73 0 -114.5 36.5t-41.5 96.5q0 65 51 104.5t127 39.5q87 0 134.5 -52.5t47.5 -158.5q0 -113 -47 -170t-140 -57q-75 0 -119.5 33t-48.5 87zM302 611q-1 35 -24 57.5t-62 22.5
q-44 0 -68.5 -23t-24.5 -60v-1q0 -35 23.5 -57.5t62.5 -22.5q41 0 67 23t26 58v3z" />
    <glyph glyph-name="plus.sups" unicode="&#x207a;" horiz-adv-x="354" 
d="M142 551v103h69v-103h107v-61h-107v-106h-69v106h-107v61h107z" />
    <glyph glyph-name="minus.sups" unicode="&#x207b;" horiz-adv-x="368" 
d="M320 551v-61h-272v61h272z" />
    <glyph glyph-name="equal.sups" unicode="&#x207c;" horiz-adv-x="378" 
d="M330 624v-62h-282v62h282zM330 476v-61h-282v61h282z" />
    <glyph glyph-name="parenleft.sups" unicode="&#x207d;" horiz-adv-x="276" 
d="M26 536q0 68 24.5 128.5t74 102t122.5 51.5v-62q-67 -16 -104.5 -73.5t-37.5 -142.5v-18q0 -85 38 -143.5t104 -73.5v-65q-73 11 -122.5 53.5t-74 103.5t-24.5 129v10z" />
    <glyph glyph-name="parenright.sups" unicode="&#x207e;" horiz-adv-x="276" 
d="M132.5 378q37.5 58 37.5 144v19q0 85 -37 142t-105 73v63q75 -11 124.5 -52.5t73.5 -101.5t24 -129v-10q0 -69 -24 -130t-74 -103t-124 -53v65q67 15 104.5 73z" />
    <glyph glyph-name="n.sups" unicode="&#x207f;" horiz-adv-x="420" 
d="M139 654l1 -45l-4 -49q17 48 49.5 75.5t74.5 27.5q104 0 104 -121v-220h-80v169q0 42 -4.5 64t-16 31.5t-35.5 9.5q-34 0 -58 -30.5t-29 -82.5q-1 -10 -1 -161h-79v332h78z" />
    <glyph glyph-name="dong" unicode="&#x20ab;" horiz-adv-x="631" 
d="M421 679v59h97v-59h68v-63h-68v-493h-95v51l7 77q-16 -66 -60.5 -102.5t-113.5 -36.5q-95 0 -151 58t-56 168q0 72 28 122.5t76.5 76.5t109.5 26q56 0 98.5 -27.5t64.5 -74.5v1h6l-11 78v76h-105v63h105zM428 350q0 57 -36.5 96t-101.5 39q-63 0 -98.5 -36.5
t-35.5 -111.5q0 -74 34.5 -109.5t101.5 -35.5q63 0 99.5 39.5t36.5 100.5v18zM552 62v-62h-488v62h488z" />
    <glyph glyph-name="Euro" unicode="&#x20ac;" horiz-adv-x="736" 
d="M137 439q24 110 97.5 171.5t185.5 61.5q108 0 175 -56.5t88 -166.5h-100q-16 71 -56 106t-108 35q-69 0 -116.5 -39.5t-68.5 -111.5h220v-63h-180l-51 6q-2 -32 -2 -49v-8q0 -26 3 -50h191v-63h-126l-53 6h-1q21 -70 69.5 -109.5t115.5 -39.5q70 0 111.5 32t56.5 99h95
q-18 -105 -86 -159t-179 -54q-107 0 -180.5 59.5t-99.5 165.5h-102v63h92q-3 26 -3 54q0 32 2 47h-71v63h81z" />
    <glyph glyph-name="uni2117" unicode="&#x2117;" horiz-adv-x="802" 
d="M90.5 508q43.5 79 122.5 122.5t183 43.5q103 0 182 -43.5t123 -123t44 -182.5t-43.5 -180.5t-123 -119.5t-182.5 -42q-104 0 -183 42t-122.5 119.5t-43.5 180.5q0 104 43.5 183zM654.5 482.5q-36.5 68.5 -103.5 106t-155 37.5q-89 0 -156 -37.5t-103 -105.5t-36 -158
q0 -89 36 -156t103 -103t156 -36t156 36t103 103t36 156t-36.5 157.5zM404 509q80 0 117.5 -30t37.5 -92q0 -63 -37 -92.5t-118 -29.5h-60v-126h-68v370h128zM401 317q51 0 72 15.5t21 53.5q0 35 -21 50t-72 15h-57v-134h57z" />
    <glyph glyph-name="trademark" unicode="&#x2122;" horiz-adv-x="849" 
d="M316 676v-61h-106v-280h-69v280h-105v61h280zM499 676l74 -267h4l83 267h115v-341h-68v171l6 134h-6l-102 -305h-65l-95 305h-7l10 -133v-172h-67v341h118z" />
    <glyph glyph-name="arrowleft" unicode="&#x2190;" horiz-adv-x="1344" 
d="M73 337l364 242l22 -18l-165 -207h550l146 197h238l-150 -197l108 12v-70l-107 13l149 -198h-238l-145 196h-550l164 -208l-22 -15l-364 241v12z" />
    <glyph glyph-name="arrowright" unicode="&#x2192;" horiz-adv-x="1343" 
d="M1048 307h-550l-145 -196h-238l149 198l-107 -13v70l108 -12l-150 197h238l146 -197h550l-166 207l22 18l365 -242v-12l-365 -241l-22 15z" />
    <glyph glyph-name="minus" unicode="&#x2212;" horiz-adv-x="539" 
d="M475 348v-86h-411v86h411z" />
    <glyph glyph-name="notequal" unicode="&#x2260;" horiz-adv-x="522" 
d="M297 468l43 97h80l-45 -97h82v-85h-126l-72 -155h198v-85h-231l-45 -100h-80l48 100h-84v85h127l71 155h-198v85h232z" />
    <glyph glyph-name="lessequal" unicode="&#x2264;" horiz-adv-x="452" 
d="M60 388l313 168v-101l-215 -105l215 -103v-100l-313 166v75zM398 85v-85h-343v85h343z" />
    <glyph glyph-name="greaterequal" unicode="&#x2265;" horiz-adv-x="454" 
d="M84 247l214 103l-214 105v101l313 -168v-75l-313 -166v100zM52 0v85h344v-85h-344z" />
    <glyph glyph-name="uni25CC" unicode="&#x25cc;" horiz-adv-x="758" 
d="M342.5 572q13.5 12 35.5 12t35.5 -11.5t13.5 -31.5t-13.5 -31.5t-35.5 -11.5t-35.5 12t-13.5 31t13.5 31zM149.5 480.5q13.5 11.5 36.5 11.5q22 0 35.5 -11.5t13.5 -30.5t-13.5 -31.5t-35.5 -12.5t-36 12.5t-14 31.5t13.5 30.5zM536 481q13 11 35 11q23 0 36 -11.5
t13 -30.5t-13.5 -31.5t-35.5 -12.5t-35 12.5t-13 31.5q0 20 13 31zM73.5 299q13.5 12 35.5 12t35.5 -12t13.5 -32q0 -19 -13 -30.5t-36 -11.5t-36 11.5t-13 30.5q0 20 13.5 32zM612.5 299q13.5 12 35.5 12t35 -12t13 -32q0 -19 -13 -30.5t-35 -11.5q-23 0 -36 11.5t-13 30.5
q0 20 13.5 32zM150.5 116q13.5 12 35.5 12t35.5 -12t13.5 -31t-13.5 -30.5t-35.5 -11.5q-23 0 -36 11.5t-13 30.5t13.5 31zM535 116q13 12 35 12t36 -12t14 -31t-13.5 -30.5t-36.5 -11.5q-22 0 -35 11.5t-13 30.5t13 31zM342.5 25q13.5 12 35.5 12t35.5 -12t13.5 -32
q0 -19 -13.5 -30.5t-35.5 -11.5t-35.5 11.5t-13.5 30.5q0 20 13.5 32z" />
    <glyph glyph-name="uni2605" unicode="&#x2605;" horiz-adv-x="727" 
d="M506 276l206 162h-265l-81 249l-88 -249h-263l213 -162l-81 -249l219 147l213 -147z" />
    <glyph glyph-name="heart" unicode="&#x2665;" horiz-adv-x="767" 
d="M51 362q0 76 45 123.5t116 47.5h3q45 0 78 -23t54 -61q10 -25 20 -73t12 -82h8q3 34 13 82t19 73q22 38 55 61t77 23h3q72 0 117 -47.5t45 -123.5v-7q0 -53 -26 -95t-63 -72.5t-100 -72.5q-55 -37 -88 -63.5t-56 -57.5q-23 31 -56 57.5t-88 63.5q-62 42 -99.5 73
t-63 72.5t-25.5 94.5v7z" />
    <glyph glyph-name="uni2713" unicode="&#x2713;" horiz-adv-x="738" 
d="M215 496l113 -297l32 -112h7l28 111l209 653h117l-312 -851h-95l-215 496h116z" />
    <glyph glyph-name="uni2717" unicode="&#x2717;" horiz-adv-x="627" 
d="M185 205l73 74l-68 52l-134 131l84 73l128 -132l42 -67l57 76l119 126l71 -56l-122 -129l-80 -76l78 -53l130 -131l-84 -73l-129 132l-39 65l-57 -75l-116 -123l-73 58z" />
    <glyph glyph-name="f_f" unicode="&#xfb00;" horiz-adv-x="678" 
d="M112 497v88q0 80 39.5 122.5t117.5 42.5q39 0 83 -11v-76q-29 9 -65 9q-45 0 -63 -21.5t-18 -72.5v-40l-3 -41h116v-81h-116l3 -45v-371h-94v416h-80v81h80zM451 497v88q0 80 39.5 122.5t117.5 42.5q39 0 83 -11v-76q-29 9 -65 9q-45 0 -63 -21.5t-18 -72.5v-40l-3 -41
h116v-81h-116l3 -45v-371h-94v416h-80v81h80z" />
    <glyph glyph-name="uniFB01" unicode="&#xfb01;" horiz-adv-x="604" 
d="M77 689q0 8 8 8h96q6 0 6 -8v-99q0 -7 -6 -7h-97q-7 0 -7 7v99zM182 497v-497h-99v497h99zM377 497v88q0 80 39.5 122.5t117.5 42.5q39 0 83 -11v-76q-29 9 -65 9q-45 0 -63 -21.5t-18 -72.5v-40l-3 -41h116v-81h-116l3 -45v-371h-94v416h-80v81h80z" />
    <glyph glyph-name="uniFB02" unicode="&#xfb02;" horiz-adv-x="603" 
d="M112 497v88q0 80 39.5 122.5t117.5 42.5q39 0 83 -11v-76q-29 9 -65 9q-45 0 -63 -21.5t-18 -72.5v-40l-3 -41h116v-81h-116l3 -45v-371h-94v416h-80v81h80zM520 734v-734h-98v734h98z" />
    <glyph glyph-name="f_f_i" unicode="&#xfb03;" horiz-adv-x="943" 
d="M112 497v88q0 80 39.5 122.5t117.5 42.5q39 0 83 -11v-76q-29 9 -65 9q-45 0 -63 -21.5t-18 -72.5v-40l-3 -41h116v-81h-116l3 -45v-371h-94v416h-80v81h80zM451 497v88q0 80 39.5 122.5t117.5 42.5q39 0 83 -11v-76q-29 9 -65 9q-45 0 -63 -21.5t-18 -72.5v-40l-3 -41
h116v-81h-116l3 -45v-371h-94v416h-80v81h80zM755 689q0 8 8 8h96q6 0 6 -8v-99q0 -7 -6 -7h-97q-7 0 -7 7v99zM860 497v-497h-99v497h99z" />
    <glyph glyph-name="f_f_l" unicode="&#xfb04;" horiz-adv-x="942" 
d="M112 497v88q0 80 39.5 122.5t117.5 42.5q39 0 83 -11v-76q-29 9 -65 9q-45 0 -63 -21.5t-18 -72.5v-40l-3 -41h116v-81h-116l3 -45v-371h-94v416h-80v81h80zM451 497v88q0 80 39.5 122.5t117.5 42.5q39 0 83 -11v-76q-29 9 -65 9q-45 0 -63 -21.5t-18 -72.5v-40l-3 -41
h116v-81h-116l3 -45v-371h-94v416h-80v81h80zM859 734v-734h-98v734h98z" />
    <glyph glyph-name="AE.alt" horiz-adv-x="900" 
d="M845 659v-87h-322v-189h304v-87h-304v-210h327v-86h-427v187h-221l-95 -187h-114l341 659h511zM423 271v345h-14l-35 -82l-130 -263h179z" />
    <glyph glyph-name="AEacute.alt" horiz-adv-x="900" 
d="M845 659v-87h-322v-189h304v-87h-304v-210h327v-86h-427v187h-221l-95 -187h-114l341 659h511zM423 271v345h-14l-35 -82l-130 -263h179zM672 905v-12l-154 -155h-66l106 167h114z" />
    <glyph glyph-name="C.alt" horiz-adv-x="672" 
d="M87 508.5q37 77.5 105.5 120.5t160.5 43q104 0 171.5 -49t93.5 -146l-100 -27q-20 71 -61 104.5t-105 33.5q-92 0 -145 -69.5t-53 -186.5v-3q0 -118 53 -187.5t146 -69.5q136 0 168 144l99 -26q-23 -98 -92.5 -149.5t-174.5 -51.5q-93 0 -161.5 42t-105 119t-36.5 180
q0 101 37 178.5z" />
    <glyph glyph-name="Cacute.alt" horiz-adv-x="672" 
d="M87 508.5q37 77.5 105.5 120.5t160.5 43q104 0 171.5 -49t93.5 -146l-100 -27q-20 71 -61 104.5t-105 33.5q-92 0 -145 -69.5t-53 -186.5v-3q0 -118 53 -187.5t146 -69.5q136 0 168 144l99 -26q-23 -98 -92.5 -149.5t-174.5 -51.5q-93 0 -161.5 42t-105 119t-36.5 180
q0 101 37 178.5zM542 905v-12l-154 -155h-66l106 167h114z" />
    <glyph glyph-name="Ccaron.alt" horiz-adv-x="672" 
d="M87 508.5q37 77.5 105.5 120.5t160.5 43q104 0 171.5 -49t93.5 -146l-100 -27q-20 71 -61 104.5t-105 33.5q-92 0 -145 -69.5t-53 -186.5v-3q0 -118 53 -187.5t146 -69.5q136 0 168 144l99 -26q-23 -98 -92.5 -149.5t-174.5 -51.5q-93 0 -161.5 42t-105 119t-36.5 180
q0 101 37 178.5zM188 908h89l54 -78l24 -42h6l24 42l53 78h90v-8l-128 -160h-85l-127 160v8z" />
    <glyph glyph-name="Ccedilla.alt" horiz-adv-x="672" 
d="M246 -148q18 -9 50 -9q28 0 43 15t15 41t-15 51t-45 44q-114 19 -179 108.5t-65 227.5q0 101 37 178.5t105.5 120.5t160.5 43q104 0 171.5 -49t93.5 -146l-100 -27q-20 71 -61 104.5t-105 33.5q-92 0 -145 -69.5t-53 -186.5v-3q0 -118 53 -187.5t146 -69.5q136 0 168 144
l99 -26q-22 -95 -88.5 -146.5t-166.5 -54.5q32 -23 49.5 -53t17.5 -64q0 -47 -30.5 -75.5t-87.5 -28.5q-43 0 -68 13v71z" />
    <glyph glyph-name="Ccircumflex.alt" horiz-adv-x="672" 
d="M87 508.5q37 77.5 105.5 120.5t160.5 43q104 0 171.5 -49t93.5 -146l-100 -27q-20 71 -61 104.5t-105 33.5q-92 0 -145 -69.5t-53 -186.5v-3q0 -118 53 -187.5t146 -69.5q136 0 168 144l99 -26q-23 -98 -92.5 -149.5t-174.5 -51.5q-93 0 -161.5 42t-105 119t-36.5 180
q0 101 37 178.5zM315 903h85l128 -155v-8h-90l-53 74l-24 41h-6l-24 -41l-53 -74h-90v8z" />
    <glyph glyph-name="Cdotaccent.alt" horiz-adv-x="672" 
d="M87 508.5q37 77.5 105.5 120.5t160.5 43q104 0 171.5 -49t93.5 -146l-100 -27q-20 71 -61 104.5t-105 33.5q-92 0 -145 -69.5t-53 -186.5v-3q0 -118 53 -187.5t146 -69.5q136 0 168 144l99 -26q-23 -98 -92.5 -149.5t-174.5 -51.5q-93 0 -161.5 42t-105 119t-36.5 180
q0 101 37 178.5zM303 846q0 8 8 8h95q7 0 7 -8v-99q0 -7 -7 -7h-97q-6 0 -6 7v99z" />
    <glyph glyph-name="E.alt" horiz-adv-x="587" 
d="M528 659v-88h-334v-187h317v-86h-317v-211h346v-87h-446v659h434z" />
    <glyph glyph-name="Eacute.alt" horiz-adv-x="587" 
d="M528 659v-88h-334v-187h317v-86h-317v-211h346v-87h-446v659h434zM510 905v-12l-154 -155h-66l106 167h114z" />
    <glyph glyph-name="Ebreve.alt" horiz-adv-x="587" 
d="M528 659v-88h-334v-187h317v-86h-317v-211h346v-87h-446v659h434zM240 883q-1 -37 21 -62t65 -25t64.5 24.5t21.5 62.5l79 -1q2 -64 -41 -107t-124 -43t-124 43t-41 107z" />
    <glyph glyph-name="Ecaron.alt" horiz-adv-x="587" 
d="M528 659v-88h-334v-187h317v-86h-317v-211h346v-87h-446v659h434zM156 908h89l54 -78l24 -42h6l24 42l53 78h90v-8l-128 -160h-85l-127 160v8z" />
    <glyph glyph-name="Ecircumflex.alt" horiz-adv-x="587" 
d="M528 659v-88h-334v-187h317v-86h-317v-211h346v-87h-446v659h434zM283 903h85l128 -155v-8h-90l-53 74l-24 41h-6l-24 -41l-53 -74h-90v8z" />
    <glyph glyph-name="Edieresis.alt" horiz-adv-x="587" 
d="M528 659v-88h-334v-187h317v-86h-317v-211h346v-87h-446v659h434zM178 846q0 8 8 8h76q7 0 7 -8v-99q0 -7 -7 -7h-78q-6 0 -6 7v99zM383 846q0 8 8 8h76q7 0 7 -8v-99q0 -7 -7 -7h-78q-6 0 -6 7v99z" />
    <glyph glyph-name="Edotaccent.alt" horiz-adv-x="587" 
d="M528 659v-88h-334v-187h317v-86h-317v-211h346v-87h-446v659h434zM271 846q0 8 8 8h95q7 0 7 -8v-99q0 -7 -7 -7h-97q-6 0 -6 7v99z" />
    <glyph glyph-name="Egrave.alt" horiz-adv-x="587" 
d="M528 659v-88h-334v-187h317v-86h-317v-211h346v-87h-446v659h434zM136 905h114l110 -167h-66l-158 155v12z" />
    <glyph glyph-name="Emacron.alt" horiz-adv-x="587" 
d="M528 659v-88h-334v-187h317v-86h-317v-211h346v-87h-446v659h434zM461 814v-72h-271v72h271z" />
    <glyph glyph-name="Eogonek.alt" horiz-adv-x="588" 
d="M528 659v-88h-334v-187h317v-86h-317v-211h346v-86l1 -1q-49 -20 -77.5 -47.5t-28.5 -61.5q0 -27 16.5 -41.5t46.5 -14.5q29 0 46 7v-70q-30 -10 -63 -10q-57 0 -92 30t-35 75q0 42 27 76t75 57h-362v659h434z" />
    <glyph glyph-name="Euro.lt" horiz-adv-x="649" 
d="M114 439q22 111 88 172t174 61q107 0 167 -55t79 -167l-99 -2q-15 73 -48.5 107t-99.5 34q-64 0 -104.5 -39t-57.5 -111h215v-63h-182l-41 5q-2 -16 -2 -48v-8q0 -34 2 -50h177v-63h-117l-51 5q16 -71 56.5 -109.5t102.5 -38.5q67 0 102 34t48 107l97 -2
q-18 -110 -80 -165.5t-171 -55.5q-103 0 -167.5 59t-86.5 166h-95v63h86q-2 17 -2 54q0 32 1 47h-68v63h77z" />
    <glyph glyph-name="G.alt" horiz-adv-x="709" 
d="M89.5 509.5q39.5 78.5 112 120.5t169.5 42q114 0 187 -57.5t91 -158.5l-113 -1q-14 62 -55 98t-112 36q-99 0 -157 -68.5t-58 -186.5v-5q0 -114 53 -186.5t151 -72.5q83 0 133.5 51t54.5 145l-2 49h103v-315h-87l-8 150q-21 -79 -75.5 -120.5t-134.5 -41.5
q-89 0 -155 42.5t-101.5 119t-35.5 175.5q0 106 39.5 184.5z" />
    <glyph glyph-name="G.alt2" horiz-adv-x="707" 
d="M89 508.5q39 78.5 111 121t169 42.5q112 0 185.5 -54t94.5 -155l-112 -6q-15 64 -57.5 98t-110.5 34q-99 0 -157 -68.5t-58 -187.5v-4q0 -116 54.5 -187.5t150.5 -71.5q183 0 196 180h-160v86h258v-54q0 -146 -81 -220t-217 -74q-87 0 -156.5 42.5t-109 119t-39.5 175.5
q0 105 39 183.5z" />
    <glyph glyph-name="G.alt3" horiz-adv-x="709" 
d="M369 589q-98 0 -156.5 -67t-58.5 -188v-4q0 -121 54.5 -190.5t149.5 -69.5q80 0 135 48.5t60 141.5h-174v90h269v-350h-77l-9 169q-19 -88 -77 -134.5t-144 -46.5q-87 0 -152.5 42t-101.5 119t-36 179q0 106 39 183.5t111.5 119t169.5 41.5q96 0 159.5 -38.5t92.5 -109.5
l-102 -34q-36 99 -152 99z" />
    <glyph glyph-name="G.alt4" horiz-adv-x="709" 
d="M89.5 509.5q39.5 78.5 111.5 120.5t169 42t164.5 -41t98.5 -116l-106 -30q-18 49 -57.5 76t-100.5 27q-100 0 -157.5 -67t-57.5 -186v-5q0 -113 53 -185.5t152 -72.5q80 0 131.5 53.5t54.5 143.5v49h102v-318h-88l-8 142q-22 -72 -75.5 -112.5t-130.5 -40.5
q-89 0 -156 42.5t-103 118.5t-36 175q0 106 39.5 184.5z" />
    <glyph glyph-name="Gbreve.alt" horiz-adv-x="709" 
d="M89.5 509.5q39.5 78.5 112 120.5t169.5 42q114 0 187 -57.5t91 -158.5l-113 -1q-14 62 -55 98t-112 36q-99 0 -157 -68.5t-58 -186.5v-5q0 -114 53 -186.5t151 -72.5q83 0 133.5 51t54.5 145l-2 49h103v-315h-87l-8 150q-21 -79 -75.5 -120.5t-134.5 -41.5
q-89 0 -155 42.5t-101.5 119t-35.5 175.5q0 106 39.5 184.5zM277 883q-1 -37 21 -62t65 -25t64.5 24.5t21.5 62.5l79 -1q2 -64 -41 -107t-124 -43t-124 43t-41 107z" />
    <glyph glyph-name="Gbreve.alt2" horiz-adv-x="707" 
d="M89 508.5q39 78.5 111 121t169 42.5q112 0 185.5 -54t94.5 -155l-112 -6q-15 64 -57.5 98t-110.5 34q-99 0 -157 -68.5t-58 -187.5v-4q0 -116 54.5 -187.5t150.5 -71.5q183 0 196 180h-160v86h258v-54q0 -146 -81 -220t-217 -74q-87 0 -156.5 42.5t-109 119t-39.5 175.5
q0 105 39 183.5zM284 888q-1 -37 21 -62t65 -25t64.5 24.5t21.5 62.5l79 -1q2 -64 -41 -107t-124 -43t-124 43t-41 107z" />
    <glyph glyph-name="Gbreve.alt3" horiz-adv-x="709" 
d="M369 589q-98 0 -156.5 -67t-58.5 -188v-4q0 -121 54.5 -190.5t149.5 -69.5q80 0 135 48.5t60 141.5h-174v90h269v-350h-77l-9 169q-19 -88 -77 -134.5t-144 -46.5q-87 0 -152.5 42t-101.5 119t-36 179q0 106 39 183.5t111.5 119t169.5 41.5q96 0 159.5 -38.5t92.5 -109.5
l-102 -34q-36 99 -152 99zM286 888q-1 -37 21 -62t65 -25t64.5 24.5t21.5 62.5l79 -1q2 -64 -41 -107t-124 -43t-124 43t-41 107z" />
    <glyph glyph-name="Gbreve.alt4" horiz-adv-x="709" 
d="M89.5 509.5q39.5 78.5 111.5 120.5t169 42t164.5 -41t98.5 -116l-106 -30q-18 49 -57.5 76t-100.5 27q-100 0 -157.5 -67t-57.5 -186v-5q0 -113 53 -185.5t152 -72.5q80 0 131.5 53.5t54.5 143.5v49h102v-318h-88l-8 142q-22 -72 -75.5 -112.5t-130.5 -40.5
q-89 0 -156 42.5t-103 118.5t-36 175q0 106 39.5 184.5zM283 888q-1 -37 21 -62t65 -25t64.5 24.5t21.5 62.5l79 -1q2 -64 -41 -107t-124 -43t-124 43t-41 107z" />
    <glyph glyph-name="Gcircumflex.alt" horiz-adv-x="709" 
d="M89.5 509.5q39.5 78.5 112 120.5t169.5 42q114 0 187 -57.5t91 -158.5l-113 -1q-14 62 -55 98t-112 36q-99 0 -157 -68.5t-58 -186.5v-5q0 -114 53 -186.5t151 -72.5q83 0 133.5 51t54.5 145l-2 49h103v-315h-87l-8 150q-21 -79 -75.5 -120.5t-134.5 -41.5
q-89 0 -155 42.5t-101.5 119t-35.5 175.5q0 106 39.5 184.5zM320 903h85l128 -155v-8h-90l-53 74l-24 41h-6l-24 -41l-53 -74h-90v8z" />
    <glyph glyph-name="Gcircumflex.alt2" horiz-adv-x="707" 
d="M89 508.5q39 78.5 111 121t169 42.5q112 0 185.5 -54t94.5 -155l-112 -6q-15 64 -57.5 98t-110.5 34q-99 0 -157 -68.5t-58 -187.5v-4q0 -116 54.5 -187.5t150.5 -71.5q183 0 196 180h-160v86h258v-54q0 -146 -81 -220t-217 -74q-87 0 -156.5 42.5t-109 119t-39.5 175.5
q0 105 39 183.5zM327 908h85l128 -155v-8h-90l-53 74l-24 41h-6l-24 -41l-53 -74h-90v8z" />
    <glyph glyph-name="Gcircumflex.alt3" horiz-adv-x="709" 
d="M369 589q-98 0 -156.5 -67t-58.5 -188v-4q0 -121 54.5 -190.5t149.5 -69.5q80 0 135 48.5t60 141.5h-174v90h269v-350h-77l-9 169q-19 -88 -77 -134.5t-144 -46.5q-87 0 -152.5 42t-101.5 119t-36 179q0 106 39 183.5t111.5 119t169.5 41.5q96 0 159.5 -38.5t92.5 -109.5
l-102 -34q-36 99 -152 99zM329 908h85l128 -155v-8h-90l-53 74l-24 41h-6l-24 -41l-53 -74h-90v8z" />
    <glyph glyph-name="Gcircumflex.alt4" horiz-adv-x="709" 
d="M89.5 509.5q39.5 78.5 111.5 120.5t169 42t164.5 -41t98.5 -116l-106 -30q-18 49 -57.5 76t-100.5 27q-100 0 -157.5 -67t-57.5 -186v-5q0 -113 53 -185.5t152 -72.5q80 0 131.5 53.5t54.5 143.5v49h102v-318h-88l-8 142q-22 -72 -75.5 -112.5t-130.5 -40.5
q-89 0 -156 42.5t-103 118.5t-36 175q0 106 39.5 184.5zM326 908h85l128 -155v-8h-90l-53 74l-24 41h-6l-24 -41l-53 -74h-90v8z" />
    <glyph glyph-name="Gcommaaccent.alt" horiz-adv-x="709" 
d="M89.5 509.5q39.5 78.5 112 120.5t169.5 42q114 0 187 -57.5t91 -158.5l-113 -1q-14 62 -55 98t-112 36q-99 0 -157 -68.5t-58 -186.5v-5q0 -114 53 -186.5t151 -72.5q83 0 133.5 51t54.5 145l-2 49h103v-315h-87l-8 150q-21 -79 -75.5 -120.5t-134.5 -41.5
q-89 0 -155 42.5t-101.5 119t-35.5 175.5q0 106 39.5 184.5zM294 -258q24 8 37 26.5t15 50.5h-40q-6 0 -6 7v86q0 4 3 6t6 2h93q7 0 7 -8v-56q0 -118 -102 -134z" />
    <glyph glyph-name="Gcommaaccent.alt2" horiz-adv-x="707" 
d="M89 508.5q39 78.5 111 121t169 42.5q112 0 185.5 -54t94.5 -155l-112 -6q-15 64 -57.5 98t-110.5 34q-99 0 -157 -68.5t-58 -187.5v-4q0 -116 54.5 -187.5t150.5 -71.5q183 0 196 180h-160v86h258v-54q0 -146 -81 -220t-217 -74q-87 0 -156.5 42.5t-109 119t-39.5 175.5
q0 105 39 183.5zM306 -259q24 8 37 26.5t15 50.5h-40q-6 0 -6 7v86q0 4 3 6t6 2h93q7 0 7 -8v-56q0 -118 -102 -134z" />
    <glyph glyph-name="Gcommaaccent.alt3" horiz-adv-x="709" 
d="M369 589q-98 0 -156.5 -67t-58.5 -188v-4q0 -121 54.5 -190.5t149.5 -69.5q80 0 135 48.5t60 141.5h-174v90h269v-350h-77l-9 169q-19 -88 -77 -134.5t-144 -46.5q-87 0 -152.5 42t-101.5 119t-36 179q0 106 39 183.5t111.5 119t169.5 41.5q96 0 159.5 -38.5t92.5 -109.5
l-102 -34q-36 99 -152 99zM297 -259q24 8 37 26.5t15 50.5h-40q-6 0 -6 7v86q0 4 3 6t6 2h93q7 0 7 -8v-56q0 -118 -102 -134z" />
    <glyph glyph-name="Gcommaaccent.alt4" horiz-adv-x="709" 
d="M89.5 509.5q39.5 78.5 111.5 120.5t169 42t164.5 -41t98.5 -116l-106 -30q-18 49 -57.5 76t-100.5 27q-100 0 -157.5 -67t-57.5 -186v-5q0 -113 53 -185.5t152 -72.5q80 0 131.5 53.5t54.5 143.5v49h102v-318h-88l-8 142q-22 -72 -75.5 -112.5t-130.5 -40.5
q-89 0 -156 42.5t-103 118.5t-36 175q0 106 39.5 184.5zM300 -259q24 8 37 26.5t15 50.5h-40q-6 0 -6 7v86q0 4 3 6t6 2h93q7 0 7 -8v-56q0 -118 -102 -134z" />
    <glyph glyph-name="Gdotaccent.alt" horiz-adv-x="709" 
d="M89.5 509.5q39.5 78.5 112 120.5t169.5 42q114 0 187 -57.5t91 -158.5l-113 -1q-14 62 -55 98t-112 36q-99 0 -157 -68.5t-58 -186.5v-5q0 -114 53 -186.5t151 -72.5q83 0 133.5 51t54.5 145l-2 49h103v-315h-87l-8 150q-21 -79 -75.5 -120.5t-134.5 -41.5
q-89 0 -155 42.5t-101.5 119t-35.5 175.5q0 106 39.5 184.5zM308 846q0 8 8 8h95q7 0 7 -8v-99q0 -7 -7 -7h-97q-6 0 -6 7v99z" />
    <glyph glyph-name="Gdotaccent.alt2" horiz-adv-x="707" 
d="M89 508.5q39 78.5 111 121t169 42.5q112 0 185.5 -54t94.5 -155l-112 -6q-15 64 -57.5 98t-110.5 34q-99 0 -157 -68.5t-58 -187.5v-4q0 -116 54.5 -187.5t150.5 -71.5q183 0 196 180h-160v86h258v-54q0 -146 -81 -220t-217 -74q-87 0 -156.5 42.5t-109 119t-39.5 175.5
q0 105 39 183.5zM315 851q0 8 8 8h95q7 0 7 -8v-99q0 -7 -7 -7h-97q-6 0 -6 7v99z" />
    <glyph glyph-name="Gdotaccent.alt3" horiz-adv-x="709" 
d="M369 589q-98 0 -156.5 -67t-58.5 -188v-4q0 -121 54.5 -190.5t149.5 -69.5q80 0 135 48.5t60 141.5h-174v90h269v-350h-77l-9 169q-19 -88 -77 -134.5t-144 -46.5q-87 0 -152.5 42t-101.5 119t-36 179q0 106 39 183.5t111.5 119t169.5 41.5q96 0 159.5 -38.5t92.5 -109.5
l-102 -34q-36 99 -152 99zM317 851q0 8 8 8h95q7 0 7 -8v-99q0 -7 -7 -7h-97q-6 0 -6 7v99z" />
    <glyph glyph-name="Gdotaccent.alt4" horiz-adv-x="709" 
d="M89.5 509.5q39.5 78.5 111.5 120.5t169 42t164.5 -41t98.5 -116l-106 -30q-18 49 -57.5 76t-100.5 27q-100 0 -157.5 -67t-57.5 -186v-5q0 -113 53 -185.5t152 -72.5q80 0 131.5 53.5t54.5 143.5v49h102v-318h-88l-8 142q-22 -72 -75.5 -112.5t-130.5 -40.5
q-89 0 -156 42.5t-103 118.5t-36 175q0 106 39.5 184.5zM314 851q0 8 8 8h95q7 0 7 -8v-99q0 -7 -7 -7h-97q-6 0 -6 7v99z" />
    <glyph glyph-name="IJ.alt" horiz-adv-x="849" 
d="M198 659v-659h-102v659h102zM333 277h98v-50q0 -77 29.5 -113t87.5 -36q65 0 91 35t26 111v435h101v-442q0 -109 -54 -169.5t-166 -60.5q-103 0 -158 59.5t-55 176.5v54z" />
    <glyph glyph-name="IJ_acutecomb" horiz-adv-x="824" 
d="M198 659v-659h-102v659h102zM415 206q7 -65 34.5 -96t79.5 -31q61 0 85.5 34.5t24.5 114.5v431h101v-442q0 -117 -52 -173.5t-157 -56.5q-99 0 -153.5 54t-62.5 150zM872 905v-12l-154 -155h-66l106 167h114zM872 905v-12l-154 -155h-66l106 167h114z" />
    <glyph glyph-name="IJ_acutecomb.alt" horiz-adv-x="849" 
d="M198 659v-659h-102v659h102zM333 277h98v-50q0 -77 29.5 -113t87.5 -36q65 0 91 35t26 111v435h101v-442q0 -109 -54 -169.5t-166 -60.5q-103 0 -158 59.5t-55 176.5v54zM900 905v-12l-154 -155h-66l106 167h114zM900 905v-12l-154 -155h-66l106 167h114z" />
    <glyph glyph-name="J.alt" horiz-adv-x="555" 
d="M39 277h98v-50q0 -77 29.5 -113t87.5 -36q65 0 91 35t26 111v435h101v-442q0 -109 -54 -169.5t-166 -60.5q-103 0 -158 59.5t-55 176.5v54z" />
    <glyph glyph-name="uni00A40301" horiz-adv-x="530" 
d="M121 206q7 -65 34.5 -96t79.5 -31q61 0 85.5 34.5t24.5 114.5v431h101v-442q0 -117 -52 -173.5t-157 -56.5q-99 0 -153.5 54t-62.5 150zM578 905v-12l-154 -155h-66l106 167h114z" />
    <glyph glyph-name="uni00A40301.alt" horiz-adv-x="555" 
d="M39 277h98v-50q0 -77 29.5 -113t87.5 -36q65 0 91 35t26 111v435h101v-442q0 -109 -54 -169.5t-166 -60.5q-103 0 -158 59.5t-55 176.5v54zM606 905v-12l-154 -155h-66l106 167h114z" />
    <glyph glyph-name="Jcircumflex.alt" horiz-adv-x="555" 
d="M39 277h98v-50q0 -77 29.5 -113t87.5 -36q65 0 91 35t26 111v435h101v-442q0 -109 -54 -169.5t-166 -60.5q-103 0 -158 59.5t-55 176.5v54zM379 903h85l128 -155v-8h-90l-53 74l-24 41h-6l-24 -41l-53 -74h-90v8z" />
    <glyph glyph-name="OE.alt" horiz-adv-x="1051" 
d="M87 508.5q37 77.5 106 120.5t162 43q75 0 127 -33.5t80 -96.5v117h440v-87h-342v-191h311v-85h-311v-209h353v-87h-451v120q-60 -131 -214 -131q-92 0 -159 42.5t-103 119.5t-36 179q0 101 37 178.5zM558 332q0 120 -51.5 188.5t-147.5 68.5t-150.5 -69t-54.5 -189v-2
q0 -120 53.5 -189.5t147.5 -69.5q96 0 149.5 69t53.5 190v3z" />
    <glyph glyph-name="Q.alt" horiz-adv-x="713" 
d="M86.5 508q36.5 78 106.5 121t166 43q93 0 162 -43.5t105.5 -121t36.5 -178.5q0 -95 -32 -168.5t-92 -117.5l81 -119h-101l-52 82q-56 -18 -114 -18q-94 0 -162.5 42t-104.5 119.5t-36 179.5q0 101 36.5 179zM328 214h94l62 -97q36 33 55 87t19 125v2q0 119 -53.5 188.5
t-147.5 69.5q-96 0 -149.5 -69t-53.5 -189v-3q0 -119 53.5 -188.5t147.5 -69.5q35 0 59 8z" />
    <glyph glyph-name="R.alt" horiz-adv-x="635" 
d="M328 659q115 0 173 -44.5t58 -131.5q0 -57 -34.5 -103t-109.5 -63q68 -15 103 -67.5t35 -137.5q0 -44 10 -69.5t31 -41.5v-1h-114q-20 13 -28 40t-8 85q0 75 -33.5 108t-108.5 33h-108v-266h-100v659h234zM419 380q37 36 37 89q0 54 -35 81.5t-119 27.5h-108v-234h109
q79 0 116 36z" />
    <glyph glyph-name="R.alt2" horiz-adv-x="645" 
d="M439.5 195.5q-16.5 39.5 -51.5 55t-98 15.5h-96v-266h-100v659h232q121 0 176.5 -47t55.5 -129q0 -58 -33.5 -104t-113.5 -64q70 -10 112 -69.5t43 -161.5q0 -9 3.5 -12.5t12.5 -7.5l25 -14v-1q-3 -25 -21 -41.5t-51 -16.5q-78 0 -78 89q-1 76 -17.5 115.5zM419 378
q36 35 36 91q0 52 -33.5 80t-121.5 28h-106v-234h114q75 0 111 35z" />
    <glyph glyph-name="R.alt3" horiz-adv-x="632" 
d="M329 659q115 0 172 -46t57 -131q0 -58 -25 -105t-95 -73l151 -304h-116l-124 263h-155v-263h-100v659h235zM455 468q0 51 -31.5 80.5t-119.5 29.5h-110v-238h113q148 0 148 128z" />
    <glyph glyph-name="Racute.alt" horiz-adv-x="635" 
d="M328 659q115 0 173 -44.5t58 -131.5q0 -57 -34.5 -103t-109.5 -63q68 -15 103 -67.5t35 -137.5q0 -44 10 -69.5t31 -41.5v-1h-114q-20 13 -28 40t-8 85q0 75 -33.5 108t-108.5 33h-108v-266h-100v659h234zM419 380q37 36 37 89q0 54 -35 81.5t-119 27.5h-108v-234h109
q79 0 116 36zM505 910v-12l-154 -155h-66l106 167h114z" />
    <glyph glyph-name="Racute.alt2" horiz-adv-x="645" 
d="M439.5 195.5q-16.5 39.5 -51.5 55t-98 15.5h-96v-266h-100v659h232q121 0 176.5 -47t55.5 -129q0 -58 -33.5 -104t-113.5 -64q70 -10 112 -69.5t43 -161.5q0 -9 3.5 -12.5t12.5 -7.5l25 -14v-1q-3 -25 -21 -41.5t-51 -16.5q-78 0 -78 89q-1 76 -17.5 115.5zM419 378
q36 35 36 91q0 52 -33.5 80t-121.5 28h-106v-234h114q75 0 111 35zM511 910v-12l-154 -155h-66l106 167h114z" />
    <glyph glyph-name="Racute.alt3" horiz-adv-x="632" 
d="M329 659q115 0 172 -46t57 -131q0 -58 -25 -105t-95 -73l151 -304h-116l-124 263h-155v-263h-100v659h235zM455 468q0 51 -31.5 80.5t-119.5 29.5h-110v-238h113q148 0 148 128zM503 910v-12l-154 -155h-66l106 167h114z" />
    <glyph glyph-name="Rcaron.alt" horiz-adv-x="635" 
d="M328 659q115 0 173 -44.5t58 -131.5q0 -57 -34.5 -103t-109.5 -63q68 -15 103 -67.5t35 -137.5q0 -44 10 -69.5t31 -41.5v-1h-114q-20 13 -28 40t-8 85q0 75 -33.5 108t-108.5 33h-108v-266h-100v659h234zM419 380q37 36 37 89q0 54 -35 81.5t-119 27.5h-108v-234h109
q79 0 116 36zM151 913h89l54 -78l24 -42h6l24 42l53 78h90v-8l-128 -160h-85l-127 160v8z" />
    <glyph glyph-name="Rcaron.alt2" horiz-adv-x="645" 
d="M439.5 195.5q-16.5 39.5 -51.5 55t-98 15.5h-96v-266h-100v659h232q121 0 176.5 -47t55.5 -129q0 -58 -33.5 -104t-113.5 -64q70 -10 112 -69.5t43 -161.5q0 -9 3.5 -12.5t12.5 -7.5l25 -14v-1q-3 -25 -21 -41.5t-51 -16.5q-78 0 -78 89q-1 76 -17.5 115.5zM419 378
q36 35 36 91q0 52 -33.5 80t-121.5 28h-106v-234h114q75 0 111 35zM157 913h89l54 -78l24 -42h6l24 42l53 78h90v-8l-128 -160h-85l-127 160v8z" />
    <glyph glyph-name="Rcaron.alt3" horiz-adv-x="632" 
d="M329 659q115 0 172 -46t57 -131q0 -58 -25 -105t-95 -73l151 -304h-116l-124 263h-155v-263h-100v659h235zM455 468q0 51 -31.5 80.5t-119.5 29.5h-110v-238h113q148 0 148 128zM149 913h89l54 -78l24 -42h6l24 42l53 78h90v-8l-128 -160h-85l-127 160v8z" />
    <glyph glyph-name="Rcommaaccent.alt" horiz-adv-x="635" 
d="M328 659q115 0 173 -44.5t58 -131.5q0 -57 -34.5 -103t-109.5 -63q68 -15 103 -67.5t35 -137.5q0 -44 10 -69.5t31 -41.5v-1h-114q-20 13 -28 40t-8 85q0 75 -33.5 108t-108.5 33h-108v-266h-100v659h234zM419 380q37 36 37 89q0 54 -35 81.5t-119 27.5h-108v-234h109
q79 0 116 36zM263 -259q24 8 37 26.5t15 50.5h-40q-6 0 -6 7v86q0 4 3 6t6 2h93q7 0 7 -8v-56q0 -118 -102 -134z" />
    <glyph glyph-name="Rcommaaccent.alt2" horiz-adv-x="645" 
d="M439.5 195.5q-16.5 39.5 -51.5 55t-98 15.5h-96v-266h-100v659h232q121 0 176.5 -47t55.5 -129q0 -58 -33.5 -104t-113.5 -64q70 -10 112 -69.5t43 -161.5q0 -9 3.5 -12.5t12.5 -7.5l25 -14v-1q-3 -25 -21 -41.5t-51 -16.5q-78 0 -78 89q-1 76 -17.5 115.5zM419 378
q36 35 36 91q0 52 -33.5 80t-121.5 28h-106v-234h114q75 0 111 35zM268 -259q24 8 37 26.5t15 50.5h-40q-6 0 -6 7v86q0 4 3 6t6 2h93q7 0 7 -8v-56q0 -118 -102 -134z" />
    <glyph glyph-name="Rcommaaccent.alt3" horiz-adv-x="632" 
d="M329 659q115 0 172 -46t57 -131q0 -58 -25 -105t-95 -73l151 -304h-116l-124 263h-155v-263h-100v659h235zM455 468q0 51 -31.5 80.5t-119.5 29.5h-110v-238h113q148 0 148 128zM263 -259q24 8 37 26.5t15 50.5h-40q-6 0 -6 7v86q0 4 3 6t6 2h93q7 0 7 -8v-56
q0 -118 -102 -134z" />
    <glyph glyph-name="S.alt" horiz-adv-x="575" 
d="M100 173q36 -41 88 -67t109 -26q64 0 98 28.5t34 74.5q0 32 -21.5 52t-53.5 31.5t-93 26.5q-103 26 -155 71t-52 117q0 56 29.5 98.5t81 65.5t114.5 23q77 0 139 -24t108 -66l-59 -77q-34 37 -82.5 58t-104.5 21q-60 0 -94 -25.5t-34 -66.5q0 -40 39.5 -64.5t133.5 -48.5
q106 -26 155 -68t49 -118q0 -55 -27.5 -100t-80 -71.5t-124.5 -26.5q-153 0 -259 102z" />
    <glyph glyph-name="Sacute.alt" horiz-adv-x="575" 
d="M100 173q36 -41 88 -67t109 -26q64 0 98 28.5t34 74.5q0 32 -21.5 52t-53.5 31.5t-93 26.5q-103 26 -155 71t-52 117q0 56 29.5 98.5t81 65.5t114.5 23q77 0 139 -24t108 -66l-59 -77q-34 37 -82.5 58t-104.5 21q-60 0 -94 -25.5t-34 -66.5q0 -40 39.5 -64.5t133.5 -48.5
q106 -26 155 -68t49 -118q0 -55 -27.5 -100t-80 -71.5t-124.5 -26.5q-153 0 -259 102zM478 905v-12l-154 -155h-66l106 167h114z" />
    <glyph glyph-name="Scaron.alt" horiz-adv-x="575" 
d="M100 173q36 -41 88 -67t109 -26q64 0 98 28.5t34 74.5q0 32 -21.5 52t-53.5 31.5t-93 26.5q-103 26 -155 71t-52 117q0 56 29.5 98.5t81 65.5t114.5 23q77 0 139 -24t108 -66l-59 -77q-34 37 -82.5 58t-104.5 21q-60 0 -94 -25.5t-34 -66.5q0 -40 39.5 -64.5t133.5 -48.5
q106 -26 155 -68t49 -118q0 -55 -27.5 -100t-80 -71.5t-124.5 -26.5q-153 0 -259 102zM124 908h89l54 -78l24 -42h6l24 42l53 78h90v-8l-128 -160h-85l-127 160v8z" />
    <glyph glyph-name="Scedilla.alt" horiz-adv-x="575" 
d="M190 -148q18 -9 51 -9q28 0 43 15t15 41q0 28 -18 54t-52 43q-109 17 -191 97l62 80q36 -41 88 -67t109 -26q64 0 98 28.5t34 74.5q0 32 -21.5 52t-53.5 31.5t-93 26.5q-103 26 -155 71t-52 117q0 56 29.5 98.5t81 65.5t114.5 23q77 0 139 -24t108 -66l-59 -77
q-34 37 -82.5 58t-104.5 21q-60 0 -94 -25.5t-34 -66.5q0 -40 39.5 -64.5t133.5 -48.5q106 -26 155 -68t49 -118q0 -54 -26.5 -98.5t-77.5 -71.5t-121 -28q34 -22 53.5 -53t19.5 -66q0 -47 -30.5 -75.5t-88.5 -28.5q-44 0 -68 14v70z" />
    <glyph glyph-name="Scircumflex.alt" horiz-adv-x="575" 
d="M100 173q36 -41 88 -67t109 -26q64 0 98 28.5t34 74.5q0 32 -21.5 52t-53.5 31.5t-93 26.5q-103 26 -155 71t-52 117q0 56 29.5 98.5t81 65.5t114.5 23q77 0 139 -24t108 -66l-59 -77q-34 37 -82.5 58t-104.5 21q-60 0 -94 -25.5t-34 -66.5q0 -40 39.5 -64.5t133.5 -48.5
q106 -26 155 -68t49 -118q0 -55 -27.5 -100t-80 -71.5t-124.5 -26.5q-153 0 -259 102zM251 903h85l128 -155v-8h-90l-53 74l-24 41h-6l-24 -41l-53 -74h-90v8z" />
    <glyph glyph-name="Scommaaccent.alt" horiz-adv-x="575" 
d="M100 173q36 -41 88 -67t109 -26q64 0 98 28.5t34 74.5q0 32 -21.5 52t-53.5 31.5t-93 26.5q-103 26 -155 71t-52 117q0 56 29.5 98.5t81 65.5t114.5 23q77 0 139 -24t108 -66l-59 -77q-34 37 -82.5 58t-104.5 21q-60 0 -94 -25.5t-34 -66.5q0 -40 39.5 -64.5t133.5 -48.5
q106 -26 155 -68t49 -118q0 -55 -27.5 -100t-80 -71.5t-124.5 -26.5q-153 0 -259 102zM230 -258q24 8 37 26.5t15 50.5h-40q-6 0 -6 7v86q0 4 3 6t6 2h93q7 0 7 -8v-56q0 -118 -102 -134z" />
    <glyph glyph-name="a.alt" horiz-adv-x="540" 
d="M86.5 229.5q44.5 33.5 127.5 50.5q77 15 109 24.5t34 21.5v11q1 46 -24.5 70.5t-76.5 24.5q-43 0 -76 -20t-51 -51l-77 42q27 49 84.5 77.5t129.5 28.5q188 0 188 -179v-197q0 -39 9.5 -52t28.5 -13q16 0 26 2v-73q-17 -6 -54 -6q-78 0 -96 72q-5 19 -7 39
q-22 -51 -67.5 -82t-101.5 -31q-70 0 -110 38.5t-40 102.5q0 66 44.5 99.5zM357 279q-19 -24 -88 -40q-65 -17 -95.5 -38.5t-30.5 -61.5q0 -36 22.5 -56t56.5 -20q50 0 89 31.5t46 85.5v99z" />
    <glyph glyph-name="a.alt2" horiz-adv-x="593" 
d="M74 393.5q26 58.5 71.5 87.5t103.5 29q56 0 100.5 -33t66.5 -87l12 107h84v-497h-97l5 136q-16 -62 -63.5 -102.5t-110.5 -40.5q-93 0 -145.5 69t-52.5 189q0 84 26 142.5zM416 269q0 73 -36.5 119.5t-101.5 46.5q-58 0 -90.5 -48t-32.5 -131q0 -88 31.5 -137.5
t89.5 -49.5q43 0 75 26.5t48.5 67t16.5 80.5v26z" />
    <glyph glyph-name="a.sups" horiz-adv-x="388" 
d="M66.5 476.5q30.5 22.5 89.5 33.5q91 19 96 28v9q0 26 -14.5 40.5t-46.5 14.5q-28 0 -51.5 -14.5t-31.5 -35.5l-67 32q17 35 60 56t92 21q136 0 136 -122v-116q0 -84 20 -101h-83q-4 2 -8.5 22t-5.5 45q-12 -34 -42.5 -54t-69.5 -20q-48 0 -76 26t-28 69q0 44 30.5 66.5z
M251 502q-11 -12 -51 -22q-42 -11 -61 -24.5t-19 -37.5q0 -21 13.5 -33.5t32.5 -12.5q32 0 58.5 17.5t26.5 46.5v66z" />
    <glyph glyph-name="aacute.alt" horiz-adv-x="540" 
d="M86.5 229.5q44.5 33.5 127.5 50.5q77 15 109 24.5t34 21.5v11q1 46 -24.5 70.5t-76.5 24.5q-43 0 -76 -20t-51 -51l-77 42q27 49 84.5 77.5t129.5 28.5q188 0 188 -179v-197q0 -39 9.5 -52t28.5 -13q16 0 26 2v-73q-17 -6 -54 -6q-78 0 -96 72q-5 19 -7 39
q-22 -51 -67.5 -82t-101.5 -31q-70 0 -110 38.5t-40 102.5q0 66 44.5 99.5zM357 279q-19 -24 -88 -40q-65 -17 -95.5 -38.5t-30.5 -61.5q0 -36 22.5 -56t56.5 -20q50 0 89 31.5t46 85.5v99zM456 760v-13l-150 -164h-65l104 177h111z" />
    <glyph glyph-name="aacute.alt2" horiz-adv-x="593" 
d="M74 393.5q26 58.5 71.5 87.5t103.5 29q56 0 100.5 -33t66.5 -87l12 107h84v-497h-97l5 136q-16 -62 -63.5 -102.5t-110.5 -40.5q-93 0 -145.5 69t-52.5 189q0 84 26 142.5zM416 269q0 73 -36.5 119.5t-101.5 46.5q-58 0 -90.5 -48t-32.5 -131q0 -88 31.5 -137.5
t89.5 -49.5q43 0 75 26.5t48.5 67t16.5 80.5v26zM474 760v-13l-150 -164h-65l104 177h111z" />
    <glyph glyph-name="abreve.alt" horiz-adv-x="540" 
d="M86.5 229.5q44.5 33.5 127.5 50.5q77 15 109 24.5t34 21.5v11q1 46 -24.5 70.5t-76.5 24.5q-43 0 -76 -20t-51 -51l-77 42q27 49 84.5 77.5t129.5 28.5q188 0 188 -179v-197q0 -39 9.5 -52t28.5 -13q16 0 26 2v-73q-17 -6 -54 -6q-78 0 -96 72q-5 19 -7 39
q-22 -51 -67.5 -82t-101.5 -31q-70 0 -110 38.5t-40 102.5q0 66 44.5 99.5zM357 279q-19 -24 -88 -40q-65 -17 -95.5 -38.5t-30.5 -61.5q0 -36 22.5 -56t56.5 -20q50 0 89 31.5t46 85.5v99zM192 744q-1 -46 19.5 -74t63.5 -28t63 27t20 75h79q2 -75 -40 -121t-122 -46
t-122 46t-40 121h79z" />
    <glyph glyph-name="abreve.alt2" horiz-adv-x="593" 
d="M74 393.5q26 58.5 71.5 87.5t103.5 29q56 0 100.5 -33t66.5 -87l12 107h84v-497h-97l5 136q-16 -62 -63.5 -102.5t-110.5 -40.5q-93 0 -145.5 69t-52.5 189q0 84 26 142.5zM416 269q0 73 -36.5 119.5t-101.5 46.5q-58 0 -90.5 -48t-32.5 -131q0 -88 31.5 -137.5
t89.5 -49.5q43 0 75 26.5t48.5 67t16.5 80.5v26zM210 744q-1 -46 19.5 -74t63.5 -28t63 27t20 75h79q2 -75 -40 -121t-122 -46t-122 46t-40 121h79z" />
    <glyph glyph-name="acircumflex.alt" horiz-adv-x="540" 
d="M86.5 229.5q44.5 33.5 127.5 50.5q77 15 109 24.5t34 21.5v11q1 46 -24.5 70.5t-76.5 24.5q-43 0 -76 -20t-51 -51l-77 42q27 49 84.5 77.5t129.5 28.5q188 0 188 -179v-197q0 -39 9.5 -52t28.5 -13q16 0 26 2v-73q-17 -6 -54 -6q-78 0 -96 72q-5 19 -7 39
q-22 -51 -67.5 -82t-101.5 -31q-70 0 -110 38.5t-40 102.5q0 66 44.5 99.5zM357 279q-19 -24 -88 -40q-65 -17 -95.5 -38.5t-30.5 -61.5q0 -36 22.5 -56t56.5 -20q50 0 89 31.5t46 85.5v99zM233 760h83l128 -169v-8h-90l-53 86l-24 43h-5l-25 -43l-53 -86h-88v8z" />
    <glyph glyph-name="acircumflex.alt2" horiz-adv-x="593" 
d="M74 393.5q26 58.5 71.5 87.5t103.5 29q56 0 100.5 -33t66.5 -87l12 107h84v-497h-97l5 136q-16 -62 -63.5 -102.5t-110.5 -40.5q-93 0 -145.5 69t-52.5 189q0 84 26 142.5zM416 269q0 73 -36.5 119.5t-101.5 46.5q-58 0 -90.5 -48t-32.5 -131q0 -88 31.5 -137.5
t89.5 -49.5q43 0 75 26.5t48.5 67t16.5 80.5v26zM251 760h83l128 -169v-8h-90l-53 86l-24 43h-5l-25 -43l-53 -86h-88v8z" />
    <glyph glyph-name="adieresis.alt" horiz-adv-x="540" 
d="M86.5 229.5q44.5 33.5 127.5 50.5q77 15 109 24.5t34 21.5v11q1 46 -24.5 70.5t-76.5 24.5q-43 0 -76 -20t-51 -51l-77 42q27 49 84.5 77.5t129.5 28.5q188 0 188 -179v-197q0 -39 9.5 -52t28.5 -13q16 0 26 2v-73q-17 -6 -54 -6q-78 0 -96 72q-5 19 -7 39
q-22 -51 -67.5 -82t-101.5 -31q-70 0 -110 38.5t-40 102.5q0 66 44.5 99.5zM357 279q-19 -24 -88 -40q-65 -17 -95.5 -38.5t-30.5 -61.5q0 -36 22.5 -56t56.5 -20q50 0 89 31.5t46 85.5v99zM127 689q0 8 8 8h76q7 0 7 -8v-99q0 -7 -7 -7h-78q-6 0 -6 7v99zM332 689q0 8 8 8
h76q7 0 7 -8v-99q0 -7 -7 -7h-78q-6 0 -6 7v99z" />
    <glyph glyph-name="adieresis.alt2" horiz-adv-x="593" 
d="M74 393.5q26 58.5 71.5 87.5t103.5 29q56 0 100.5 -33t66.5 -87l12 107h84v-497h-97l5 136q-16 -62 -63.5 -102.5t-110.5 -40.5q-93 0 -145.5 69t-52.5 189q0 84 26 142.5zM416 269q0 73 -36.5 119.5t-101.5 46.5q-58 0 -90.5 -48t-32.5 -131q0 -88 31.5 -137.5
t89.5 -49.5q43 0 75 26.5t48.5 67t16.5 80.5v26zM145 689q0 8 8 8h76q7 0 7 -8v-99q0 -7 -7 -7h-78q-6 0 -6 7v99zM350 689q0 8 8 8h76q7 0 7 -8v-99q0 -7 -7 -7h-78q-6 0 -6 7v99z" />
    <glyph glyph-name="ae.alt" horiz-adv-x="852" 
d="M87 228.5q44 34.5 130 51.5q79 17 108 26.5t30 23.5v8q0 46 -24.5 69.5t-76.5 23.5q-43 0 -77 -21t-51 -55l-77 40q26 52 84.5 82.5t131.5 30.5q62 0 101 -20t57 -61q28 41 71.5 62.5t100.5 21.5q108 0 159.5 -67t51.5 -180q0 -32 -1 -38h-341q4 -81 40.5 -120.5
t99.5 -39.5q42 0 70.5 16.5t48.5 50.5l74 -44q-29 -49 -79.5 -74.5t-120.5 -25.5q-84 0 -137.5 41.5t-73.5 121.5q-18 -82 -71.5 -121.5t-121.5 -39.5q-72 0 -111.5 37.5t-39.5 99.5q1 66 45 100.5zM703 292q-1 71 -26 107.5t-86 36.5q-57 0 -89 -37t-37 -107h238zM355 282
q-18 -28 -84 -42q-66 -16 -97 -39.5t-31 -62.5q0 -35 22 -54.5t56 -19.5q51 0 88 31.5t46 81.5v105z" />
    <glyph glyph-name="aeacute.alt" horiz-adv-x="852" 
d="M87 228.5q44 34.5 130 51.5q79 17 108 26.5t30 23.5v8q0 46 -24.5 69.5t-76.5 23.5q-43 0 -77 -21t-51 -55l-77 40q26 52 84.5 82.5t131.5 30.5q62 0 101 -20t57 -61q28 41 71.5 62.5t100.5 21.5q108 0 159.5 -67t51.5 -180q0 -32 -1 -38h-341q4 -81 40.5 -120.5
t99.5 -39.5q42 0 70.5 16.5t48.5 50.5l74 -44q-29 -49 -79.5 -74.5t-120.5 -25.5q-84 0 -137.5 41.5t-73.5 121.5q-18 -82 -71.5 -121.5t-121.5 -39.5q-72 0 -111.5 37.5t-39.5 99.5q1 66 45 100.5zM703 292q-1 71 -26 107.5t-86 36.5q-57 0 -89 -37t-37 -107h238zM355 282
q-18 -28 -84 -42q-66 -16 -97 -39.5t-31 -62.5q0 -35 22 -54.5t56 -19.5q51 0 88 31.5t46 81.5v105zM602 760v-13l-150 -164h-65l104 177h111z" />
    <glyph glyph-name="agrave.alt" horiz-adv-x="540" 
d="M86.5 229.5q44.5 33.5 127.5 50.5q77 15 109 24.5t34 21.5v11q1 46 -24.5 70.5t-76.5 24.5q-43 0 -76 -20t-51 -51l-77 42q27 49 84.5 77.5t129.5 28.5q188 0 188 -179v-197q0 -39 9.5 -52t28.5 -13q16 0 26 2v-73q-17 -6 -54 -6q-78 0 -96 72q-5 19 -7 39
q-22 -51 -67.5 -82t-101.5 -31q-70 0 -110 38.5t-40 102.5q0 66 44.5 99.5zM357 279q-19 -24 -88 -40q-65 -17 -95.5 -38.5t-30.5 -61.5q0 -36 22.5 -56t56.5 -20q50 0 89 31.5t46 85.5v99zM94 760h111l104 -177h-65l-150 164v13z" />
    <glyph glyph-name="agrave.alt2" horiz-adv-x="593" 
d="M74 393.5q26 58.5 71.5 87.5t103.5 29q56 0 100.5 -33t66.5 -87l12 107h84v-497h-97l5 136q-16 -62 -63.5 -102.5t-110.5 -40.5q-93 0 -145.5 69t-52.5 189q0 84 26 142.5zM416 269q0 73 -36.5 119.5t-101.5 46.5q-58 0 -90.5 -48t-32.5 -131q0 -88 31.5 -137.5
t89.5 -49.5q43 0 75 26.5t48.5 67t16.5 80.5v26zM112 760h111l104 -177h-65l-150 164v13z" />
    <glyph glyph-name="amacron.alt" horiz-adv-x="540" 
d="M86.5 229.5q44.5 33.5 127.5 50.5q77 15 109 24.5t34 21.5v11q1 46 -24.5 70.5t-76.5 24.5q-43 0 -76 -20t-51 -51l-77 42q27 49 84.5 77.5t129.5 28.5q188 0 188 -179v-197q0 -39 9.5 -52t28.5 -13q16 0 26 2v-73q-17 -6 -54 -6q-78 0 -96 72q-5 19 -7 39
q-22 -51 -67.5 -82t-101.5 -31q-70 0 -110 38.5t-40 102.5q0 66 44.5 99.5zM357 279q-19 -24 -88 -40q-65 -17 -95.5 -38.5t-30.5 -61.5q0 -36 22.5 -56t56.5 -20q50 0 89 31.5t46 85.5v99zM411 675v-73h-272v73h272z" />
    <glyph glyph-name="amacron.alt2" horiz-adv-x="593" 
d="M74 393.5q26 58.5 71.5 87.5t103.5 29q56 0 100.5 -33t66.5 -87l12 107h84v-497h-97l5 136q-16 -62 -63.5 -102.5t-110.5 -40.5q-93 0 -145.5 69t-52.5 189q0 84 26 142.5zM416 269q0 73 -36.5 119.5t-101.5 46.5q-58 0 -90.5 -48t-32.5 -131q0 -88 31.5 -137.5
t89.5 -49.5q43 0 75 26.5t48.5 67t16.5 80.5v26zM429 675v-73h-272v73h272z" />
    <glyph glyph-name="aogonek.alt" horiz-adv-x="540" 
d="M340.5 -57.5q27.5 33.5 75.5 57.5q-37 15 -48 63q-5 19 -7 39q-22 -51 -67.5 -82t-101.5 -31q-70 0 -110 38.5t-40 102.5q0 66 44.5 99.5t127.5 50.5q77 15 109 24.5t34 21.5v11q1 46 -24.5 70.5t-76.5 24.5q-43 0 -76 -20t-51 -51l-77 42q27 49 84.5 77.5t129.5 28.5
q188 0 188 -179v-197q0 -39 9.5 -52t28.5 -13q16 0 26 2v-73q-14 -4 -37 -6q-40 -19 -63 -44.5t-23 -56.5q0 -27 16.5 -41t46.5 -14q34 0 45 7v-71q-25 -9 -62 -9q-58 0 -93 29.5t-35 75.5q0 42 27.5 75.5zM357 279q-19 -24 -88 -40q-65 -17 -95.5 -38.5t-30.5 -61.5
q0 -36 22.5 -56t56.5 -20q50 0 89 31.5t46 85.5v99z" />
    <glyph glyph-name="aogonek.alt2" horiz-adv-x="593" 
d="M74 393.5q26 58.5 71.5 87.5t103.5 29q56 0 100.5 -33t66.5 -87l12 107h84v-497h-2q-47 -19 -76 -47.5t-29 -62.5q0 -27 16 -41t45 -14q32 0 46 7v-70q-28 -10 -62 -10q-57 0 -91.5 29.5t-34.5 75.5q0 42 27.5 75.5t75.5 57.5h-12l5 136q-16 -62 -63.5 -102.5
t-110.5 -40.5q-93 0 -145.5 69t-52.5 189q0 84 26 142.5zM416 269q0 73 -36.5 119.5t-101.5 46.5q-58 0 -90.5 -48t-32.5 -131q0 -88 31.5 -137.5t89.5 -49.5q43 0 75 26.5t48.5 67t16.5 80.5v26z" />
    </font>
</defs>
</svg>
