<svg width="58" height="58" viewBox="0 0 58 58" fill="none" xmlns="http://www.w3.org/2000/svg">
<rect width="58" height="58" rx="4" fill="#FACFCA"/>
<g clip-path="url(#clip0_3_4669)">
<g filter="url(#filter0_d_3_4669)">
<path d="M39 30H34C32.625 30 31.5 31.125 31.5 32.5V40C31.5 41.375 32.625 42.5 34 42.5H39C40.375 42.5 41.5 41.375 41.5 40V32.5C41.5 31.125 40.375 30 39 30Z" fill="white"/>
<path d="M24 17.5H19C17.625 17.5 16.5 18.625 16.5 20V27.5C16.5 28.875 17.625 30 19 30H24C25.375 30 26.5 28.875 26.5 27.5V20C26.5 18.625 25.375 17.5 24 17.5Z" fill="white"/>
<path d="M39 17.5H34C32.625 17.5 31.5 18.625 31.5 20V22.5C31.5 23.875 32.625 25 34 25H39C40.375 25 41.5 23.875 41.5 22.5V20C41.5 18.625 40.375 17.5 39 17.5Z" fill="white"/>
<path d="M24 35H19C17.625 35 16.5 36.125 16.5 37.5V40C16.5 41.375 17.625 42.5 19 42.5H24C25.375 42.5 26.5 41.375 26.5 40V37.5C26.5 36.125 25.375 35 24 35Z" fill="white"/>
</g>
</g>
<defs>
<filter id="filter0_d_3_4669" x="14.5" y="17.5" width="33" height="33" filterUnits="userSpaceOnUse" color-interpolation-filters="sRGB">
<feFlood flood-opacity="0" result="BackgroundImageFix"/>
<feColorMatrix in="SourceAlpha" type="matrix" values="0 0 0 0 0 0 0 0 0 0 0 0 0 0 0 0 0 0 127 0" result="hardAlpha"/>
<feOffset dx="2" dy="4"/>
<feGaussianBlur stdDeviation="2"/>
<feColorMatrix type="matrix" values="0 0 0 0 0.270588 0 0 0 0 0.345098 0 0 0 0 0.501961 0 0 0 0.2 0"/>
<feBlend mode="normal" in2="BackgroundImageFix" result="effect1_dropShadow_3_4669"/>
<feBlend mode="normal" in="SourceGraphic" in2="effect1_dropShadow_3_4669" result="shape"/>
</filter>
<clipPath id="clip0_3_4669">
<rect width="30" height="30" fill="white" transform="translate(14 15)"/>
</clipPath>
</defs>
</svg>
