<svg width="29" height="29" viewBox="0 0 29 29" fill="none" xmlns="http://www.w3.org/2000/svg">
<path d="M25.6542 10.7591L19.7089 14.2294L27.6689 19.9656V7.25C27.6689 8.68925 26.8968 10.0338 25.6542 10.7591Z" fill="#53C07E"/>
<path d="M8.39034 9.97627L16.1036 14.4785C16.3112 14.5998 16.5484 14.6639 16.7891 14.6639H16.7988C17.0395 14.6639 17.2767 14.5998 17.4838 14.4788L18.6389 13.8045C18.6415 13.8029 18.6441 13.8015 18.6467 13.8L25.1976 9.97627C26.1631 9.41274 26.7627 8.36821 26.7627 7.25V6.79688H6.8252V7.25C6.8252 8.36821 7.42479 9.41274 8.39034 9.97627Z" fill="#53C07E"/>
<path d="M13.8792 14.2281L7.93422 10.7572C6.69267 10.0322 5.91781 8.69093 5.91781 7.25V12.2344H3.40198C3.15152 12.2344 2.94885 12.4373 2.94885 12.6875C2.94885 12.9377 3.15152 13.1406 3.40198 13.1406H5.91781H7.64648H9.00813C9.75579 13.1406 10.3675 13.7523 10.3675 14.5C10.3675 15.2476 9.75579 15.8594 9.00813 15.8594H8.55273H5.91781H2.94885C2.69839 15.8594 2.49573 16.0623 2.49573 16.3125C2.49573 16.5627 2.69839 16.7656 2.94885 16.7656H5.91781V19.9647L13.8792 14.2281Z" fill="#53C07E"/>
<path d="M17.9409 15.2613C17.5953 15.4633 17.2002 15.5702 16.7988 15.5702C16.7988 15.5702 16.7931 15.5702 16.7926 15.5702C16.3877 15.5702 15.9926 15.4633 15.6465 15.2611L14.7356 14.7294L5.91895 21.0831V21.75C5.91895 22.0002 6.12161 22.2031 6.37207 22.2031H27.2158C27.4663 22.2031 27.6689 22.0002 27.6689 21.75V21.0831L18.8521 14.7294L17.9409 15.2613Z" fill="#53C07E"/>
<path d="M9.45898 14.5C9.45898 14.2498 9.25632 14.0469 9.00586 14.0469H1.78418C1.53372 14.0469 1.33105 14.2498 1.33105 14.5C1.33105 14.7502 1.53372 14.9531 1.78418 14.9531H9.00586C9.25632 14.9531 9.45898 14.7502 9.45898 14.5Z" fill="#53C07E"/>
</svg>
