<svg width="16" height="15" viewBox="0 0 16 15" fill="none" xmlns="http://www.w3.org/2000/svg">
<path d="M15.8991 2.59814C15.315 2.86028 14.6864 3.03711 14.0268 3.11624C14.7003 2.70919 15.2166 2.06442 15.4602 1.29525C14.8302 1.67267 14.1329 1.94654 13.3901 2.09438C12.7957 1.45482 11.9484 1.05493 11.0107 1.05493C9.21064 1.05493 7.75115 2.52846 7.75115 4.34618C7.75115 4.60376 7.77986 4.85483 7.83566 5.09613C5.12633 4.95871 2.72405 3.64866 1.1162 1.65737C0.835588 2.14322 0.674964 2.70853 0.674964 3.31227C0.674964 4.45397 1.25037 5.4615 2.1251 6.05156C1.59097 6.0343 1.08814 5.88613 0.648515 5.63962C0.648193 5.6533 0.648193 5.6673 0.648193 5.68131C0.648193 7.27564 1.77192 8.60556 3.26334 8.9084C2.98983 8.9833 2.7018 9.02368 2.40442 9.02368C2.19412 9.02368 1.98996 9.00317 1.79095 8.96442C2.20606 10.2719 3.40977 11.2237 4.83604 11.2501C3.72038 12.1329 2.31508 12.6591 0.78753 12.6591C0.52466 12.6591 0.265016 12.6435 0.0098877 12.6129C1.45293 13.5472 3.16626 14.0916 5.00699 14.0916C11.0033 14.0916 14.2819 9.07676 14.2819 4.72751C14.2819 4.58487 14.279 4.44257 14.2729 4.30124C14.9096 3.83818 15.4624 3.25822 15.8991 2.59814Z" fill="#1E266D"/>
</svg>
