<svg width="16" height="16" viewBox="0 0 16 16" fill="none" xmlns="http://www.w3.org/2000/svg">
<path d="M12.2524 1.36353H3.66887C2.17789 1.36353 0.964905 2.57623 0.964905 4.06721V6.9233V12.651C0.964905 14.142 2.17789 15.3547 3.66887 15.3547H12.2526C13.7436 15.3547 14.9563 14.142 14.9563 12.651V6.92301V4.06693C14.956 2.57595 13.7433 1.36353 12.2524 1.36353ZM13.0279 2.97586L13.3372 2.97473V3.28263V5.34624L10.9736 5.35386L10.9654 2.98263L13.0279 2.97586ZM5.96362 6.92301C6.41179 6.30297 7.13879 5.89629 7.96062 5.89629C8.78245 5.89629 9.50945 6.30297 9.95706 6.92301C10.2486 7.32772 10.4233 7.82274 10.4233 8.35896C10.4233 9.71673 9.31754 10.8213 7.96034 10.8213C6.60228 10.8213 5.49767 9.71673 5.49767 8.35896C5.49795 7.82274 5.67208 7.32772 5.96362 6.92301ZM13.5929 12.6507C13.5929 13.3904 12.9915 13.9913 12.2524 13.9913H3.66887C2.92945 13.9913 2.32804 13.3904 2.32804 12.6507V6.92301H4.41648C4.23614 7.36667 4.13482 7.85124 4.13482 8.35896C4.13482 10.468 5.85073 12.185 7.96062 12.185C10.0702 12.185 11.7861 10.468 11.7861 8.35896C11.7861 7.85124 11.6843 7.36667 11.5039 6.92301H13.5929V12.6507Z" fill="#1E266D"/>
</svg>
