<svg width="16" height="16" viewBox="0 0 16 16" fill="none" xmlns="http://www.w3.org/2000/svg">
<g clip-path="url(#clip0_3_4557)">
<path d="M8.06506 8.19522C8.12971 8.17378 8.19501 8.15461 8.26064 8.13545C8.13621 7.85378 8.00041 7.57147 7.85844 7.29272C5.30527 8.05748 2.8554 8.00225 2.76768 7.999C2.76606 8.05228 2.76346 8.10361 2.76346 8.15689C2.76346 9.43104 3.24395 10.5921 4.03404 11.4703C4.03339 11.469 4.03209 11.4677 4.03209 11.4677C4.03209 11.4677 5.38941 9.06068 8.06506 8.19522Z" fill="#1E266D"/>
<path d="M7.44715 6.52962C6.58916 5.00467 5.67237 3.7604 5.60642 3.67236C4.22344 4.32536 3.19131 5.59951 2.86969 7.13519C3.00029 7.13648 5.06648 7.16247 7.44715 6.52962Z" fill="#1E266D"/>
<path d="M10.9967 4.43577C10.1234 3.66614 8.97695 3.19897 7.72196 3.19897C7.31912 3.19897 6.9283 3.24771 6.55307 3.33802C6.62779 3.43776 7.55953 4.67357 8.40712 6.23102C10.2784 5.52896 10.9847 4.45396 10.9967 4.43577Z" fill="#1E266D"/>
<path d="M6.53457 3.34302C6.52873 3.34367 6.52385 3.34432 6.51801 3.34692C6.52743 3.34432 6.53327 3.34302 6.53327 3.34302H6.53457Z" fill="#1E266D"/>
<path d="M4.67401 12.0658L4.67499 12.0639C4.63828 12.0353 4.59929 12.0093 4.56323 11.9788C4.62918 12.0324 4.67401 12.0658 4.67401 12.0658Z" fill="#1E266D"/>
<path d="M8.78854 6.96956C8.90387 7.20639 9.01498 7.4468 9.11862 7.6885C9.15468 7.77557 9.19041 7.86036 9.22517 7.94548C10.9288 7.73106 12.6071 8.09199 12.6789 8.10661C12.6675 6.9309 12.2468 5.85232 11.5513 5.00732C11.5415 5.02064 10.7466 6.17004 8.78854 6.96956Z" fill="#1E266D"/>
<path d="M8.56567 8.96808C5.63921 9.9885 4.68408 12.0443 4.67499 12.0638C5.51608 12.7204 6.57192 13.1151 7.72165 13.1151C8.4081 13.1151 9.0624 12.9754 9.65757 12.7223C9.58382 12.2889 9.29598 10.7705 8.59783 8.95703C8.58743 8.96125 8.57671 8.9645 8.56567 8.96808Z" fill="#1E266D"/>
<path d="M7.72198 0.157227C3.30371 0.157227 -0.278015 3.7396 -0.278015 8.15723C-0.278015 12.5755 3.30339 16.1566 7.72198 16.1566C12.1403 16.1566 15.722 12.5755 15.722 8.15723C15.722 3.7396 12.1399 0.157227 7.72198 0.157227ZM13.0713 10.4174C12.9261 10.7621 12.7458 11.0938 12.536 11.4034C12.3284 11.711 12.0899 11.9998 11.8271 12.2626C11.5643 12.5248 11.2758 12.7633 10.9684 12.9715C10.6582 13.1811 10.3255 13.361 9.9818 13.5069C9.63094 13.6547 9.26416 13.7684 8.8912 13.8451C8.5085 13.9237 8.11508 13.9637 7.72166 13.9637C7.32824 13.9637 6.93482 13.9237 6.55212 13.8451C6.17916 13.7684 5.81173 13.6547 5.46152 13.5069C5.11715 13.361 4.78481 13.1807 4.47455 12.9715C4.16755 12.7633 3.87841 12.5248 3.61591 12.2626C3.35309 11.9998 3.11463 11.7113 2.90704 11.4034C2.6975 11.0938 2.51752 10.7617 2.37165 10.4174C2.22351 10.0665 2.10948 9.69972 2.03281 9.32612C1.95516 8.94342 1.91553 8.55065 1.91553 8.15723C1.91553 7.7638 1.95516 7.37038 2.03281 6.98833C2.10948 6.61473 2.22351 6.2473 2.37165 5.89708C2.51752 5.55239 2.69782 5.22005 2.90704 4.91012C3.11463 4.60247 3.35309 4.3143 3.61591 4.05083C3.87841 3.78866 4.16722 3.55085 4.47455 3.34261C4.78481 3.13274 5.11715 2.95243 5.46152 2.80657C5.81173 2.6581 6.17916 2.54439 6.55212 2.46837C6.93482 2.3904 7.32824 2.35044 7.72166 2.35044C8.11508 2.35044 8.5085 2.3904 8.8912 2.46837C9.26416 2.54439 9.63094 2.6581 9.9818 2.80657C10.3258 2.95243 10.6582 3.13274 10.9684 3.34261C11.2754 3.55085 11.5643 3.78866 11.8271 4.05083C12.0899 4.3143 12.3284 4.60214 12.536 4.91012C12.7458 5.21972 12.9261 5.55239 13.0713 5.89708C13.2198 6.2473 13.3335 6.61473 13.4095 6.98833C13.4882 7.37038 13.5281 7.7638 13.5281 8.15723C13.5281 8.55065 13.4882 8.94342 13.4095 9.32612C13.3335 9.69972 13.2201 10.0665 13.0713 10.4174Z" fill="#1E266D"/>
<path d="M9.52762 8.72764C10.178 10.5151 10.4418 11.9705 10.4928 12.2694C11.6058 11.5183 12.3969 10.3254 12.6172 8.94336C12.5152 8.91054 11.1279 8.47132 9.52762 8.72764Z" fill="#1E266D"/>
</g>
<defs>
<clipPath id="clip0_3_4557">
<rect width="16" height="16" fill="white"/>
</clipPath>
</defs>
</svg>
